<?xml version="1.0" encoding="UTF-8" standalone="no"?>
<!-- Created with Inkscape (http://www.inkscape.org/) -->

<svg
   width="64mm"
   height="64mm"
   viewBox="0 0 64 64"
   version="1.1"
   id="svg1"
   xml:space="preserve"
   xmlns="http://www.w3.org/2000/svg"
   xmlns:svg="http://www.w3.org/2000/svg"><defs
     id="defs1" /><g
     id="layer1"><path
       style="baseline-shift:baseline;display:inline;overflow:visible;opacity:1;vector-effect:none;fill:#ffffff;fill-opacity:1;stroke-linejoin:round;enable-background:accumulate;stop-color:#000000;stop-opacity:1"
       d="M 32,0.60546875 C 14.670507,0.60546875 0.60546875,14.670507 0.60546875,32 0.60546875,49.329493 14.670507,63.394531 32,63.394531 49.329493,63.394531 63.394531,49.329493 63.394531,32 63.394531,14.670507 49.329493,0.60546875 32,0.60546875 Z M 32,2.1054688 C 48.518833,2.1054688 61.894531,15.481167 61.894531,32 61.894531,48.518833 48.518833,61.894531 32,61.894531 15.481167,61.894531 2.1054688,48.518833 2.1054688,32 2.1054688,15.481167 15.481167,2.1054688 32,2.1054688 Z"
       id="path232" /><path
       style="display:inline;fill:#ffffff;fill-opacity:1;stroke:none;stroke-width:0.600001;stroke-linecap:butt;stroke-linejoin:round;stroke-dasharray:none;stroke-opacity:1"
       d="m 19.885019,49.24022 h 2.975668 c 0.07806,-0.02732 -0.206108,1.872214 0,2.645037 0.981596,3.680585 7.350157,3.936868 7.628102,-0.69826 0.0919,-1.532477 -0.01176,-2.391301 0,-2.324642 h 3.436188 c 0.240862,0.460876 0.281995,0.864597 0.342438,1.369753 -0.156991,12.656247 -15.559337,10.628708 -14.642177,-0.118081 0.02584,-0.302768 0.259781,-0.873807 0.259781,-0.873807 z"
       id="path250" /><path
       id="rect250"
       style="fill:#ffffff;fill-opacity:1;stroke-width:0.757967;stroke-linejoin:round"
       d="m 31.25,5.8768873 c 0,-1.0047738 1.572257,-0.9958002 1.569081,0 L 32.680919,49.192986 H 31.25 Z" /><path
       id="path251"
       style="opacity:1;fill:#ffffff;fill-opacity:1;stroke-width:3.85048;stroke-linejoin:round"
       d="M 32.000114,6.7499756 C 18.821308,6.7499071 7.6450797,16.74684 5.7696737,30.212626 c 1.0197841,-3.795698 4.7256943,-6.46264 8.9803303,-6.462654 4.940959,1.01e-4 9.009496,3.56849 9.239746,8.103898 0.411773,-4.600725 3.874721,-8.104108 8.010364,-8.103898 4.136086,1.93e-4 7.59898,3.504642 8.009847,8.105965 0.229096,-4.536405 4.298274,-8.106067 9.240263,-8.105965 4.253786,-2e-6 7.959198,2.665882 8.979813,6.460587 C 56.353757,16.745794 45.178065,6.7500248 32.000114,6.7499756 Z" /></g></svg>
