<?xml version="1.0" encoding="UTF-8" standalone="no"?>
<!-- Created with Inkscape (http://www.inkscape.org/) -->

<svg
   width="64mm"
   height="64mm"
   viewBox="0 0 64 64"
   version="1.1"
   id="svg1"
   xml:space="preserve"
   xmlns="http://www.w3.org/2000/svg"
   xmlns:svg="http://www.w3.org/2000/svg"><defs
     id="defs1" /><g
     id="layer1"><path
       style="baseline-shift:baseline;display:inline;overflow:visible;opacity:1;vector-effect:none;fill:#ffffff;fill-opacity:1;stroke-linejoin:round;enable-background:accumulate;stop-color:#000000;stop-opacity:1"
       d="M 32,0.60546875 C 14.670507,0.60546875 0.60546875,14.670507 0.60546875,32 0.60546875,49.329493 14.670507,63.394531 32,63.394531 49.329493,63.394531 63.394531,49.329493 63.394531,32 63.394531,14.670507 49.329493,0.60546875 32,0.60546875 Z M 32,2.1054688 C 48.518833,2.1054688 61.894531,15.481167 61.894531,32 61.894531,48.518833 48.518833,61.894531 32,61.894531 15.481167,61.894531 2.1054688,48.518833 2.1054688,32 2.1054688,15.481167 15.481167,2.1054688 32,2.1054688 Z"
       id="path232" /></g><path
     id="path1"
     style="opacity:1;fill:#ffffff;fill-opacity:1;stroke-width:0.626768;stroke-linejoin:round"
     d="m 37.526908,7.5550944 c -0.264312,0.00967 -0.432513,0.044513 -0.861446,0.09095 L 35.643819,9.4924433 C 36.370988,9.310707 37.003225,9.2228939 37.824565,9.2474971 l 1.141532,-1.631425 C 38.15171,7.5607542 37.791221,7.5454287 37.526908,7.5550944 Z m 2.116667,0.084233 c -0.07781,-0.00277 -0.153368,-0.00222 -0.227893,0.0031 l -1.019059,1.5781982 1.094507,0.041341 c 0.149279,0.037104 0.440865,0.1639712 0.590144,0.4175455 0.653608,0.6331189 2.166473,-0.8657679 0.346233,-1.9544026 -0.297971,-0.038223 -0.550507,-0.07746 -0.783932,-0.085782 z m -3.522782,0.06873 c -0.671794,0.066951 -1.365274,0.196549 -2.158008,0.6128825 l -0.82579,2.2572271 c 0.700044,-0.392734 1.389428,-0.839713 2.06034,-0.9947718 z M 33.486845,8.516276 c -0.601207,0.3191488 -1.195737,0.5681973 -1.822628,1.1570354 v 1.7161746 c -0.0033,0.150074 0.128933,0.201569 0.272335,0.244946 l 0.76016,-0.721403 z M 31.277161,9.9409953 C 29.613236,11.266871 29.715505,12.29087 30.612085,13.179557 l 1.916679,-0.983402 c -0.271472,-0.145967 -0.624355,-0.200223 -0.819072,-0.359151 -0.254293,-0.109929 -0.39546,-0.287487 -0.432531,-0.452686 z m 1.770951,2.3941687 -2.084627,1.105359 c 0.763392,0.334037 1.596216,0.625642 2.70216,0.750342 l 1.716175,-1.35909 c -0.812855,-0.08864 -1.615408,-0.199947 -2.333708,-0.496611 z m 2.780709,0.575159 -1.692403,1.388546 c 0.753404,0.165156 1.302135,0.239347 1.891874,0.331763 l 1.94045,-1.383379 c -0.70942,-0.110617 -1.32151,-0.177873 -2.139921,-0.33693 z m 2.695443,0.436666 -1.828829,1.387512 c 0.886473,0.08287 1.7313,0.182396 2.482535,0.31936 l 1.384929,-1.406632 C 40.15818,13.539515 39.415812,13.44118 38.524264,13.346989 Z m 2.50889,0.423747 -1.334802,1.377177 c 0.954286,0.08526 1.695238,0.369631 2.452564,0.63872 l 1.677417,-1.135848 c -0.846449,-0.354262 -1.672682,-0.722964 -2.795179,-0.880049 z m 3.175517,1.053165 -1.615922,1.123446 c 0.842703,0.310042 1.597842,0.695973 2.237073,1.182357 l 1.909444,-0.70435 c -0.755483,-0.575746 -1.498247,-1.157548 -2.530595,-1.601453 z m 2.898531,1.892908 -1.891874,0.641305 c 0.630201,0.393532 1.177707,0.816598 1.617989,1.277958 h 2.175578 C 48.515508,17.93108 47.975447,17.247759 47.107202,16.716809 Z m 0.116272,2.295984 c 0.465086,0.569475 0.963865,1.123635 1.28726,1.757515 l 1.918746,0.482658 c -0.265053,-0.771788 -0.511325,-1.547462 -1.158586,-2.240173 z m -15.723588,0.98702 c -10.217193,1.96e-4 -18.499736,8.28297 -18.499646,18.500163 -8.9e-5,10.217193 8.282453,18.499966 18.499646,18.500162 10.217395,9e-5 18.500252,-8.282767 18.500163,-18.500162 7.1e-5,-2.601701 -0.548617,-5.174161 -1.610238,-7.54941 l -6.532934,4.114994 c -0.404255,1.721851 -1.77109,2.91913 -3.332613,2.919202 -1.905562,3.4e-5 -3.450362,-1.763402 -3.450436,-3.938778 -1.76e-4,-2.175578 1.544697,-3.939329 3.450436,-3.939295 1.083786,-0.0746 3.144932,1.682526 3.132108,2.528012 l -1.096574,0.658357 c -6.5e-5,0.117312 -0.269304,2.066492 -0.278536,2.18333 l 2.029334,-1.308448 0.234094,-2.056205 0.468188,-0.243913 -0.244429,2.055689 1.923913,-1.18029 0.335381,-2.208651 0.397391,-0.152962 -0.274918,2.106848 2.147672,-1.39423 0.198954,-1.887223 c -3.311175,-5.699868 -9.405114,-9.207289 -15.996956,-9.20719 z m 17.219104,1.181323 c 0.416101,1.068684 0.464241,2.00245 0.480074,2.924369 l 1.739946,0.72192 c -0.03285,-1.036974 0.02037,-2.073947 -0.373104,-3.110921 z m 0.496094,3.341398 c 0.03996,0.836406 -0.10007,1.539778 -0.37207,2.145606 l 1.022676,1.784387 c 0.419785,-0.995116 0.927452,-1.90235 1.026811,-3.217892 z m -0.517281,2.588473 c -0.262217,0.535977 -0.53092,1.02331 -0.820105,1.357023 l -0.152446,2.392102 c 0.688916,-0.560165 1.35838,-1.176524 1.926498,-2.085661 z m -8.55555,6.527767 -1.475363,0.997355 c -0.732582,1.132907 0.313599,1.604076 1.078488,1.282609 z" /></svg>
