<?xml version="1.0" encoding="UTF-8" standalone="no"?>
<!-- Created with Inkscape (http://www.inkscape.org/) -->

<svg
   width="64mm"
   height="64mm"
   viewBox="0 0 64.000001 63.999999"
   version="1.1"
   id="svg1"
   xml:space="preserve"
   xmlns="http://www.w3.org/2000/svg"
   xmlns:svg="http://www.w3.org/2000/svg"><defs
     id="defs1" /><g
     id="layer1"
     transform="translate(-4.6875e-4,-4.6875e-4)"><path
       style="baseline-shift:baseline;display:inline;overflow:visible;opacity:1;vector-effect:none;fill:#ffffff;fill-opacity:1;stroke-linejoin:round;enable-background:accumulate;stop-color:#000000;stop-opacity:1"
       d="M 32,0.60546875 C 14.670507,0.60546875 0.60546875,14.670507 0.60546875,32 0.60546875,49.329493 14.670507,63.394531 32,63.394531 49.329493,63.394531 63.394531,49.329493 63.394531,32 63.394531,14.670507 49.329493,0.60546875 32,0.60546875 Z M 32,2.1054688 C 48.518833,2.1054688 61.894531,15.481167 61.894531,32 61.894531,48.518833 48.518833,61.894531 32,61.894531 15.481167,61.894531 2.1054688,48.518833 2.1054688,32 2.1054688,15.481167 15.481167,2.1054688 32,2.1054688 Z"
       id="path232" /><path
       id="rect241"
       style="fill:#ffffff;fill-opacity:1;stroke-width:0.638823;stroke-linejoin:round"
       d="M 21.69896,28.130672 28.062921,21.766711 44.09437,37.798159 37.730409,44.16212 Z" /><path
       id="ellipse241"
       style="opacity:1;fill:#ffffff;fill-opacity:1;stroke-width:0.76239;stroke-linejoin:round"
       d="m 38.810869,38.878459 a 9.25,9 45 0 0 0.176858,12.904734 9.25,9 45 0 0 9.394628,2.323992 l -6.106691,-6.106692 5.656874,-5.656875 6.106692,6.106692 A 9.25,9 45 0 0 51.715603,39.055317 9.25,9 45 0 0 38.810869,38.878459 Z" /><path
       id="path241"
       style="opacity:1;fill:#ffffff;fill-opacity:1;stroke-width:0.897999;stroke-linejoin:round"
       d="m 8.5463538,17.099438 a 10.5,11 45 0 0 2.6872072,9.758574 10.5,11 45 0 0 15.203147,-0.353715 10.5,11 45 0 0 0.353349,-15.202781 10.5,11 45 0 0 -9.758574,-2.6872075 l 6.785253,6.7852525 -8.485129,8.48513 z" /></g></svg>
