<?xml version="1.0" encoding="UTF-8" standalone="no"?>
<!-- Created with Inkscape (http://www.inkscape.org/) -->

<svg
   width="64mm"
   height="64mm"
   viewBox="0 0 63.999999 63.999999"
   version="1.1"
   id="svg1"
   xml:space="preserve"
   xmlns="http://www.w3.org/2000/svg"
   xmlns:svg="http://www.w3.org/2000/svg"><defs
     id="defs1" /><g
     id="layer1"
     transform="translate(-4.6875e-4,-4.6875e-4)"><path
       style="baseline-shift:baseline;display:inline;overflow:visible;opacity:1;vector-effect:none;fill:#ffffff;fill-opacity:1;stroke-linejoin:round;enable-background:accumulate;stop-color:#000000;stop-opacity:1"
       d="M 32,0.60546875 C 14.670507,0.60546875 0.60546875,14.670507 0.60546875,32 0.60546875,49.329493 14.670507,63.394531 32,63.394531 49.329493,63.394531 63.394531,49.329493 63.394531,32 63.394531,14.670507 49.329493,0.60546875 32,0.60546875 Z M 32,2.1054688 C 48.518833,2.1054688 61.894531,15.481167 61.894531,32 61.894531,48.518833 48.518833,61.894531 32,61.894531 15.481167,61.894531 2.1054688,48.518833 2.1054688,32 2.1054688,15.481167 15.481167,2.1054688 32,2.1054688 Z"
       id="path232" /><path
       id="rect232"
       style="fill:#ffffff;fill-opacity:1;stroke-width:1.5;stroke-linejoin:round"
       d="M 22.499919,9.5001953 V 22.3144 H 9.6857137 V 41.314274 H 22.499919 V 54.128996 H 41.499792 V 41.314274 H 54.314514 V 22.3144 H 41.499792 V 9.5001953 Z" /></g></svg>
