<?xml version="1.0" encoding="UTF-8" standalone="no"?>
<!-- Created with Inkscape (http://www.inkscape.org/) -->

<svg
   width="64mm"
   height="64mm"
   viewBox="0 0 64 64"
   version="1.1"
   id="svg1"
   xml:space="preserve"
   xmlns="http://www.w3.org/2000/svg"
   xmlns:svg="http://www.w3.org/2000/svg"><defs
     id="defs1" /><g
     id="layer1"><path
       style="baseline-shift:baseline;display:inline;overflow:visible;opacity:1;vector-effect:none;fill:#ffffff;fill-opacity:1;stroke-linejoin:round;enable-background:accumulate;stop-color:#000000;stop-opacity:1"
       d="M 32,0.60546875 C 14.670507,0.60546875 0.60546875,14.670507 0.60546875,32 0.60546875,49.329493 14.670507,63.394531 32,63.394531 49.329493,63.394531 63.394531,49.329493 63.394531,32 63.394531,14.670507 49.329493,0.60546875 32,0.60546875 Z M 32,2.1054688 C 48.518833,2.1054688 61.894531,15.481167 61.894531,32 61.894531,48.518833 48.518833,61.894531 32,61.894531 15.481167,61.894531 2.1054688,48.518833 2.1054688,32 2.1054688,15.481167 15.481167,2.1054688 32,2.1054688 Z"
       id="path232" /><path
       style="fill:#ffffff;fill-opacity:1;stroke:none;stroke-width:0.600001;stroke-linecap:butt;stroke-linejoin:round;stroke-dasharray:none;stroke-opacity:1"
       d="M 43.451645,59.583192 C 49.03651,53.83346 52.45828,45.900111 52.769867,39.276813 52.155733,33.320306 49.97702,32.028968 50.649892,27.584624 l 0.249652,-1.934461 c -1.831842,1.470577 -1.827925,4.281469 -2.237709,6.746529 -0.526606,2.476424 -1.443526,4.817588 -2.872285,6.679728 -1.617764,1.312346 -3.550274,1.829211 -4.742608,0.300588 C 39.430144,36.475973 40.465395,32.555463 40.879947,29.157022 41.456626,13.40074 26.534533,6.8462017 24.180623,5.911561 c 6.672704,5.982647 5.193217,11.397008 2.104113,18.402656 -1.434865,2.552138 -2.453125,5.388853 -3.673851,9.051035 -0.314412,1.725722 -1.97901,-0.249092 -1.937122,-0.667973 -0.163383,-4.562942 -5.443222,-6.04508 -6.445939,-6.145356 2.784771,1.547521 3.374274,4.311538 3.273068,6.944545 -1.30561,19.376806 4.537449,25.055399 9.218026,28.324428 4.920734,0.938739 9.841468,0.293595 14.762202,-0.367384 z"
       id="path242" /></g></svg>
