<?xml version="1.0" encoding="UTF-8" standalone="no"?>
<!-- Created with Inkscape (http://www.inkscape.org/) -->

<svg
   width="64mm"
   height="64mm"
   viewBox="0 0 64 64"
   version="1.1"
   id="svg1"
   xml:space="preserve"
   xmlns="http://www.w3.org/2000/svg"
   xmlns:svg="http://www.w3.org/2000/svg"><defs
     id="defs1" /><g
     id="layer1"><path
       style="baseline-shift:baseline;display:inline;overflow:visible;opacity:1;vector-effect:none;fill:#ffffff;fill-opacity:1;stroke-linejoin:round;enable-background:accumulate;stop-color:#000000;stop-opacity:1"
       d="M 32,0.60546875 C 14.670507,0.60546875 0.60546875,14.670507 0.60546875,32 0.60546875,49.329493 14.670507,63.394531 32,63.394531 49.329493,63.394531 63.394531,49.329493 63.394531,32 63.394531,14.670507 49.329493,0.60546875 32,0.60546875 Z M 32,2.1054688 C 48.518833,2.1054688 61.894531,15.481167 61.894531,32 61.894531,48.518833 48.518833,61.894531 32,61.894531 15.481167,61.894531 2.1054688,48.518833 2.1054688,32 2.1054688,15.481167 15.481167,2.1054688 32,2.1054688 Z"
       id="path232" /><path
       style="fill:#ffffff;fill-opacity:1;stroke:none;stroke-width:0.600001;stroke-linecap:butt;stroke-linejoin:round;stroke-dasharray:none;stroke-opacity:1"
       d="m 16.248091,54.246898 h 2.810353 l 1.567279,-0.425095 c 2.704917,-0.912855 5.259241,-2.101796 7.697069,-3.504314 l 3.126166,-4.029321 -7.750728,-2.68822 c -1.958332,4.81468 -2.145452,5.023516 -3.364499,7.010022 -1.257169,0.413527 -1.981554,0.775882 -2.857586,1.157206 -0.667094,0.304337 -1.186622,0.739512 -1.629533,1.298903 -0.296773,0.509722 -0.211214,0.958494 0.401479,1.180819 z"
       id="path242" /><path
       style="fill:#ffffff;fill-opacity:1;stroke:none;stroke-width:0.600001;stroke-linecap:butt;stroke-linejoin:round;stroke-dasharray:none;stroke-opacity:1"
       d="m 24.297518,42.149095 8.065775,2.77209 c 2.514592,-3.700996 6.193488,-6.188479 9.819201,-7.89878 l 1.085458,-0.701374 C 42.831653,35.877589 42.810336,35.490232 42.750268,34.901589 42.581497,34.028371 42.229251,33.37549 41.881903,32.797474 l -14.361419,1.970522 c -1.465124,2.385318 -2.327697,4.949057 -3.222966,7.381099 z"
       id="path243" /><path
       style="display:inline;fill:#ffffff;fill-opacity:1;stroke:none;stroke-width:0.600001;stroke-linecap:butt;stroke-linejoin:round;stroke-dasharray:none;stroke-opacity:1"
       d="m 28.472349,32.981166 c 0.350422,-0.587121 0.226279,-1.276577 0.233781,-1.93712 -0.150423,-3.16886 -0.697619,-6.920186 -1.357538,-10.466426 3.357887,-2.924006 7.506418,-4.589905 11.176741,-5.815417 3.695606,-1.283944 7.858343,-4.077162 9.635511,-5.3604831 -0.224823,1.8228731 -0.752004,3.5284891 -1.335947,4.9597001 l -15.689015,6.587883 c -0.460549,0.493071 -0.721762,1.17758 -0.876717,1.845276 l 0.0668,8.015676 0.350684,-0.0501 3.51e-4,-3.94104 12.707838,-3.389963 c -1.240394,1.918297 -3.130369,3.541036 -4.475422,3.974438 -0.940809,0.244613 -1.881574,0.489394 -2.822184,0.734772 -0.273569,0.148547 -0.43649,0.359328 -0.617876,0.601176 2.164126,0.298622 4.607863,1.635984 5.46068,2.605095 z"
       id="path244" /><path
       style="display:inline;fill:#ffffff;fill-opacity:1;stroke:none;stroke-width:0.600001;stroke-linecap:butt;stroke-linejoin:round;stroke-dasharray:none;stroke-opacity:1"
       d="m 30.677,24.28948 v -1.594108 c 0.0027,-0.471004 0.330301,-0.97449 0.638363,-1.476026 L 46.583372,14.87834 c -0.241648,0.404899 -0.07634,0.945449 0.342439,1.570491 -0.06845,0.355843 -0.156654,0.698522 -0.318822,0.991889 z"
       id="path245" /><path
       style="fill:#ffffff;fill-opacity:1;stroke:none;stroke-width:0.600001;stroke-linecap:butt;stroke-linejoin:round;stroke-dasharray:none;stroke-opacity:1"
       d="m 30.677,24.761808 15.776483,-6.872376 c -0.778786,1.72519 -1.436332,3.495846 -2.692271,5.042104 L 30.677,26.450382 Z"
       id="path246" /></g></svg>
