<?xml version="1.0" encoding="UTF-8" standalone="no"?>
<!-- Created with Inkscape (http://www.inkscape.org/) -->

<svg
   width="64mm"
   height="64mm"
   viewBox="0 0 64 64"
   version="1.1"
   id="svg1"
   xml:space="preserve"
   xmlns="http://www.w3.org/2000/svg"
   xmlns:svg="http://www.w3.org/2000/svg"><defs
     id="defs1" /><g
     id="layer1"><path
       style="baseline-shift:baseline;display:inline;overflow:visible;opacity:1;vector-effect:none;fill:#ffffff;fill-opacity:1;stroke-linejoin:round;enable-background:accumulate;stop-color:#000000;stop-opacity:1"
       d="M 32,0.60546875 C 14.670507,0.60546875 0.60546875,14.670507 0.60546875,32 0.60546875,49.329493 14.670507,63.394531 32,63.394531 49.329493,63.394531 63.394531,49.329493 63.394531,32 63.394531,14.670507 49.329493,0.60546875 32,0.60546875 Z M 32,2.1054688 C 48.518833,2.1054688 61.894531,15.481167 61.894531,32 61.894531,48.518833 48.518833,61.894531 32,61.894531 15.481167,61.894531 2.1054688,48.518833 2.1054688,32 2.1054688,15.481167 15.481167,2.1054688 32,2.1054688 Z"
       id="path232" /><path
       style="baseline-shift:baseline;display:inline;overflow:visible;opacity:1;vector-effect:none;fill:#ffffff;fill-opacity:1;stroke-linejoin:round;enable-background:accumulate;stop-color:#000000;stop-opacity:1"
       d="M 32,8.4492188 C 19.006464,8.4492188 8.4492188,19.006464 8.4492188,32 8.4492188,44.993536 19.006464,55.550781 32,55.550781 44.993536,55.550781 55.550781,44.993536 55.550781,32 55.550781,19.006464 44.993536,8.4492188 32,8.4492188 Z m 0,2.2011722 C 43.804568,10.650391 53.349609,20.195432 53.349609,32 53.349609,43.804568 43.804568,53.349609 32,53.349609 20.195432,53.349609 10.650391,43.804568 10.650391,32 10.650391,20.195432 20.195432,10.650391 32,10.650391 Z"
       id="path239" /><path
       style="baseline-shift:baseline;display:inline;overflow:visible;opacity:1;vector-effect:none;fill:#ffffff;fill-opacity:1;stroke-linejoin:round;enable-background:accumulate;stop-color:#000000;stop-opacity:1"
       d="m 32,22.300781 c -5.352662,0 -9.699219,4.346557 -9.699219,9.699219 0,5.352662 4.346557,9.699219 9.699219,9.699219 5.352662,0 9.699219,-4.346557 9.699219,-9.699219 0,-5.352662 -4.346557,-9.699219 -9.699219,-9.699219 z m 0,0.601563 c 5.028398,0 9.097656,4.069258 9.097656,9.097656 0,5.028398 -4.069258,9.097656 -9.097656,9.097656 -5.028398,0 -9.097656,-4.069258 -9.097656,-9.097656 0,-5.028398 4.069258,-9.097656 9.097656,-9.097656 z"
       id="path240" /><path
       id="rect241"
       style="fill:#ffffff;fill-opacity:1;stroke-width:0.600001;stroke-linejoin:round"
       d="m 31,10 h 2 v 44 h -2 z" /><path
       id="path241"
       style="fill:#ffffff;fill-opacity:1;stroke-width:0.600001;stroke-linejoin:round"
       d="m 10,33 v -2 h 44 v 2 z" /></g></svg>
