<?xml version="1.0" encoding="UTF-8" standalone="no"?>
<!-- Created with Inkscape (http://www.inkscape.org/) -->

<svg
   width="64mm"
   height="64mm"
   viewBox="0 0 64 64"
   version="1.1"
   id="svg1"
   xml:space="preserve"
   xmlns="http://www.w3.org/2000/svg"
   xmlns:svg="http://www.w3.org/2000/svg"><defs
     id="defs1" /><g
     id="layer1"><path
       style="baseline-shift:baseline;display:inline;overflow:visible;opacity:1;vector-effect:none;fill:#ffffff;fill-opacity:1;stroke-linejoin:round;enable-background:accumulate;stop-color:#000000;stop-opacity:1"
       d="M 32,0.60546875 C 14.670507,0.60546875 0.60546875,14.670507 0.60546875,32 0.60546875,49.329493 14.670507,63.394531 32,63.394531 49.329493,63.394531 63.394531,49.329493 63.394531,32 63.394531,14.670507 49.329493,0.60546875 32,0.60546875 Z M 32,2.1054688 C 48.518833,2.1054688 61.894531,15.481167 61.894531,32 61.894531,48.518833 48.518833,61.894531 32,61.894531 15.481167,61.894531 2.1054688,48.518833 2.1054688,32 2.1054688,15.481167 15.481167,2.1054688 32,2.1054688 Z"
       id="path232" /><path
       style="fill:#ffffff;fill-opacity:1;stroke:none;stroke-width:1.5;stroke-linecap:butt;stroke-linejoin:round;stroke-dasharray:none;stroke-opacity:1"
       d="m 19.772001,41.915307 5.243588,4.542216 -9.351622,11.689527 -5.477379,-4.842804 z"
       id="path235" /><path
       style="fill:#ffffff;fill-opacity:1;stroke:none;stroke-width:1.5;stroke-linecap:butt;stroke-linejoin:round;stroke-dasharray:none;stroke-opacity:1"
       d="m 23.51265,35.101982 7.314303,6.479336 -4.508817,3.206271 -5.44398,-4.642411 z"
       id="path236" /><path
       style="fill:#ffffff;fill-opacity:1;stroke:none;stroke-width:1.5;stroke-linecap:butt;stroke-linejoin:round;stroke-dasharray:none;stroke-opacity:1"
       d="m 25.583366,30.593165 9.585413,7.681687 -3.640453,1.001961 -6.178751,-5.210191 z"
       id="path237" /><path
       style="fill:#ffffff;fill-opacity:1;stroke:none;stroke-width:1.5;stroke-linecap:butt;stroke-linejoin:round;stroke-dasharray:none;stroke-opacity:1"
       d="m 25.817157,27.520487 2.271107,-2.104114 12.457697,10.253386 -2.571697,2.838884 z"
       id="path238" /><path
       style="display:inline;fill:#ffffff;fill-opacity:1;stroke:none;stroke-width:1.5;stroke-linecap:butt;stroke-linejoin:round;stroke-dasharray:none;stroke-opacity:1"
       d="M 29.557805,24.24742 41.915307,13.225866 c 0,0 1.673005,0.309565 1.870324,0.133594 0.197319,-0.175971 0.467579,-2.037318 0.467579,-2.037318 l 2.77209,-2.070716 5.310386,4.408622 -1.603137,3.072676 c 0,0 -1.839465,0.60852 -1.970519,0.834966 -0.131054,0.226446 0.500978,1.870324 0.500978,1.870324 l -8.082473,14.528413 z"
       id="path239" /></g></svg>
