<?xml version="1.0" encoding="UTF-8" standalone="no"?>
<!-- Created with Inkscape (http://www.inkscape.org/) -->

<svg
   width="64mm"
   height="64mm"
   viewBox="0 0 64 64"
   version="1.1"
   id="svg1"
   xml:space="preserve"
   xmlns="http://www.w3.org/2000/svg"
   xmlns:svg="http://www.w3.org/2000/svg"><defs
     id="defs1" /><g
     id="layer1"><path
       style="baseline-shift:baseline;display:inline;overflow:visible;opacity:1;vector-effect:none;fill:#ffffff;fill-opacity:1;stroke-linejoin:round;enable-background:accumulate;stop-color:#000000;stop-opacity:1"
       d="M 32,0.60546875 C 14.670507,0.60546875 0.60546875,14.670507 0.60546875,32 0.60546875,49.329493 14.670507,63.394531 32,63.394531 49.329493,63.394531 63.394531,49.329493 63.394531,32 63.394531,14.670507 49.329493,0.60546875 32,0.60546875 Z M 32,2.1054688 C 48.518833,2.1054688 61.894531,15.481167 61.894531,32 61.894531,48.518833 48.518833,61.894531 32,61.894531 15.481167,61.894531 2.1054688,48.518833 2.1054688,32 2.1054688,15.481167 15.481167,2.1054688 32,2.1054688 Z"
       id="path232" /><path
       style="fill:#ffffff;fill-opacity:1;stroke:none;stroke-width:1.5;stroke-linecap:butt;stroke-linejoin:round;stroke-dasharray:none;stroke-opacity:1"
       d="m 17.100109,9.5186152 c -0.394293,12.9528258 6.982254,19.6493898 12.056913,24.7150018 0.794207,0.298611 1.000359,0.701436 1.102154,1.135554 l 3.874243,-1.970521 -5.744567,3.640452 1.119854,2.612853 5.26646,-2.550572 -2.172708,1.263478 c 1.222051,1.556722 8.78738,11.232329 10.284947,14.169847 0.315953,0.821054 0.230514,1.749045 0.27564,2.631205 2.17967,-0.145087 4.174441,-1.17918 8.14361,-3.457779 -1.650699,-3.146614 -3.628458,-5.65116 -5.986761,-8.61999 -4.122105,-4.935717 -3.798113,-4.657908 -6.801527,-7.923308 l 2.149094,-1.192627 -2.574187,-2.952052 -2.090055,1.169011 c -1.63604,-2.245865 -2.4729,-4.363716 -3.318105,-7.025881 C 26.88015,21.143871 23.111497,16.359038 17.100109,9.5186152 Z"
       id="path233" /></g></svg>
