<?xml version="1.0" encoding="UTF-8" standalone="no"?>
<!-- Created with Inkscape (http://www.inkscape.org/) -->

<svg
   width="128"
   height="127.99999"
   viewBox="0 0 33.866667 33.866664"
   version="1.1"
   id="svg1"
   xml:space="preserve"
   sodipodi:docname="achievement_mask.svg"
   inkscape:version="1.4.2 (f4327f4, 2025-05-13)"
   inkscape:export-filename="achievement_mask.svg"
   inkscape:export-xdpi="96"
   inkscape:export-ydpi="96"
   xmlns:inkscape="http://www.inkscape.org/namespaces/inkscape"
   xmlns:sodipodi="http://sodipodi.sourceforge.net/DTD/sodipodi-0.dtd"
   xmlns="http://www.w3.org/2000/svg"
   xmlns:svg="http://www.w3.org/2000/svg"><sodipodi:namedview
     id="namedview1"
     pagecolor="#808080"
     bordercolor="#000000"
     borderopacity="0.25"
     inkscape:showpageshadow="2"
     inkscape:pageopacity="0.0"
     inkscape:pagecheckerboard="0"
     inkscape:deskcolor="#d1d1d1"
     inkscape:document-units="mm"
     inkscape:zoom="4.0174225"
     inkscape:cx="98.446206"
     inkscape:cy="97.823916"
     inkscape:window-width="1920"
     inkscape:window-height="1017"
     inkscape:window-x="-8"
     inkscape:window-y="-8"
     inkscape:window-maximized="1"
     inkscape:current-layer="svg1"><inkscape:page
       x="0"
       y="0"
       width="33.866669"
       height="33.866665"
       id="page2"
       margin="0"
       bleed="0" /></sodipodi:namedview><defs
     id="defs1" /><path
     sodipodi:type="star"
     style="fill:#ffffff;stroke-width:0.460375;stroke-linecap:round;stroke-miterlimit:5"
     id="path2"
     inkscape:flatsided="false"
     sodipodi:sides="13"
     sodipodi:cx="16.904667"
     sodipodi:cy="17.184082"
     sodipodi:r1="16.830158"
     sodipodi:r2="11.511058"
     sodipodi:arg1="-1.5707963"
     sodipodi:arg2="-1.3291354"
     inkscape:rounded="0"
     inkscape:randomized="0"
     d="m 16.904667,0.3539238 2.754776,5.6535907 5.066589,-3.7257973 -0.188122,6.2862139 6.217706,-0.9444683 -3.087923,5.4787412 5.944421,2.053227 -5.280318,3.416155 4.309342,4.580553 -6.263056,0.570969 1.687044,6.058529 -5.811003,-2.40502 -1.321736,6.14857 -4.02772,-4.830047 -4.027721,4.830046 -1.321734,-6.148568 -5.8110047,2.405018 1.687045,-6.058527 L 1.1681954,23.152138 5.4775377,18.571587 0.19721952,15.15543 6.1416406,13.102205 3.0537185,7.6234621 9.2714232,8.5679319 9.0833028,2.2817168 14.14989,6.0075147 Z"
     inkscape:transform-center-y="-0.24965397"
     transform="matrix(1.0135201,0,0,1.020964,-0.19988594,-0.36134348)" /></svg>
