<?xml version="1.0" encoding="UTF-8" standalone="no"?>
<!-- Created with Inkscape (http://www.inkscape.org/) -->

<svg
   width="255.99998"
   height="255.99998"
   viewBox="0 0 67.733328 67.733328"
   version="1.1"
   id="svg1"
   xml:space="preserve"
   xmlns="http://www.w3.org/2000/svg"
   xmlns:svg="http://www.w3.org/2000/svg"><defs
     id="defs1" /><g
     id="layer1"><path
       style="fill:#ffffff;stroke-width:0.460375;stroke-linecap:round;stroke-miterlimit:5"
       d="M 21.43125,0 36.270935,15.09619 50.535417,2.6458333 46.357325,22.043109 67.733333,26.722917 49.741667,36.777083 58.208333,56.620833 38.629167,47.625 28.575,67.733333 27.516667,41.539583 3.96875,49.741667 18.785417,29.104167 0,19.314583 21.43125,21.43125 Z"
       id="path1" /><path
       style="fill:#ffffff;stroke-width:0.460375;stroke-linecap:round;stroke-miterlimit:5"
       id="path2"
       d="m 60.952538,22.887254 -6.371247,-11.035323 12.742493,-1e-6 z"
       transform="matrix(0.27518338,0.30036588,-1.2174736,1.1279858,63.571054,-25.82306)" /><path
       style="fill:#ffffff;stroke-width:0.460375;stroke-linecap:round;stroke-miterlimit:5"
       id="path3"
       d="m 14.169847,18.799429 -5.052409,-8.751028 10.104817,0 z"
       transform="matrix(0.47872231,-0.54031055,0.7484771,0.66316064,-6.5718747,8.2255945)" /><path
       style="fill:#ffffff;stroke-width:0.460375;stroke-linecap:round;stroke-miterlimit:5"
       id="path4"
       d="m 56.844502,38.953519 -4.521418,-7.831325 9.042835,0 z"
       transform="matrix(-0.15908364,0.25444954,-0.8479194,-0.53012517,98.466859,45.444182)" /><path
       style="fill:#ffffff;stroke-width:0.460375;stroke-linecap:round;stroke-miterlimit:5"
       id="path5"
       d="M 19.413755,59.513169 13.27301,49.371532 25.126298,49.12431 Z"
       transform="matrix(-0.30835283,-0.25803071,0.64175365,-0.76691085,-13.075307,103.43386)" /></g></svg>
