<?xml version="1.0" encoding="UTF-8" standalone="no"?>
<svg
   id="hud_obj_status_build_128"
   width="128"
   height="128"
   viewBox="0 0 128 128"
   version="1.1"
   xmlns="http://www.w3.org/2000/svg"
   xmlns:svg="http://www.w3.org/2000/svg">
  <defs
     id="defs1">
    <style
       id="style1">
      .cls-1 {
        fill: #fff;
        fill-rule: evenodd;
      }
    </style>
  </defs>
  <path
     id="path1"
     style="fill:#ffffff;fill-opacity:1;stroke-width:4.39544;stroke-linecap:square;stroke-miterlimit:5;paint-order:stroke fill markers"
     d="m 32.997508,0 v 3.043308 c -1.222816,0.0719 -2.438348,0.231788 -3.638175,0.478481 L 28.570487,0.581936 25.67374,1.357849 26.458274,4.297702 c -1.16253,0.386696 -2.293191,0.855671 -3.388159,1.405267 l -1.521654,-2.633797 -2.599312,1.5001 1.521654,2.6338 c -1.023122,0.673874 -1.993904,1.423436 -2.90968,2.237219 l -2.155317,-2.155318 -2.120833,2.125144 2.151008,2.151006 c -0.813784,0.915776 -1.559035,1.886556 -2.232909,2.90968 l -2.63811,-1.521656 -1.5001,2.599314 2.63811,1.521654 c -0.549599,1.094968 -1.018576,2.229939 -1.405268,3.392469 L 7.357851,19.673738 6.581936,22.570484 9.521789,23.359331 C 9.275096,24.559162 9.115213,25.779003 9.043308,27.001818 H 6 v 3.000202 h 3.043308 c 0.0719,1.222816 0.231788,2.438346 0.478481,3.638175 l -2.939853,0.788847 0.775915,2.896747 2.939853,-0.788847 c 0.386692,1.162533 0.855671,2.297503 1.405268,3.392471 l -2.63811,1.521654 1.5001,2.599313 2.63811,-1.521654 c 0.673874,1.023122 1.419125,1.993904 2.232909,2.90968 l -2.151008,2.155316 2.120833,2.120834 2.155317,-2.155319 c 0.915776,0.813782 1.886558,1.563345 2.90968,2.23722 l -1.521654,2.633797 2.599312,1.500102 1.521654,-2.633799 c 1.01054,0.507219 2.052565,0.946167 3.120901,1.314746 l -0.702635,1.211288 0.581936,0.336228 -0.396577,1.482858 2.896747,0.775916 0.189673,-0.706946 1.448373,0.836265 c -0.983488,1.959415 -1.825433,3.989056 -2.51741,6.069374 l -5.258974,-1.409578 -1.392337,5.185695 5.263287,1.41389 c -0.441451,2.14706 -0.729146,4.32086 -0.857817,6.50906 h -5.448649 v 5.37105 h 5.448642 c 0.128671,2.18819 0.416366,4.36199 0.857817,6.50906 l -5.263286,1.41388 1.392336,5.1857 5.258974,-1.40958 c 0.691977,2.08032 1.533923,4.10996 2.517411,6.06938 l -4.720146,2.720007 2.685526,4.65117 4.715835,-2.72432 c 1.205881,1.83085 2.544026,3.5728 4.00027,5.21156 l -3.849398,3.84939 3.793359,3.79768 3.853708,-3.85371 c 1.638755,1.45623 3.376397,2.79439 5.207247,4.00027 l -2.720011,4.72014 4.646866,2.68122 2.724321,-4.71584 c 1.959415,0.98349 3.984745,1.82543 6.065064,2.51741 l -1.405268,5.25898 5.185693,1.38802 1.409578,-5.26328 c 2.147065,0.44145 4.325173,0.72914 6.513366,0.85781 V 128 h 5.36675 v -5.44865 c 2.18819,-0.12867 4.3663,-0.41636 6.51337,-0.85781 l 1.40957,5.26328 5.19001,-1.38802 -1.40958,-5.25898 c 2.08032,-0.69198 4.10996,-1.53392 6.06937,-2.51741 l 2.720013,4.71584 4.65118,-2.68122 -2.72432,-4.72014 c 1.83085,-1.20588 3.5728,-2.54404 5.21156,-4.00027 l 3.84939,3.85371 3.79767,-3.79768 -3.8537,-3.84939 c 1.45624,-1.63876 2.79439,-3.38071 4.00026,-5.21156 l 4.72015,2.72432 2.68122,-4.65117 -4.71584,-2.720007 c 0.98349,-1.95942 1.82113,-3.98906 2.5131,-6.06938 l 5.26329,1.40958 1.38802,-5.1857 -5.26328,-1.41388 c 0.44145,-2.14707 0.72914,-4.32087 0.85781,-6.50906 h 5.44864 v -5.37105 h -5.44864 c -0.12867,-2.1882 -0.41636,-4.362 -0.85781,-6.50906 l 5.26328,-1.41389 -1.38802,-5.185695 -5.26329,1.409578 c -0.69197,-2.080318 -1.52961,-4.109959 -2.5131,-6.069374 l 4.71584,-2.724321 -2.68122,-4.646865 -4.72015,2.724321 c -1.20587,-1.83085 -2.54402,-3.572802 -4.00026,-5.211558 l 3.8537,-3.853708 -3.79767,-3.793359 -3.84939,3.849398 C 99.6737,41.434579 97.93175,40.100742 96.1009,38.894861 l 2.24584,-3.896814 h 0.004 c 0.0489,2.47e-4 0.0977,2.47e-4 0.14657,0 8.00719,4.94e-4 14.49909,-6.489477 14.50098,-14.496667 4.9e-4,-8.008873 -6.4921,-14.50147 -14.50098,-14.500976 -8.007193,0.0019 -14.497153,6.493787 -14.496663,14.500976 5.6e-4,2.759715 0.78865,5.461962 2.2717,7.789318 l -4.66853,-1.250084 -1.40957,5.263286 c -2.14707,-0.441453 -4.32518,-0.724835 -6.51337,-0.853506 v -5.448643 h -5.36675 v 5.448643 c -2.188193,0.128671 -4.366301,0.412053 -6.513366,0.853506 L 61.18434,30.00202 h 1.814779 V 27.001818 H 59.9515 c -0.07191,-1.222815 -0.231788,-2.442656 -0.47848,-3.642487 l 2.944163,-0.788847 -0.780224,-2.896746 -2.935544,0.788846 c -0.386692,-1.16253 -0.859984,-2.297501 -1.409576,-3.392469 l 2.638107,-1.521654 -1.500102,-2.599314 -2.638107,1.521656 c -0.673875,-1.023124 -1.419126,-1.993904 -2.23291,-2.90968 L 55.709835,9.410117 53.589002,7.284973 51.437996,9.440291 C 50.52263,8.626508 49.547537,7.876946 48.524415,7.203072 l 1.521654,-2.6338 -2.595002,-1.5001 -1.521654,2.633797 C 44.834445,5.153373 43.699475,4.684398 42.536944,4.297702 L 43.325789,1.357849 40.424732,0.581936 39.635887,3.521789 C 38.436056,3.275096 37.220526,3.115213 35.99771,3.043308 V 0 Z M 31.11376,8.315215 28.997239,21.001414 15.927393,19.910823 C 18.768441,13.778749 24.449951,9.441062 31.11376,8.315215 Z m 6.772009,0 c 6.663809,1.125847 12.345319,5.463534 15.186367,11.595608 L 39.99798,21.001414 Z m 60.611841,4.685661 c 4.14252,-2.56e-4 7.50076,3.357983 7.50051,7.500504 2.5e-4,4.14252 -3.35799,7.500762 -7.50051,7.500506 -4.14252,2.54e-4 -7.500763,-3.357986 -7.500503,-7.500506 -2.6e-4,-4.142521 3.357983,-7.500758 7.500503,-7.500504 z m -64.000002,8.000538 c 4.14252,-2.56e-4 7.50076,3.357984 7.500506,7.500504 -0.0021,4.140839 -3.359668,7.496452 -7.500506,7.496196 -4.140838,2.56e-4 -7.498381,-3.35536 -7.500504,-7.496196 -2.54e-4,-4.14252 3.357984,-7.500757 7.500504,-7.500504 z m -20.415168,5.664174 11.914597,4.3365 -5.616758,12.3629 c -4.074278,-3.870449 -6.379899,-9.243449 -6.37974,-14.86307 -4.4e-5,-0.612249 0.02719,-1.22653 0.0819,-1.83633 z m 40.834649,0 c 0.05471,0.6098 0.08195,1.224081 0.0819,1.83633 6e-5,2.097395 -0.32101,4.162024 -0.935408,6.125414 -1.194079,0.477792 -2.367298,1.004693 -3.517478,1.582003 l -2.724318,-4.720146 -3.642488,2.107901 -1.181113,-2.595002 z m 31.756448,2.219979 c 1.5515,2.187687 3.67935,3.902201 6.14697,4.952918 l -1.36648,2.37085 c -1.95941,-0.983488 -3.98905,-1.825436 -6.06937,-2.517411 z m -52.175929,9.112682 1.642353,1.737185 -3.099347,3.099347 3.849398,3.853708 c -0.663813,0.747008 -1.300958,1.513424 -1.913923,2.301878 -0.158863,0.0044 -0.319373,0.0079 -0.478481,0.0086 -2.83677,1.68e-4 -5.640042,-0.588458 -8.237622,-1.728564 z M 64.939314,40.882062 61.154578,63.577563 37.76507,61.63346 c 0.865237,-1.867513 1.878526,-3.641686 3.021756,-5.310702 v -0.0044 l 2.538963,-0.676771 -0.530208,-1.982891 c 0.440611,-0.532081 0.893472,-1.051096 1.362162,-1.556139 0.600557,-0.24562 1.19171,-0.514989 1.77167,-0.80609 l 1.521654,2.6338 2.595002,-1.500103 -1.521654,-2.633797 c 1.023122,-0.673875 1.998215,-1.423438 2.913991,-2.23722 l 2.151006,2.155319 2.120833,-2.120834 -2.151008,-2.155316 c 0.325767,-0.366597 0.64041,-0.741022 0.944031,-1.125077 0.79669,-0.40269 1.608346,-0.776092 2.435507,-1.120766 h 0.0044 l 1.487169,0.857817 1.043175,-1.806155 c 1.769964,-0.588487 3.596678,-1.046361 5.465885,-1.362162 z m 12.121503,0 c 11.92471,2.014675 22.090263,9.778213 27.174253,20.751398 l -23.393823,1.944103 z m -6.06075,22.695501 c 7.41231,0.001 13.42021,6.011 13.41901,13.42331 -0.001,7.41063 -6.00838,13.41784 -13.41901,13.41901 -7.41231,0.001 -13.422143,-6.0067 -13.423317,-13.41901 -0.0012,-7.41399 6.009325,-13.42452 13.423317,-13.42331 z m -36.536942,10.13861 21.324711,7.75914 -10.056712,22.122177 C 38.440309,96.671433 34.311967,87.057043 34.312252,77.000873 c -1.11e-4,-1.0956 0.05295,-2.19348 0.150873,-3.2847 z m 73.073885,0 c 0.0979,1.09122 0.14666,2.1891 0.14657,3.2847 2.8e-4,10.05617 -4.12805,19.67056 -11.41887,26.596617 L 86.207987,81.475313 Z m -36.536943,20.28585 15.33724,16.238157 c -4.80444,2.24262 -10.03522,3.41868 -15.33724,3.4442 -5.076325,3e-4 -10.098381,-1.05486 -14.746683,-3.09504 z" />
</svg>
