<?xml version="1.0" encoding="UTF-8" standalone="no"?>
<!-- Created with Inkscape (http://www.inkscape.org/) -->

<svg
   width="255.99998"
   height="127.99999"
   viewBox="0 0 67.733328 33.866664"
   version="1.1"
   id="svg1"
   xml:space="preserve"
   xmlns="http://www.w3.org/2000/svg"
   xmlns:svg="http://www.w3.org/2000/svg"><defs
     id="defs1" /><g
     id="layer1"
     style="display:inline"><path
       style="display:inline;opacity:1;fill:#808080;fill-opacity:1;stroke:none;stroke-width:0.46;stroke-linecap:round;stroke-miterlimit:5;stroke-dasharray:none"
       d="M 0,2.6458333 65.616667,0 67.733333,33.866667 0,25.929167 Z"
       id="path1" /><path
       id="path5"
       style="display:inline;fill:#ffffff;fill-opacity:1;stroke:none;stroke-width:0.459999;stroke-linecap:round;stroke-miterlimit:5;stroke-dasharray:none;stroke-opacity:1"
       d="M 37.885026,1.9125448 30.180587,2.2231201 45.7724,30.493229 l 7.51427,0.880567 z" /><path
       id="path6"
       style="display:inline;fill:#ffffff;fill-opacity:1;stroke:none;stroke-width:0.459999;stroke-linecap:round;stroke-miterlimit:5;stroke-dasharray:none;stroke-opacity:1"
       d="M 51.299711,1.3714925 43.580286,1.6825846 60.415951,32.209403 66.882739,32.96698 66.755615,30.937646 Z" /><path
       id="path7"
       style="display:inline;fill:#ffffff;fill-opacity:1;stroke:none;stroke-width:0.459999;stroke-linecap:round;stroke-miterlimit:5;stroke-dasharray:none;stroke-opacity:1"
       d="M 64.873043,0.8242391 57.348954,1.1275798 65.856445,16.552995 Z" /><path
       id="path8"
       style="display:inline;fill:#ffffff;fill-opacity:1;stroke:none;stroke-width:0.459999;stroke-linecap:round;stroke-miterlimit:5;stroke-dasharray:none;stroke-opacity:1"
       d="m 23.729818,2.4830526 -7.687903,0.3100586 14.278198,25.8893758 7.570081,0.887284 z" /><path
       id="path9"
       style="display:inline;fill:#ffffff;fill-opacity:1;stroke:none;stroke-width:0.459999;stroke-linecap:round;stroke-miterlimit:5;stroke-dasharray:none;stroke-opacity:1"
       d="M 10.315133,3.0241048 2.642216,3.3336466 15.676562,26.966829 23.298836,27.859798 Z" /><path
       id="path10"
       style="display:inline;fill:#ffffff;fill-opacity:1;stroke:none;stroke-width:0.459999;stroke-linecap:round;stroke-miterlimit:5;stroke-dasharray:none;stroke-opacity:1"
       d="M 0.79271647,11.913485 V 25.22275 l 7.41143393,0.868681 z" /><path
       style="baseline-shift:baseline;display:inline;overflow:visible;opacity:1;vector-effect:none;fill:#ffffff;fill-opacity:1;stroke:none;enable-background:accumulate;stop-color:#000000;stop-opacity:1"
       d="M 22.140625,4.2734375 1.6464844,4.6640625 V 23.625 L 22.726562,26.552734 Z M 20.193359,6.3105469 20.664062,24.248047 3.6464844,21.882812 V 6.625 Z"
       id="path4" /><path
       id="rect1"
       style="display:inline;fill:#808080;fill-opacity:1;stroke:none"
       d="M 2.6458333,5.6443714 21.166667,5.2916667 21.695833,25.4 2.6458333,22.754167 Z" /></g></svg>
