<svg id="ico_boost_active" xmlns="http://www.w3.org/2000/svg" width="128" height="128" viewBox="0 0 128 128">
  <defs>
    <style>
      .cls-1 {
        fill: #fff;
        fill-rule: evenodd;
      }
    </style>
  </defs>
  <path id="Shape_29_copy" data-name="Shape 29 copy" class="cls-1" d="M112,64l-1,11S90.449,94.028,58.162,105.991C43.71,99.323,23,90,23,90L22,77l-4-4L16,57.631S73.135,41.08,84.542,34C92.96,37.07,109,44,109,44l-1,14ZM44.058,54.861A89.147,89.147,0,0,1,30,59c10.338-1.379,8.255,9.891,0,9,2.238,0.7,7.773,3.591,10,4,7.857-4.654,17.6-.814,17,3,5.03-1.881,12.921-5.485,15.692-7.864-5.872.725-15.229-.228-21.846-3.37C46.249,61.6,44.152,57.908,44.058,54.861ZM51.982,53c-0.635,3.367,4.944,7.4,12.461,9S78.568,62.174,79.2,58.808s-4.944-7.4-12.461-9S52.617,49.631,51.982,53Zm45.834-9.452c-3.448-1.287-5.747-2.11-9.092-3.383,0.169,4.362-8.965,4.72-9.673-.173a96.489,96.489,0,0,1-14,5.8c5.146,0.318,9.328,1.6,14.812,3.773A20.678,20.678,0,0,1,90,58a48.578,48.578,0,0,0,10-7.714C96.391,51.678,93.392,44.767,97.815,43.546ZM104,61l1-9A142.34,142.34,0,0,1,85,67,223.026,223.026,0,0,1,58,81a156.608,156.608,0,0,1-22-5A75.738,75.738,0,0,0,58,88v13s24.51-11.067,32-16c12.083-7.958,17-13,17-13l1-7c-5.973,4.978-19,9-19,9S99.851,67.179,104,61Z"/>
</svg>
