<?xml version="1.0" encoding="UTF-8" standalone="no"?>
<!-- Created with Inkscape (http://www.inkscape.org/) -->

<svg
   width="160"
   height="160"
   viewBox="0 0 42.333333 42.333333"
   version="1.1"
   id="svg1"
   xml:space="preserve"
   xmlns="http://www.w3.org/2000/svg"
   xmlns:svg="http://www.w3.org/2000/svg"><defs
     id="defs1" /><g
     id="layer1"
     transform="translate(-12.7,-12.7)"><path
       id="path1"
       style="display:inline;fill:#ffffff;stroke-width:2.39863;stroke-linecap:round;stroke-miterlimit:5"
       d="M 33.866667,12.7 A 21.166666,21.166666 0 0 0 12.7,33.866667 21.166666,21.166666 0 0 0 33.866667,55.033333 21.166666,21.166666 0 0 0 55.033333,33.866667 21.166666,21.166666 0 0 0 33.866667,12.7 Z m 0,4.233333 a 16.933332,16.933332 0 0 1 10.378694,3.553789 L 20.487122,44.245878 A 16.933332,16.933332 0 0 1 16.933333,33.866667 16.933332,16.933332 0 0 1 33.866667,16.933333 Z m 13.694254,6.973735 A 16.933332,16.933332 0 0 1 50.8,33.866667 16.933332,16.933332 0 0 1 33.866667,50.8 16.933332,16.933332 0 0 1 23.907068,47.560921 Z" /></g></svg>
