<?xml version="1.0" encoding="UTF-8" standalone="no"?>
<!-- Created with Inkscape (http://www.inkscape.org/) -->

<svg
   width="255.99998"
   height="255.99998"
   viewBox="0 0 67.733328 67.733329"
   version="1.1"
   id="svg1"
   xml:space="preserve"
   xmlns="http://www.w3.org/2000/svg"
   xmlns:svg="http://www.w3.org/2000/svg"><defs
     id="defs1" /><g
     id="layer1"><path
       id="path7"
       style="display:inline;fill:#808080;stroke-width:1.54464;stroke-linecap:round;stroke-miterlimit:5"
       d="M 33.866667,3.4395833 A 30.427084,30.427084 0 0 0 3.4395833,33.866667 30.427084,30.427084 0 0 0 33.866667,64.29375 30.427084,30.427084 0 0 0 64.29375,33.866667 30.427084,30.427084 0 0 0 33.866667,3.4395833 Z m 0,17.9916667 A 12.435416,12.435416 0 0 1 46.302083,33.866667 12.435416,12.435416 0 0 1 33.866667,46.302083 12.435416,12.435416 0 0 1 21.43125,33.866667 12.435416,12.435416 0 0 1 33.866667,21.43125 Z" /><path
       id="path1"
       style="display:inline;opacity:1;fill:#ffffff;stroke-width:0.472132;stroke-linecap:round;stroke-miterlimit:5"
       d="M 33.866667,1.0583333 A 32.808333,32.808333 0 0 0 15.345833,6.7861491 V 9.733256 l 12.993522,12.993522 h 5.17e-4 a 12.435416,12.435416 0 0 1 5.526795,-1.295528 12.435416,12.435416 0 0 1 5.526794,1.295528 h 5.17e-4 L 52.3875,9.733256 V 6.7861491 A 32.808333,32.808333 0 0 0 33.866667,1.0583333 Z M 6.7861491,15.345833 A 32.808333,32.808333 0 0 0 1.0583333,33.866667 32.808333,32.808333 0 0 0 6.7861491,52.3875 H 9.733256 L 22.726778,39.393978 a 12.435416,12.435416 0 0 1 0,-5.17e-4 12.435416,12.435416 0 0 1 -1.295528,-5.526794 12.435416,12.435416 0 0 1 1.295528,-5.526795 12.435416,12.435416 0 0 1 0,-5.17e-4 L 9.733256,15.345833 Z m 51.2139279,0 -12.993522,12.993522 a 12.435416,12.435416 0 0 1 0,5.17e-4 12.435416,12.435416 0 0 1 1.295528,5.526795 12.435416,12.435416 0 0 1 -1.295528,5.526794 v 5.17e-4 L 58.000077,52.3875 h 2.947107 A 32.808333,32.808333 0 0 0 66.675,33.866667 32.808333,32.808333 0 0 0 60.947184,15.345833 Z M 28.339355,45.006555 15.345833,58.000077 v 2.947107 A 32.808333,32.808333 0 0 0 33.866667,66.675 32.808333,32.808333 0 0 0 52.3875,60.947184 V 58.000077 L 39.393978,45.006555 h -5.17e-4 a 12.435416,12.435416 0 0 1 -5.526794,1.295528 12.435416,12.435416 0 0 1 -5.526795,-1.295528 12.435416,12.435416 0 0 1 -5.17e-4,0 z" /></g></svg>
