<?xml version="1.0" encoding="UTF-8" standalone="no"?>
<svg
   id="ico_health_cluster_bubble.svg"
   width="117.02856"
   height="117.02858"
   viewBox="0 0 117.02856 117.02858"
   version="1.1"
   xmlns="http://www.w3.org/2000/svg"
   xmlns:svg="http://www.w3.org/2000/svg">
  <defs
     id="defs1">
    <style
       id="style1">
      .cls-1, .cls-2, .cls-3, .cls-4, .cls-5 {
        fill: #ece3cb;
        fill-rule: evenodd;
      }

      .cls-1 {
        opacity: 0.61;
      }

      .cls-2 {
        opacity: 0.4;
      }

      .cls-3 {
        opacity: 0.19;
      }

      .cls-4 {
        opacity: 0.08;
      }
    </style>
  </defs>
  <path
     id="OU"
     class="cls-5"
     d="M 58.514283,117.02858 A 58.514286,58.514286 0 1 1 117.02857,58.514286 58.514286,58.514286 0 0 1 58.514283,117.02858 Z m -7.31951,-95.090947 h -12.1903 v 12.190303 h 12.1903 z m 26.81888,0 h -12.1903 v 12.190303 h 12.1903 z m 9.75255,17.066843 h -26.81887 v 12.1903 h 7.31429 v 32.18286 h -19.50512 v -32.18286 h 7.31429 v -12.1903 H 29.25192 v 12.1903 h 7.314283 v 37.05887 l 7.31429,7.31429 h 29.25714 l 7.31429,-7.31429 v -37.05887 h 7.31428 z m -18.18122,65.994194 c -31.74557,0 -57.480361,-25.479844 -57.480361,-56.910894 A 56.21551,56.21551 0 0 1 19.055806,20.938711 54.1184,54.1184 0 0 0 3.7705154,58.616166 c 0,30.17404 24.7050456,54.634584 55.1810576,54.634584 a 55.234351,55.234351 0 0 0 38.05414,-15.134304 57.670531,57.670531 0 0 1 -27.42073,6.882224 z"
     style="fill:#ffffff;fill-opacity:1;stroke-width:0.522449" />
</svg>
