<?xml version="1.0" encoding="UTF-8" standalone="no"?>
<!-- Created with Inkscape (http://www.inkscape.org/) -->

<svg
   width="128"
   height="128"
   viewBox="0 0 33.866667 33.866666"
   version="1.1"
   id="svg1"
   xml:space="preserve"
   inkscape:version="1.4.2 (f4327f4, 2025-05-13)"
   sodipodi:docname="robots.svg"
   inkscape:export-filename="robots.png"
   inkscape:export-xdpi="72"
   inkscape:export-ydpi="72"
   xmlns:inkscape="http://www.inkscape.org/namespaces/inkscape"
   xmlns:sodipodi="http://sodipodi.sourceforge.net/DTD/sodipodi-0.dtd"
   xmlns="http://www.w3.org/2000/svg"
   xmlns:svg="http://www.w3.org/2000/svg"><sodipodi:namedview
     id="namedview1"
     pagecolor="#ffffff"
     bordercolor="#000000"
     borderopacity="0.25"
     inkscape:showpageshadow="2"
     inkscape:pageopacity="0.0"
     inkscape:pagecheckerboard="0"
     inkscape:deskcolor="#d1d1d1"
     inkscape:document-units="mm"
     inkscape:zoom="4"
     inkscape:cx="30.125"
     inkscape:cy="74.25"
     inkscape:window-width="1920"
     inkscape:window-height="1017"
     inkscape:window-x="-8"
     inkscape:window-y="-8"
     inkscape:window-maximized="1"
     inkscape:current-layer="layer1" /><defs
     id="defs1" /><g
     inkscape:label="Layer 1"
     inkscape:groupmode="layer"
     id="layer1"><path
       id="path7"
       style="baseline-shift:baseline;display:inline;overflow:visible;opacity:1;vector-effect:none;fill:#ffffff;fill-opacity:1;stroke-miterlimit:4.9;paint-order:stroke fill markers;enable-background:accumulate;stop-color:#000000"
       d="M 16.933333 0 C 14.150839 0.31413227 11.400063 1.0652497 8.9343384 4.4746623 C 9.4021516 4.2615165 9.8679593 4.062901 10.247953 3.9294759 C 11.409384 3.5216719 12.444231 3.2903998 13.662215 3.1424438 C 14.913936 2.9903905 18.956307 2.990825 20.204451 3.1424438 C 21.422435 3.2903998 22.457281 3.5216719 23.618713 3.9294759 C 23.998707 4.062901 24.464515 4.2615165 24.932328 4.4746623 C 22.466603 1.0652497 19.715827 0.31413227 16.933333 0 z M 16.404167 3.8292236 C 15.292321 3.8373351 14.253974 3.8712712 13.757817 3.931543 C 12.584083 4.074123 11.623314 4.2894363 10.511503 4.6798177 C 9.9192043 4.8877867 9.0141595 5.3093738 8.2785645 5.6678711 L 8.2020833 5.8208333 L 6.5468872 14.300936 C 9.0725474 17.533086 9.5731053 21.156663 10.718726 24.525635 C 12.32373 23.819796 14.07861 23.715558 16.404167 23.685376 L 16.404167 19.5802 L 14.023433 19.5802 L 13.757817 19.5802 C 13.758917 17.815967 13.758333 16.051735 13.758333 14.2875 C 13.758333 14.2875 12.449496 14.886437 11.773958 14.816667 C 9.667732 14.599185 9.0512379 11.94499 9.2604167 11.90625 L 13.765051 11.90625 L 15.345833 11.90625 L 15.345833 19.051034 L 16.404167 19.051034 L 16.404167 3.8292236 z M 17.4625 3.8292236 L 17.4625 19.051034 L 18.520833 19.051034 L 18.520833 11.90625 L 20.101615 11.90625 L 24.60625 11.90625 C 24.815429 11.94499 24.198936 14.599185 22.092708 14.816667 C 21.41717 14.886437 20.108333 14.2875 20.108333 14.2875 C 20.108333 16.051735 20.10775 17.815967 20.10885 19.5802 L 19.843233 19.5802 L 17.4625 19.5802 L 17.4625 23.685376 C 19.788039 23.715558 21.542945 23.819801 23.147941 24.525635 C 24.293562 21.156663 24.794118 17.533086 27.319779 14.300936 L 25.664583 5.8208333 L 25.588102 5.6678711 C 24.852507 5.3093738 23.947463 4.8877867 23.355164 4.6798177 C 22.243352 4.2894363 21.282584 4.074123 20.10885 3.931543 C 19.615406 3.8716009 18.576188 3.8374623 17.4625 3.8292236 z M 14.948958 4.2333333 C 15.314272 4.2333329 15.610417 4.5294781 15.610417 4.8947917 C 15.610417 5.2601053 15.314272 5.5562504 14.948958 5.55625 C 14.583645 5.5562498 14.2875 5.2601049 14.2875 4.8947917 C 14.2875 4.5294784 14.583645 4.2333335 14.948958 4.2333333 z M 18.917708 4.2333333 C 19.283021 4.2333335 19.579167 4.5294784 19.579167 4.8947917 C 19.579167 5.2601049 19.283021 5.5562498 18.917708 5.55625 C 18.552394 5.5562504 18.25625 5.2601053 18.25625 4.8947917 C 18.25625 4.5294781 18.552394 4.2333329 18.917708 4.2333333 z M 11.773958 4.7625 C 12.139272 4.7625002 12.435417 5.0586451 12.435417 5.4239583 C 12.435417 5.7892716 12.139272 6.0854165 11.773958 6.0854167 C 11.408645 6.0854165 11.1125 5.7892716 11.1125 5.4239583 C 11.1125 5.0586451 11.408645 4.7625002 11.773958 4.7625 z M 22.092708 4.7625 C 22.458021 4.7625002 22.754167 5.0586451 22.754167 5.4239583 C 22.754167 5.7892716 22.458021 6.0854165 22.092708 6.0854167 C 21.727394 6.0854165 21.43125 5.7892716 21.43125 5.4239583 C 21.43125 5.0586451 21.727394 4.7625002 22.092708 4.7625 z M 9.2604167 5.8208333 C 9.5526674 5.8208333 9.7895833 6.0577493 9.7895833 6.35 C 9.7895833 6.6422507 9.5526674 6.8791667 9.2604167 6.8791667 C 8.968166 6.8791667 8.73125 6.6422507 8.73125 6.35 C 8.73125 6.0577493 8.968166 5.8208333 9.2604167 5.8208333 z M 24.60625 5.8208333 C 24.898501 5.8208333 25.135417 6.0577493 25.135417 6.35 C 25.135417 6.6422507 24.898501 6.8791667 24.60625 6.8791667 C 24.313999 6.8791667 24.077083 6.6422507 24.077083 6.35 C 24.077083 6.0577493 24.313999 5.8208333 24.60625 5.8208333 z M 10.05365 12.170833 L 10.053133 12.17135 L 10.053133 12.171867 L 10.052616 12.171867 L 10.0521 12.171867 L 10.051583 12.172384 L 10.051066 12.1729 L 10.051066 12.173417 C 10.015036 12.260577 10.434283 13.938501 12.170833 14.022917 C 13.59591 14.092197 14.434904 12.283141 14.2875 12.170833 L 10.054167 12.170833 L 10.05365 12.170833 z M 19.579167 12.170833 C 19.431763 12.283141 20.270756 14.092197 21.695833 14.022917 C 23.432384 13.938497 23.851631 12.260577 23.815601 12.173417 L 23.815601 12.1729 L 23.815084 12.172384 L 23.814567 12.171867 L 23.81405 12.171867 L 23.813534 12.171867 L 23.813534 12.17135 L 23.813017 12.170833 L 23.8125 12.170833 L 19.579167 12.170833 z M 5.2916667 12.964583 L 3.96875 16.933333 L 5.2363729 18.924943 L 6.2032389 14.506091 L 6.1231405 14.402222 L 6.3732544 13.119096 L 5.2916667 12.964583 z M 28.575 12.964583 L 27.493412 13.119096 L 27.743526 14.402222 L 27.663428 14.506091 L 28.630294 18.924943 L 29.897917 16.933333 L 28.575 12.964583 z M 6.40271 15.45332 L 3.7041667 27.78125 L 10.31875 33.3375 L 16.933333 33.866667 L 23.547917 33.3375 L 30.1625 27.78125 L 27.463957 15.45332 C 25.523072 18.567276 24.796877 22.129395 23.636283 25.568465 C 21.83632 24.615814 20.939072 24.511175 16.933333 24.474475 C 12.927594 24.511175 12.030345 24.615814 10.230383 25.568465 C 9.0697893 22.129395 8.3435949 18.567276 6.40271 15.45332 z " /></g></svg>
