<?xml version="1.0" encoding="UTF-8" standalone="no"?>
<svg
   id="ico_battery_active"
   width="128"
   height="128"
   viewBox="0 0 128 128"
   version="1.1"
   xml:space="preserve"
   xmlns="http://www.w3.org/2000/svg"
   xmlns:svg="http://www.w3.org/2000/svg"><defs
     id="defs1"><style
       id="style1">
      .cls-1 {
        fill: #fff;
        fill-rule: evenodd;
      }
    </style></defs><path
     style="baseline-shift:baseline;display:inline;overflow:visible;opacity:1;vector-effect:none;fill:#ffffff;fill-opacity:1;stroke-linecap:square;stroke-miterlimit:5;paint-order:stroke fill markers;enable-background:accumulate;stop-color:#000000;stop-opacity:1"
     d="m 72.974609,32.628906 -1.853515,1.597656 c -1.9926,-0.130061 -3.970184,-0.211564 -5.972657,0.126954 -2.355542,0.398204 -4.744125,1.449414 -6.75,3.447265 L 28.71875,67.361328 c -0.697696,0.694907 -2.382081,2.553586 -3.617188,5.355469 -0.617553,1.400941 -1.099148,3.032964 -1.021484,4.833984 0.07766,1.801021 0.825151,3.761515 2.359375,5.289063 l 19.193359,19.107426 v -0.002 c 2.244092,2.23433 5.419638,2.31555 7.921875,1.65039 2.502238,-0.66516 4.675575,-1.96929 6.212891,-3.49414 L 90.40625,69.712891 c 1.246165,-1.236049 3.29487,-3.849998 3.548828,-7.767579 0.136481,-2.10531 -0.01678,-3.446612 -0.136719,-4.789062 l 1.144532,-1.298828 z m -0.5625,6.679689 16.394532,17.160156 c 0.151408,1.627235 0.303392,2.912699 0.158203,5.152344 -0.150406,2.320165 -1.376237,3.842888 -2.080078,4.541015 L 56.246094,96.552734 c -0.767341,0.761116 -2.464564,1.809528 -3.97461,2.210938 -1.510045,0.401409 -2.486379,0.260902 -3.111328,-0.361328 L 29.966797,79.296875 c -0.688421,-0.685425 -0.860983,-1.22824 -0.892578,-1.960938 -0.0316,-0.732697 0.189656,-1.667137 0.601562,-2.601562 0.823813,-1.868849 2.502204,-3.764195 2.570313,-3.832031 L 61.925781,41.34375 c 1.282321,-1.277192 2.481929,-1.794342 4.056641,-2.060547 1.574711,-0.266204 3.528484,-0.183508 5.832031,-0.01758 0.199214,0.01433 0.398438,0.02865 0.597656,0.04297 z"
     id="path25" /><path
     id="path24"
     style="display:inline;fill:#ffffff;fill-opacity:1;stroke-width:5;stroke-linecap:square;stroke-miterlimit:5;paint-order:stroke fill markers"
     d="m 81.914062,24.019531 -2.517578,2.357422 22.193356,23.369141 2.34961,-2.398438 C 96.790261,38.094851 89.38639,30.795031 81.914062,24.019531 Z m -3.923828,3.675781 -2.509765,2.34961 22.310547,23.574219 2.576174,-2.626953 z" /></svg>
