<?xml version="1.0" encoding="UTF-8" standalone="no"?>
<svg
   id="ico_battery_active"
   width="128"
   height="128"
   viewBox="0 0 128 128"
   version="1.1"
   xml:space="preserve"
   xmlns="http://www.w3.org/2000/svg"
   xmlns:svg="http://www.w3.org/2000/svg"><defs
     id="defs1"><style
       id="style1">
      .cls-1 {
        fill: #fff;
        fill-rule: evenodd;
      }
    </style></defs><path
     id="path1"
     style="opacity:1;fill:#ffffff;fill-opacity:1;stroke:none;stroke-width:7;stroke-linecap:round;stroke-miterlimit:12.7;paint-order:stroke fill markers"
     d="m 77.853516,38.347656 c -0.443125,0.0031 -0.877679,0.454922 -0.730469,0.976563 -23.40643,4.710385 -33.416013,10.309307 -47.039063,20.583984 l -0.002,-0.002 h -0.002 c -0.03683,-0.0097 -0.384557,-0.04757 -0.685547,0.0957 -1.447121,0.6888 -4.146484,2.310547 -4.146484,2.310547 -1.128878,0.636206 -1.530224,1.673204 -0.908203,2.589844 l 20.482422,30.185547 c 0.771273,1.136584 1.862866,1.000149 2.792968,0.488281 l 4.289063,-2.361328 c 0.883338,-0.486132 1.089151,-1.152695 0.777344,-1.611328 15.822412,-11.650286 21.862485,-11.908005 33.279297,-14.566407 0.161923,0.943919 1.748187,0.843045 1.46875,-0.345703 L 78.591797,39.09375 c -0.127183,-0.541046 -0.435091,-0.748224 -0.738281,-0.746094 z" /><path
     id="path2"
     style="opacity:1;fill:#ffffff;fill-opacity:1;stroke:none;stroke-width:7;stroke-linecap:round;stroke-miterlimit:12.7;paint-order:stroke fill markers"
     d="m 85.050781,50.541016 c -0.0953,-0.0055 -0.191376,-0.0037 -0.287109,0.0039 l -0.894531,0.07031 0.34375,1.466797 c 1.450257,-0.102082 2.41844,0.637037 2.708984,1.617188 1.127652,3.804141 1.914229,7.66479 2.726563,11.521484 0.446578,2.120207 -0.627722,2.882261 -1.404297,3.115235 l -0.197266,0.05859 0.345703,1.470703 0.970703,-0.410156 c 1.038593,-0.439177 1.979416,-2.140284 1.689453,-3.5625 -0.868612,-4.26038 -1.630468,-8.533191 -2.910156,-12.742187 -0.314637,-1.034866 -1.662369,-2.527158 -3.091797,-2.609375 z" /><path
     id="path4"
     style="opacity:1;fill:#ffffff;fill-opacity:1;stroke:none;stroke-width:5;stroke-linecap:round;stroke-miterlimit:12.7;stroke-dasharray:none;stroke-opacity:1;paint-order:stroke fill markers"
     d="m 102.20898,32 c -5.820977,3.735163 -10.743488,7.596094 -19.623042,9.955078 L 81.955078,40 81.400391,40.117188 83.25,47.984375 83.908203,47.837891 83.419922,45.578125 90.402344,43.09375 c 4.734256,-1.683905 9.340075,-6.099348 13.537106,-8.833984 -0.20842,-0.931 -0.7356,-1.708433 -1.73047,-2.259766 z" /></svg>
