<?xml version="1.0" encoding="UTF-8" standalone="no"?>
<svg
   id="ico_battery_active"
   width="128"
   height="128"
   viewBox="0 0 128 128"
   version="1.1"
   xml:space="preserve"
   xmlns="http://www.w3.org/2000/svg"
   xmlns:svg="http://www.w3.org/2000/svg"><defs
     id="defs1"><style
       id="style1">
      .cls-1 {
        fill: #fff;
        fill-rule: evenodd;
      }
    </style></defs><path
     style="baseline-shift:baseline;display:inline;overflow:visible;opacity:1;vector-effect:none;fill:#ffffff;fill-opacity:1;stroke-linecap:square;stroke-miterlimit:5;paint-order:stroke fill markers;enable-background:accumulate;stop-color:#000000;stop-opacity:1"
     d="m 72.974609,32.628906 -1.853515,1.597656 c -1.9926,-0.130061 -3.970184,-0.211564 -5.972657,0.126954 -2.355542,0.398204 -4.744125,1.449414 -6.75,3.447265 L 28.71875,67.361328 c -0.697696,0.694907 -2.382081,2.553586 -3.617188,5.355469 -0.617553,1.400941 -1.099148,3.032964 -1.021484,4.833984 0.07766,1.801021 0.825151,3.761515 2.359375,5.289063 l 19.193359,19.107426 v -0.002 c 2.244092,2.23433 5.419638,2.31555 7.921875,1.65039 2.502238,-0.66516 4.675575,-1.96929 6.212891,-3.49414 L 90.40625,69.712891 c 1.246165,-1.236049 3.29487,-3.849998 3.548828,-7.767579 0.136481,-2.10531 -0.01678,-3.446612 -0.136719,-4.789062 l 1.144532,-1.298828 z m -0.5625,6.679689 16.394532,17.160156 c 0.151408,1.627235 0.303392,2.912699 0.158203,5.152344 -0.150406,2.320165 -1.376237,3.842888 -2.080078,4.541015 L 56.246094,96.552734 c -0.767341,0.761116 -2.464564,1.809528 -3.97461,2.210938 -1.510045,0.401409 -2.486379,0.260902 -3.111328,-0.361328 L 29.966797,79.296875 c -0.688421,-0.685425 -0.860983,-1.22824 -0.892578,-1.960938 -0.0316,-0.732697 0.189656,-1.667137 0.601562,-2.601562 0.823813,-1.868849 2.502204,-3.764195 2.570313,-3.832031 L 61.925781,41.34375 c 1.282321,-1.277192 2.481929,-1.794342 4.056641,-2.060547 1.574711,-0.266204 3.528484,-0.183508 5.832031,-0.01758 0.199214,0.01433 0.398438,0.02865 0.597656,0.04297 z"
     id="path25" /><path
     id="path24"
     style="display:inline;fill:#ffffff;fill-opacity:1;stroke-width:5;stroke-linecap:square;stroke-miterlimit:5;paint-order:stroke fill markers"
     d="m 81.914062,24.019531 -2.517578,2.357422 22.193356,23.369141 2.34961,-2.398438 C 96.790261,38.094851 89.38639,30.795031 81.914062,24.019531 Z m -3.923828,3.675781 -2.509765,2.34961 22.310547,23.574219 2.576174,-2.626953 z" /><path
     id="path28"
     style="fill:#ffffff;fill-opacity:1;fill-rule:nonzero;stroke:none;stroke-width:5;stroke-linecap:square;stroke-miterlimit:5;stroke-dasharray:none;stroke-opacity:1;paint-order:stroke fill markers"
     d="M 54.46875,52.298828 34.130859,72.552734 c 7.62e-4,-7.44e-4 -0.0022,0.0022 -0.01367,0.01367 -0.02251,0.02278 -0.06466,0.06601 -0.08203,0.08594 -0.04007,0.04596 -0.102447,0.11991 -0.179687,0.21289 -0.15449,0.185963 -0.370422,0.453362 -0.603516,0.767578 -0.466188,0.628436 -1.004095,1.462918 -1.289062,2.109376 -0.297055,0.673884 -0.396625,1.346938 -0.390625,1.486328 0.0037,0.08634 -0.0047,0.13061 -0.01563,0.152343 0.03154,0.01592 0.08599,0.05707 0.173828,0.144532 L 50.82617,96.533203 c 0.08658,-0.01654 0.312945,-0.05535 0.802734,-0.185547 0.915026,-0.243238 2.583713,-1.298823 2.857422,-1.570312 L 85.125,64.386719 c 0.443804,-0.440201 1.247453,-1.412147 1.345703,-2.927735 0.08799,-1.357226 0.03988,-3.770759 -0.261719,-4.089843 C 74.356427,62.164879 65.250095,54.802933 54.46875,52.298828 Z" /><path
     style="fill:#ffffff;fill-opacity:1;fill-rule:nonzero;stroke:none;stroke-width:5;stroke-linecap:square;stroke-miterlimit:5;stroke-dasharray:none;stroke-opacity:1;paint-order:stroke fill markers"
     d="m 104.90903,43.990276 7.36974,-2.878806 c 5.35855,-2.093181 9.27463,13.117422 -0.57576,5.239427 -2.67011,-2.135461 -4.32496,-1.942689 -6.79398,-2.360621 z"
     id="path18" /><path
     style="fill:#ffffff;fill-opacity:1;fill-rule:nonzero;stroke:none;stroke-width:5;stroke-linecap:square;stroke-miterlimit:5;stroke-dasharray:none;stroke-opacity:1;paint-order:stroke fill markers"
     d="m 102.13232,40.557592 1.84891,-4.881 c 2.10835,-5.565884 10.79542,-1.183217 4.24802,1.754286 -3.11945,1.399545 -3.90383,1.917981 -6.09693,3.126714 z"
     id="path19" /></svg>
