<?xml version="1.0" encoding="UTF-8" standalone="no"?>
<svg
   id="ico_battery_active"
   width="128"
   height="128"
   viewBox="0 0 128 128"
   version="1.1"
   xml:space="preserve"
   xmlns="http://www.w3.org/2000/svg"
   xmlns:svg="http://www.w3.org/2000/svg"><defs
     id="defs1"><style
       id="style1">
      .cls-1 {
        fill: #fff;
        fill-rule: evenodd;
      }
    </style></defs><path
     style="baseline-shift:baseline;display:inline;overflow:visible;opacity:1;vector-effect:none;fill:#ffffff;fill-opacity:1;stroke:none;stroke-linecap:square;stroke-miterlimit:5;paint-order:stroke fill markers;enable-background:accumulate;stop-color:#000000;stop-opacity:1"
     d="m 89.464844,24.125 c -0.482316,-0.134316 -1.115735,-0.204665 -1.796875,0.02344 -0.681141,0.228103 -1.292542,0.787038 -1.623047,1.384766 l -1.166016,2.109375 C 83.68888,29.79477 81.26944,30.508761 79.041016,30.990237 73.873128,32.106812 66.176075,33.979826 61.75,38.400391 L 26.914062,73.193359 c -3.43311,3.428839 -4.153003,9.410117 -0.417968,13.107422 l 15.736328,15.578129 c 2.33369,2.31013 5.533351,2.48644 8.044922,1.69531 2.511571,-0.79114 4.618152,-2.35085 6.076172,-3.810548 L 89.423828,66.65625 c 3.355313,-3.359186 5.245923,-8.252798 7.875,-18.960938 0.418878,-1.706085 0.424245,-2.854282 3.085942,-4.447265 l 2.26171,-1.353516 c 1.16961,-0.699981 1.44197,-2.088252 1.33008,-2.955078 -0.11189,-0.866825 -0.40961,-1.560973 -1.06836,-2.216797 L 91.478516,25.34375 C 91.002443,24.869803 90.429476,24.393633 89.464844,24.125 Z M 88.976562,28.496094 99.589844,39.0625 98.330078,39.816406 C 94.659735,42.013051 93.7982,45.177599 93.414062,46.742187 90.82519,57.286578 89.095855,61.325086 86.59375,63.830078 L 53.523437,96.9375 c -1.058731,1.059953 -2.826007,2.311576 -4.447265,2.822266 -1.621258,0.510694 -2.813204,0.481144 -4.03125,-0.72461 L 29.310547,83.458984 c -1.935384,-1.915833 -1.528238,-5.480057 0.429687,-7.435547 L 64.576172,41.230469 c 3.049897,-3.0461 10.35013,-5.258328 15.310547,-6.330078 2.411825,-0.521102 6.395967,-1.531205 8.492187,-5.322266 z"
     id="path14" /><path
     id="path15"
     style="fill:#ffffff;fill-opacity:1;fill-rule:nonzero;stroke:none;stroke-width:4;stroke-linecap:square;stroke-miterlimit:5;stroke-dasharray:none;stroke-opacity:1;paint-order:stroke fill markers"
     d="M 92.882812,41.849609 C 83.429382,45.414448 73.452132,48.657458 64.216797,45.125 L 31.507812,77.792969 c -0.502922,0.502297 -0.889068,1.361743 -0.949218,2.152343 -0.06015,0.790602 0.155239,1.385383 0.509765,1.736329 h 0.002 l 15.732422,15.576171 h 0.002 c 0.323862,0.320234 0.359313,0.293634 0.46289,0.308594 0.10388,0.015 0.426648,0.007 1.056641,-0.191406 1.001368,-0.315427 2.658589,-1.43309 3.429687,-2.205078 L 84.824219,62.0625 c 1.959695,-1.961956 3.599462,-5.47844 6.162109,-15.916016 0.222087,-0.904554 0.744335,-2.552367 1.896484,-4.296875 z" /><path
     style="fill:#ffffff;fill-opacity:1;fill-rule:nonzero;stroke:none;stroke-width:5;stroke-linecap:square;stroke-miterlimit:5;stroke-dasharray:none;stroke-opacity:1;paint-order:stroke fill markers"
     d="m 104.9037,32.875967 7.36974,-2.878806 c 5.35855,-2.093181 9.27463,13.117422 -0.57576,5.239427 -2.67011,-2.135461 -4.32496,-1.942689 -6.79398,-2.360621 z"
     id="path18" /><path
     style="fill:#ffffff;fill-opacity:1;fill-rule:nonzero;stroke:none;stroke-width:5;stroke-linecap:square;stroke-miterlimit:5;stroke-dasharray:none;stroke-opacity:1;paint-order:stroke fill markers"
     d="m 102.12699,29.443283 1.84891,-4.881 c 2.10835,-5.565884 10.79542,-1.183217 4.24802,1.754286 -3.11945,1.399545 -3.90383,1.917981 -6.09693,3.126714 z"
     id="path19" /></svg>
