<?xml version="1.0" encoding="UTF-8" standalone="no"?>
<svg
   id="ico_battery_active"
   width="128"
   height="128"
   viewBox="0 0 128 128"
   version="1.1"
   xmlns="http://www.w3.org/2000/svg"
   xmlns:svg="http://www.w3.org/2000/svg">
  <defs
     id="defs1">
    <style
       id="style1"></style>
  </defs>
  <g
     id="layer1"
     style="display:inline;stroke-width:0.79375;stroke-dasharray:none"
     transform="matrix(3.7795276,0,0,3.7795276,-0.00339074,-0.50054695)">
    <path
       id="path28"
       style="display:inline;fill:#ffffff;fill-opacity:1;stroke:none;stroke-width:0.79375;stroke-linecap:round;stroke-linejoin:miter;stroke-miterlimit:16.7;stroke-dasharray:none;stroke-opacity:1;paint-order:stroke fill markers"
       d="M 16.933333,2.8272176 C 13.66685,4.7878645 9.8470794,6.2807319 4.5377075,6.5127808 4.681926,18.033144 6.7299577,27.936253 16.933333,31.304032 27.187019,27.500948 29.401233,17.766373 29.328959,6.5127808 24.187913,6.2018164 20.34773,4.7078626 16.933333,2.8272176 Z m 0,1.3565064 c 3.950561,1.5134509 7.298305,2.9380348 11.21482,3.3341634 C 28.251063,17.969648 26.167859,26.759387 16.933333,29.947526 7.4497849,26.69324 5.6325112,17.756418 5.718514,7.5178874 9.8450401,7.02461 13.409819,5.6802249 16.933333,4.183724 Z" />
  </g>
</svg>
