<?xml version="1.0" encoding="UTF-8" standalone="no"?>
<!-- Created with Inkscape (http://www.inkscape.org/) -->

<svg
   width="121.29441mm"
   height="133.57428mm"
   viewBox="0 0 121.29441 133.57428"
   version="1.1"
   id="svg1"
   xml:space="preserve"
   xmlns="http://www.w3.org/2000/svg"
   xmlns:svg="http://www.w3.org/2000/svg"><defs
     id="defs1" /><path
     id="path1"
     style="display:inline;fill:#ffffff;fill-opacity:1;stroke-width:0.26966"
     d="M 60.646378,-8.1087819e-6 -3.9481184e-7,19.648923 c 0,0 2.34272999481184,66.87005 15.65071939481184,86.152877 13.308,19.28283 44.995709,27.77246 44.995709,27.77246 0,0 31.68748,-8.48969 44.995702,-27.77246 13.30823,-19.282767 15.65228,-86.152877 15.65228,-86.152877 z M 60.646428,5.2901039 116.49108,23.382543 c 0,0 -2.15844,61.57358 -14.41255,79.329007 -12.254112,17.75542 -41.432102,25.5726 -41.432102,25.5726 0,0 -29.177679,-7.81713 -41.431579,-25.5726 C 6.9609496,84.956073 4.8033296,23.382543 4.8033296,23.382543 Z" /></svg>
