<?xml version="1.0" encoding="UTF-8" standalone="no"?>
<svg
   id="ico_battery_active"
   width="128"
   height="128"
   viewBox="0 0 128 128"
   version="1.1"
   xml:space="preserve"
   xmlns="http://www.w3.org/2000/svg"
   xmlns:svg="http://www.w3.org/2000/svg"><defs
     id="defs1"><style
       id="style1">
      .cls-1 {
        fill: #fff;
        fill-rule: evenodd;
      }
    </style></defs><path
     id="path31"
     style="baseline-shift:baseline;display:inline;overflow:visible;opacity:1;vector-effect:none;fill:#ffffff;fill-opacity:1;fill-rule:evenodd;stroke:none;stroke-width:5;stroke-linecap:butt;stroke-linejoin:round;stroke-miterlimit:5;stroke-dasharray:none;stroke-opacity:1;paint-order:stroke fill markers;enable-background:accumulate;stop-color:#000000;stop-opacity:1"
     d="m 19.29541,60.740254 c -4.523466,0.90751 -6.12272,2.277051 -0.160156,4.264649 0,0 6.139758,7.592029 10.429418,9.541402 4.194763,1.90625 10.832447,-0.775099 16.651743,-0.478442 5.819297,0.296656 10.820206,3.571317 10.820206,3.571317 4.809976,0.541522 8.23774,0.584144 12.793702,-0.05322 0,0 18.06302,2.337763 26.222413,0.685487 5.183024,-1.04956 15.311474,-4.200009 15.311474,-4.200009 5.86313,-2.950409 0.33193,-4.839311 -2.28259,-6.218847 L 70.951416,47.733418 c -4.1176,-2.172627 -12.793701,0.05322 -12.793701,0.05322 0,0 -13.649117,7.030445 -20.928132,9.355614 -5.808052,1.855293 -17.934173,3.598002 -17.934173,3.598002 z m 44.339356,-5.955185 c 4.692956,-0.02028 9.453388,0.733112 14.207031,2.322265 L 104.12428,67.737291 C 78.513335,56.997955 20.340787,64.429042 21.984375,62.55544 c 9.282552,-1.816035 17.020912,0.228409 27.847656,-5.448106 4.643432,-0.908439 9.109778,-2.301981 13.802735,-2.322265 z" /><path
     id="path33"
     style="baseline-shift:baseline;display:inline;overflow:visible;opacity:1;vector-effect:none;fill:#ffffff;fill-opacity:1;fill-rule:evenodd;stroke:none;stroke-width:5;stroke-linecap:butt;stroke-linejoin:round;stroke-miterlimit:5;stroke-dasharray:none;stroke-opacity:1;paint-order:stroke fill markers;enable-background:accumulate;stop-color:#000000;stop-opacity:1"
     d="m 8.8652344,75.994401 v 15.470443 c 0,5.26136 -0.3631652,8.330123 6.4985356,10.617186 l 38.991211,12.9961 c 5.416091,1.80523 6.498535,0.34086 6.498535,-6.28492 V 93.324234 c 0,-5.488976 -0.158651,-8.503813 -6.498535,-10.617187 0,0 -6.360981,-1.939782 -12.093575,-2.02353 C 36.528813,80.599778 31.424607,82.372074 28.41085,81.505271 20.606634,79.260659 15.36377,69.709489 15.36377,69.709489 10.583762,66.480067 8.8652344,72.123629 8.8652344,75.994401 Z m 5.3964846,5.854426 c 0.750801,0 1.6093,0.725862 2.185547,2.66211 6.108195,20.524143 16.748458,10.124668 27.929687,19.469533 1.166576,0.97498 1.937397,4.23083 -1.546875,3.09375 L 15.632812,98.199219 c -2.857978,-0.932695 -2.929657,-4.046253 -2.929687,-6.921875 l -0.002,-7.825001 c -9e-6,-0.823862 0.709639,-1.603516 1.560547,-1.603516 z" /><path
     id="path36"
     style="baseline-shift:baseline;display:inline;overflow:visible;opacity:1;vector-effect:none;fill:#ffffff;fill-opacity:1;fill-rule:evenodd;stroke:none;stroke-width:5;stroke-linecap:butt;stroke-linejoin:round;stroke-miterlimit:5;stroke-dasharray:none;stroke-opacity:1;paint-order:stroke fill markers;enable-background:accumulate;stop-color:#000000;stop-opacity:1"
     d="m 118.01382,84.285363 v 7.179481 c 0,5.742804 0.81011,8.181157 -6.49853,10.617186 l -38.991215,12.99609 c -6.942389,2.31395 -6.498535,-1.14807 -6.498535,-6.28491 V 91.481799 c 0,-5.267074 0.194402,-8.515731 6.498535,-10.617188 0,0 14.03105,3.566101 21.107738,2.943705 6.243541,-0.549121 17.883477,-5.807865 17.883477,-5.807865 8.67971,-2.818835 6.49853,0.316259 6.49853,6.284912 z m -5.39648,7.696862 c -0.7508,0 -1.03116,1.004247 -2.18555,2.66211 -6.52147,9.365745 -16.929121,-4.886606 -27.929688,9.336135 -0.930162,1.20262 -1.937397,4.23083 1.546875,3.09375 l 27.197263,-8.875001 c 2.85798,-0.932695 2.92966,-4.046253 2.92969,-6.921875 l 0.002,2.308397 c 1e-5,-0.823862 -0.70964,-1.603516 -1.56055,-1.603516 z" /><path
     id="path37"
     style="fill:#ffffff;fill-opacity:1;stroke:none;stroke-width:5;stroke-linecap:round;stroke-linejoin:round;stroke-miterlimit:5;stroke-dasharray:none;stroke-opacity:1;paint-order:stroke fill markers"
     d="m 120.51367,88.264065 v 3.200779 c 0,2.753847 0.36923,5.054336 -0.71679,7.546875 -1.08604,2.492541 -3.57225,4.135511 -7.49024,5.441401 l -38.992187,12.9961 c -6.7086,2.33476 -12.973763,2.12922 -19.75,0 L 14.574219,104.45312 C 10.812599,103.19935 8.3666204,101.38113 7.2597656,98.912109 6.1529108,96.443088 6.3652344,94.038003 6.3652344,91.464844 v -3.865235 c 0,0 -3.1573689,0.905959 -3.8320313,2.21875 -1.0930501,2.126911 0.8421459,4.754041 0.6914063,7.140625 -0.2629438,4.163056 -3.67655996,8.134836 -2.7636719,12.205076 0.49062771,2.18753 2.179773,4.21719 4.1445313,5.29688 4.1239179,2.26621 9.6396252,-0.26077 14.0488282,1.38281 3.61247,1.34659 5.758824,5.54308 9.443359,6.67773 8.144767,2.50818 17.124724,-1.65765 25.5625,-0.46093 4.376017,0.62065 8.252459,3.72107 12.667969,3.91601 6.493868,0.2867 10.157974,-3.48811 19.065776,-4.09498 8.907801,-0.60687 19.285189,2.62934 19.395089,-2.00763 0.0798,-3.36578 5.41859,-7.63151 7.13874,-7.25481 17.3745,3.80485 13.6852,-9.75182 10.47828,-14.50993 -1.61966,-2.403087 3.74603,-3.941722 2.64868,-7.368976 -0.89943,-1.527382 -2.57186,-2.171335 -4.54102,-2.476169 z" /></svg>
