<?xml version="1.0" encoding="UTF-8" standalone="no"?>
<svg
   id="ico_battery_active"
   width="128"
   height="128"
   viewBox="0 0 128 128"
   version="1.1"
   xmlns="http://www.w3.org/2000/svg"
   xmlns:svg="http://www.w3.org/2000/svg">
  <defs
     id="defs1">
    <style
       id="style1">
      .cls-1 {
        fill: #fff;
        fill-rule: evenodd;
      }
    </style>
  </defs>
  <path
     id="path2"
     style="fill:#ffffff;stroke:none;stroke-width:5;stroke-linecap:round;stroke-linejoin:round;stroke-miterlimit:5;paint-order:stroke fill markers"
     d="M 28,24 32,57 24,50.896484 34,73 24,67.478516 38,87 25,79.455078 43,104.55859 H 85 L 103,83.599609 90,87 104,71.394531 94,73 104,53.890625 96,57 100,24 88,33 c 0,0 0.284848,1.006596 1.572266,2.171875 1.287417,1.165279 2.05352,3.040266 1.921875,4.996094 v 0.0059 l -4,55.994141 c -0.119321,1.77087 -0.969825,3.170723 -2.06836,4.28711 C 84.327247,101.57146 82.884626,102.5 81,102.5 H 47 c -1.884626,0 -3.327183,-0.92821 -4.427734,-2.04492 -1.100136,-1.116349 -1.956459,-2.517655 -2.06836,-4.296877 v -0.002 L 36.505859,40.167969 V 40.15625 C 36.383573,38.205676 37.146851,36.339072 38.431641,35.173828 39.71643,34.008584 40,33 40,33 Z" />
  <path
     class="cls-1"
     d="m 85,96 c -0.126,1.87 -2.158,4 -4,4 H 47 c -1.842,0 -3.883,-2.13 -4,-4 L 39,40 c -0.163,-2.6 1.791,-4 4,-4 h 13 v -4 a 4,4 0 0 1 4,-4 h 8 a 4,4 0 0 1 4,4 v 4 h 13 c 2.209,0 4.175,1.4 4,4 z M 43,40 47,96 h 34 l 4,-56 z m 33,12 c 2.281,-4.521 -1.959,-6.79 -6,-3 -0.257,0.241 -1.527,1.39 -3.312,3 H 47.857 l -0.571,-8 h 33.428 l -0.571,8 z M 50,67 a 6.106,6.106 0 0 0 -0.992,1.113 L 48.143,56 h 14.1 C 56.973,60.747 50.823,66.271 50,67 Z m 6,7 c 0,0 -1.437,2.115 -4,6 H 49.857 L 49.369,73.162 A 4.1,4.1 0 0 0 52,74 Z m 2,11 c 0.169,-0.151 0.575,-0.505 1.144,-1 h 18.713 l -0.571,8 H 50.714 l -0.571,-8 h 1.216 c 0.829,2.338 3.834,3.506 6.641,1 z M 79.087,66.787 78.143,80 H 63.766 C 69.1,75.39 76.526,68.993 79.087,66.787 Z M 76,64 55,83 62,70 H 52 L 73,51 66,64 Z m 1,-4 h -5 c 0,0 0.859,-1.732 1.992,-4 h 5.865 l -0.409,5.729 A 2.93,2.93 0 0 0 77,60 Z"
     id="path1" />
</svg>
