<?xml version="1.0" encoding="UTF-8" standalone="no"?>
<svg
   id="Layer_1"
   data-name="Layer 1"
   class="color"
   viewBox="0 0 128 128"
   version="1.1"
   width="128"
   height="128"
   xmlns="http://www.w3.org/2000/svg"
   xmlns:svg="http://www.w3.org/2000/svg">
  <defs
     id="defs1">
    <style
       id="style1"></style>
  </defs>
  <path
     d="m 31.370217,93.636536 c 0,0.857909 0.701925,1.559834 1.559834,1.559834 H 95.03095 c 0.85791,0 1.55984,-0.701925 1.55984,-1.559834 V 58.423278 c 0,0 -65.240071,0 -65.240071,0 V 93.636536 Z M 58.608823,71.311408 c 0,-1.540336 1.091884,-2.827199 2.612722,-3.10017 8.637582,-1.579333 17.255667,-1.579333 25.893245,0 1.50134,0.272971 2.61273,1.579332 2.61273,3.10017 v 14.584451 c 0,1.735315 -1.40385,3.139166 -3.13917,3.139166 H 61.767487 c -1.735315,0 -3.139166,-1.403851 -3.139166,-3.139166 V 71.311408 Z M 50.53668,62.127884 c 2.027785,0 3.685109,1.657324 3.685109,3.685108 0,2.027785 -1.657324,3.685109 -3.685109,3.685109 -2.027784,0 -3.685108,-1.657324 -3.685108,-3.685109 0,-2.027784 1.637826,-3.685108 3.685108,-3.685108 z m 1.988789,18.873995 c 0,4.426029 -3.587619,8.033146 -8.033146,8.033146 -4.445528,0 -8.033147,-3.607117 -8.033147,-8.033146 0,-4.42603 3.587619,-8.033147 8.033147,-8.033147 4.445527,0 8.033146,3.587619 8.033146,8.033147 z M 38.447965,62.127884 c 2.027784,0 3.685108,1.657324 3.685108,3.685108 0,2.027785 -1.637826,3.685109 -3.685108,3.685109 -2.047283,0 -3.685109,-1.657324 -3.685109,-3.685109 0,-2.027784 1.657324,-3.685108 3.685109,-3.685108 z M 95.05045,50.741094 H 32.949549 c -0.877407,0 -1.559834,0.701925 -1.559834,1.559834 v 3.607117 H 96.62978 v -3.607117 c 0,-0.857909 -0.70192,-1.559834 -1.55983,-1.559834 z"
     id="path1"
     style="fill:#ffffff;fill-opacity:1;stroke-width:1.94979" />
  <path
     d="m 83.39069,70.979943 c -6.161346,-1.052888 -12.322691,-1.052888 -18.484036,0 -1.072386,0.175482 -1.871801,1.052889 -1.871801,2.105777 v 9.865951 c 0,1.169876 1.013892,2.125275 2.242261,2.125275 h 17.704119 c 1.247867,0 2.242257,-0.955399 2.242257,-2.125275 V 73.08572 c 0,-1.033391 -0.79941,-1.910797 -1.871796,-2.105777 z m -0.292469,10.294907 -0.272971,-0.039 c -0.331465,-0.05849 -0.66293,-0.116988 -0.994395,-0.155984 h -0.194979 v -4.776992 c -0.311967,-0.039 -0.623934,-0.09749 -0.9359,-0.136486 v 3.880088 c 0,0 -1.013893,-0.116987 -1.013893,-0.116987 v -3.880084 c -0.311966,-0.039 -0.623933,-0.05849 -0.9359,-0.09749 v 3.880088 H 78.49671 c -0.175482,-0.039 -0.370461,-0.039 -0.545942,-0.05849 h -0.214477 v -3.899586 c -0.311967,-0.0195 -0.604436,-0.03899 -0.916403,-0.05849 v 3.880087 c 0,0 -0.253473,0 -0.253473,0 -0.175482,0 -0.370461,0 -0.545942,-0.0195 h -0.233975 c 0,0 0,-3.880087 0,-3.880087 -0.311967,0 -0.643432,0 -0.955399,-0.0195 v 4.737996 h -0.233975 c -0.331465,0 -0.66293,0 -0.994394,0 h -0.233975 v -0.233978 c 0,0 0,-4.504021 0,-4.504021 -0.311967,0 -0.623934,0 -0.935901,0.0195 v 3.880087 h -0.214477 c -0.175482,0 -0.370461,0.0195 -0.545942,0.039 H 71.43846 c 0,0 0,-3.880087 0,-3.880087 -0.311967,0 -0.623934,0.03899 -0.935901,0.05849 v 3.880088 h -0.214477 c -0.175481,0.039 -0.350963,0.039 -0.545942,0.05849 h -0.253473 c 0,0 0,-3.86059 0,-3.86059 -0.311967,0.0195 -0.623934,0.05849 -0.916403,0.09749 v 3.880087 c 0,0 -1.013892,0.116988 -1.013892,0.116988 v -3.880088 c -0.311967,0.039 -0.623934,0.09749 -0.935901,0.136486 v 4.737996 h -0.194979 c -0.331465,0.07799 -0.662929,0.136486 -0.994394,0.19498 l -0.272971,0.039 v -6.473316 l 0.194979,-0.039 c 5.790885,-1.013892 11.698757,-1.013892 17.489642,0 l 0.194979,0.039 v 6.473313 z"
     id="path2"
     style="fill:#ffffff;fill-opacity:1;stroke-width:1.94979" />
  <ellipse
     cx="44.492325"
     cy="80.338943"
     rx="4.7574944"
     ry="4.3480382"
     id="ellipse2"
     style="fill:#ffffff;fill-opacity:1;stroke-width:1.94979" />
  <ellipse
     cx="38.447964"
     cy="65.442528"
     rx="1.7548136"
     ry="1.5793322"
     id="ellipse3"
     style="fill:#ffffff;fill-opacity:1;stroke-width:1.94979" />
  <ellipse
     cx="50.536682"
     cy="65.442528"
     rx="1.7548136"
     ry="1.5793322"
     id="ellipse4"
     style="fill:#ffffff;fill-opacity:1;stroke-width:1.94979" />
  <path
     d="M 91.89179,32.803 H 36.108214 C 29.439922,32.803 24,38.242922 24,44.911213 v 11.542774 c 0,3.19766 1.247867,6.102851 3.275652,8.267121 v -12.42018 c 0,-1.813307 0.877407,-3.451133 2.203266,-4.484523 v -2.905192 c 0,-3.646112 2.963685,-6.629295 6.629296,-6.629295 H 91.89179 c 3.64611,0 6.62929,2.963685 6.62929,6.629295 v 2.905192 c 1.34536,1.03339 2.20327,2.671216 2.20327,4.484523 v 12.42018 C 102.75213,62.556838 104,59.651647 104,56.453987 V 44.911213 C 104,38.242922 98.57958,32.803 91.89179,32.803 Z"
     id="path4"
     style="fill:#ffffff;fill-opacity:1;stroke-width:1.94979" />
  <path
     d="m 74.382647,44.111798 v 2.963685 H 63.05435 v -2.963685 c 0,-1.871801 11.328297,-1.871801 11.328297,0 z"
     id="path5"
     style="fill:#ffffff;fill-opacity:1;stroke-width:1.94979" />
  <path
     d="m 92.04777,44.111798 v 2.963685 H 80.719474 v -2.963685 c 0,-1.871801 11.328296,-1.871801 11.328296,0 z"
     id="path6"
     style="fill:#ffffff;fill-opacity:1;stroke-width:1.94979" />
</svg>
