<?xml version="1.0" encoding="UTF-8" standalone="no"?>
<svg
   id="ico_battery_active"
   width="128"
   height="128"
   viewBox="0 0 128 128"
   version="1.1"
   xml:space="preserve"
   xmlns="http://www.w3.org/2000/svg"
   xmlns:svg="http://www.w3.org/2000/svg"><defs
     id="defs1"><style
       id="style1">
      .cls-1 {
        fill: #fff;
        fill-rule: evenodd;
      }
    </style></defs><path
     id="path1"
     style="opacity:1;fill:#ffffff;fill-opacity:1;stroke:none;stroke-width:7;stroke-linecap:round;stroke-miterlimit:12.7;paint-order:stroke fill markers"
     d="m 77.853516,38.347656 c -0.443125,0.0031 -0.877679,0.454922 -0.730469,0.976563 -23.40643,4.710385 -33.416013,10.309307 -47.039063,20.583984 l -0.002,-0.002 h -0.002 c -0.03683,-0.0097 -0.384557,-0.04757 -0.685547,0.0957 -1.447121,0.6888 -4.146484,2.310547 -4.146484,2.310547 -1.128878,0.636206 -1.530224,1.673204 -0.908203,2.589844 l 20.482422,30.185547 c 0.771273,1.136584 1.862866,1.000149 2.792968,0.488281 l 4.289063,-2.361328 c 0.883338,-0.486132 1.089151,-1.152695 0.777344,-1.611328 15.822412,-11.650286 21.862485,-11.908005 33.279297,-14.566407 0.161923,0.943919 1.748187,0.843045 1.46875,-0.345703 L 78.591797,39.09375 C 78.464614,38.552704 78.156706,38.345526 77.853516,38.347656 Z M 56.84375,49.007812 c 9.41896,0 17.064453,7.64354 17.064453,17.0625 0,9.418961 -7.645493,17.064454 -17.064453,17.064454 -9.41896,0 -17.064453,-7.645493 -17.064453,-17.064454 0,-9.41896 7.645493,-17.0625 17.064453,-17.0625 z m 0,0.814454 c -8.978349,0 -16.248047,7.269698 -16.248047,16.248046 0,7.856955 5.567028,14.40663 12.974609,15.919922 -2.462142,-1.829356 -5.280057,-5.122762 -4.607421,-15.105468 0.05501,-1.431098 -0.265713,-2.934279 -1.779297,-3.775391 0.544998,0.0545 3.415104,0.859784 3.503906,3.339844 -0.02277,0.227671 0.881845,1.301249 1.052734,0.363281 0.663492,-1.990476 1.218167,-3.530826 1.998047,-4.917969 1.678996,-3.807723 2.48223,-6.752206 -1.144531,-10.003906 1.279402,0.507998 9.38961,4.07088 9.076172,12.634766 -0.225318,1.847127 -0.786969,3.977911 0.0918,5.554687 0.648059,0.83084 1.696881,0.55118 2.576172,-0.162109 0.776562,-1.012114 1.276278,-2.284869 1.5625,-3.63086 0.222726,-1.339814 0.219197,-2.868677 1.214843,-3.667968 l -0.134765,1.052734 c -0.365721,2.415599 0.818549,3.116023 1.152343,6.353516 -0.169353,3.599908 -2.028956,7.912003 -5.064453,11.037109 l -0.04297,0.04102 c 5.909631,-2.430587 10.066406,-8.243706 10.066406,-15.033204 0,-8.978348 -7.269698,-16.248046 -16.248047,-16.248046 z" /><path
     id="path2"
     style="opacity:1;fill:#ffffff;fill-opacity:1;stroke:none;stroke-width:7;stroke-linecap:round;stroke-miterlimit:12.7;paint-order:stroke fill markers"
     d="m 85.050781,50.541016 c -0.0953,-0.0055 -0.191376,-0.0037 -0.287109,0.0039 l -0.894531,0.07031 0.34375,1.466797 c 1.450257,-0.102082 2.41844,0.637037 2.708984,1.617188 1.127652,3.804141 1.914229,7.66479 2.726563,11.521484 0.446578,2.120207 -0.627722,2.882261 -1.404297,3.115235 l -0.197266,0.05859 0.345703,1.470703 0.970703,-0.410156 c 1.038593,-0.439177 1.979416,-2.140284 1.689453,-3.5625 -0.868612,-4.26038 -1.630468,-8.533191 -2.910156,-12.742187 -0.314637,-1.034866 -1.662369,-2.527158 -3.091797,-2.609375 z" /><path
     id="path4"
     style="opacity:1;fill:#ffffff;fill-opacity:1;stroke:none;stroke-width:5;stroke-linecap:round;stroke-miterlimit:12.7;stroke-dasharray:none;stroke-opacity:1;paint-order:stroke fill markers"
     d="m 102.20898,32 c -5.820977,3.735163 -10.743488,7.596094 -19.623042,9.955078 L 81.955078,40 81.400391,40.117188 83.25,47.984375 83.908203,47.837891 83.419922,45.578125 90.402344,43.09375 c 4.734256,-1.683905 9.340075,-6.099348 13.537106,-8.833984 -0.20842,-0.931 -0.7356,-1.708433 -1.73047,-2.259766 z" /><path
     style="fill:#ffffff;fill-opacity:1;fill-rule:nonzero;stroke:none;stroke-width:5;stroke-linecap:square;stroke-miterlimit:5;stroke-dasharray:none;stroke-opacity:1;paint-order:stroke fill markers"
     d="m 105.16735,36.628145 7.67135,1.936721 c 5.57785,1.408197 -0.0683,16.064895 -3.51168,3.9308 -0.93338,-3.289146 -2.39248,-4.093331 -4.15967,-5.867521 z"
     id="path18" /><path
     style="fill:#ffffff;fill-opacity:1;fill-rule:nonzero;stroke:none;stroke-width:5;stroke-linecap:square;stroke-miterlimit:5;stroke-dasharray:none;stroke-opacity:1;paint-order:stroke fill markers"
     d="m 104.9006,32.221073 4.33993,-2.899593 c 4.94889,-3.30645 9.47528,5.30661 2.43926,3.895274 -3.35224,-0.67242 -4.29187,-0.705939 -6.77919,-0.995681 z"
     id="path19" /></svg>
