<?xml version="1.0" encoding="UTF-8" standalone="no"?>
<svg
   id="ico_battery_active"
   width="128"
   height="128"
   viewBox="0 0 128 128"
   version="1.1"
   xml:space="preserve"
   xmlns:xlink="http://www.w3.org/1999/xlink"
   xmlns="http://www.w3.org/2000/svg"
   xmlns:svg="http://www.w3.org/2000/svg"><defs
     id="defs1"><linearGradient
       id="linearGradient7"><stop
         style="stop-color:#ffffff;stop-opacity:0;"
         offset="0"
         id="stop7" /><stop
         style="stop-color:#ffffff;stop-opacity:1;"
         offset="0.78961039"
         id="stop8" /></linearGradient><style
       id="style1">
      .cls-1 {
        fill: #fff;
        fill-rule: evenodd;
      }
    </style><linearGradient
       xlink:href="#linearGradient7"
       id="linearGradient8"
       x1="38.345718"
       y1="107.75769"
       x2="84.176308"
       y2="28.376785"
       gradientUnits="userSpaceOnUse"
       gradientTransform="matrix(1.2015642,0,0,1.2015642,-6.7008651,-17.974439)" /></defs><path
     style="baseline-shift:baseline;display:inline;overflow:visible;opacity:1;vector-effect:none;fill:#ffffff;stroke-width:1.20156;stroke-linecap:square;stroke-miterlimit:5;paint-order:stroke fill markers;enable-background:accumulate;stop-color:#000000;stop-opacity:1"
     d="m 119.6876,26.20671 a 8.1314363,8.131436 0 0 0 -7.95048,8.12951 8.1314363,8.131436 0 0 0 1.49577,4.700026 c 1.62695,-0.939376 3.32838,-2.008679 5.02729,-3.365962 1.76264,-1.408197 2.82618,-2.848922 3.2235,-4.192771 0.39733,-1.343852 0.17449,-2.599112 -0.73055,-3.826049 z m 1.27824,0.07219 0.5804,0.787347 c 1.0583,1.434694 1.35992,3.077081 0.88265,4.691362 -0.47729,1.614283 -1.68724,3.191591 -3.55366,4.682698 -1.70544,1.362503 -3.40587,2.438914 -5.01669,3.373662 a 8.1314363,8.131436 0 0 0 3.21773,2.158949 c 0.24312,-0.408444 0.50557,-0.779833 0.78927,-1.087657 2.39395,-2.597449 5.99661,-4.878509 8.9852,-6.216006 C 127.18899,34.51788 127.5822,34.380149 128,34.25537 a 8.1314363,8.131436 0 0 0 -7.03416,-7.97647 z m 6.97544,9.030437 c -0.25776,0.08422 -0.49136,0.170823 -0.68821,0.258921 -2.87434,1.286367 -6.41013,3.540889 -8.66275,5.984998 -0.17461,0.18945 -0.35156,0.432043 -0.5265,0.711308 a 8.1314363,8.131436 0 0 0 1.80474,0.203093 8.1314363,8.131436 0 0 0 8.07272,-7.15832 z"
     id="path10" /><path
     id="path7"
     style="fill:url(#linearGradient8);fill-opacity:1;fill-rule:nonzero;stroke:none;stroke-width:3.60469;stroke-linecap:square;stroke-miterlimit:5;stroke-dasharray:none;stroke-opacity:1;paint-order:stroke fill markers"
     d="M 77.5193,10.859176 C 58.891895,11.548267 37.506456,27.139849 19.496893,79.329559 l 2.015905,0.628943 7.002866,-14.681612 5.937418,14.557232 12.609382,-6.662579 c 8.242097,-31.111507 26.67047,-53.682022 62.992946,-42.594512 0.68153,-1.703384 1.811,-3.181058 3.24093,-4.308733 C 105.03656,18.941176 92.126344,10.31881 77.5193,10.859176 Z m 39.30663,18.720463 c -0.98337,0.598256 -1.76379,1.471349 -2.22476,2.52751 0.93659,0.343958 1.88291,0.709025 2.84197,1.095957 0.63031,-0.586939 1.07148,-1.137325 1.3588,-1.605215 -0.5979,-0.631432 -1.25804,-1.307258 -1.97601,-2.018252 z M 28.0862,80.134513 24.692719,87.245332 17.591286,85.027601 c -0.0099,0.03051 -0.01828,0.06099 -0.02816,0.09153 l 5.559581,5.432852 -7.406516,0.44589 c -0.218845,0.71898 -0.437118,1.44454 -0.654759,2.17549 l 3.0485,1.78826 -4.287613,2.46415 c -2.05e-4,7.2e-4 2.06e-4,0.002 0,0.002 -0.139655,0.48918 -0.280958,0.98182 -0.420078,1.47614 h 9.65241 l -6.472489,6.977047 7.962709,-3.67745 3.550716,7.50509 3.271446,-8.02138 8.047195,4.04823 -4.69361,-6.831537 h 7.826595 c 0.03151,-0.3103 0.06333,-0.61939 0.09622,-0.92934 l -6.2073,-3.25971 6.986438,-3.11421 c 0.01711,-0.12282 0.03428,-0.24574 0.05163,-0.36845 l -8.706646,-0.7322 5.026856,-6.695433 -8.401561,4.437809 z m 6.390349,29.841967 -1.377575,3.38174 8.349933,3.43339 c 0.02589,-1.08363 0.05839,-2.16955 0.09857,-3.25737 z" /><path
     style="baseline-shift:baseline;display:inline;overflow:visible;opacity:1;vector-effect:none;fill:#ffffff;stroke-width:1.20156;stroke-linecap:round;stroke-miterlimit:23.2;paint-order:stroke fill markers;enable-background:accumulate;stop-color:#000000;stop-opacity:1"
     d="m 28.301114,72.705745 4.620588,11.332721 17.327214,-9.153357 -9.818753,13.076218 15.594491,1.307626 -12.706623,5.66636 13.284198,6.973977 H 40.430163 l 8.086033,11.76859 -15.594494,-7.84573 -4.620588,11.33272 L 23.102949,106.17844 4.0430163,114.9855 16.172064,101.90929 H 0 L 12.129049,94.935313 1.7327214,88.833083 16.172064,87.961327 6.3533114,78.372103 23.102949,83.602588 Z"
     id="path13" /></svg>
