<?xml version="1.0" encoding="UTF-8" standalone="no"?>
<svg
   id="ico_battery_active"
   width="128"
   height="128"
   viewBox="0 0 128 128"
   version="1.1"
   xmlns="http://www.w3.org/2000/svg"
   xmlns:svg="http://www.w3.org/2000/svg">
  <defs
     id="defs1">
    <style
       id="style1" />
  </defs>
  <path
     id="path6"
     style="baseline-shift:baseline;display:inline;overflow:visible;opacity:1;vector-effect:none;fill:#ffffff;fill-opacity:1;stroke-linecap:round;stroke-miterlimit:12.7;paint-order:stroke fill markers;enable-background:accumulate;stop-color:#000000;stop-opacity:1"
     d="m 63.996094,10.185547 c -12.345763,7.410319 -26.782692,13.052652 -46.84961,13.929687 0.388499,31.033794 4.433434,58.961307 20.6875,77.054686 l 3.335938,-2.507811 18.626953,-14.009765 -21.408203,-5.746094 35.4375,-29.375 -23.71875,-2.962891 29.625,-25.271484 3.089844,-2.634766 C 76.012797,16.322446 69.838835,13.403722 63.996094,10.185547 Z m 0,5.126953 c 4.132839,1.583281 8.091153,3.139704 11.96875,4.595703 L 41.796875,49.056641 65.363281,52 30.943359,80.53125 51.955078,86.171875 38.822266,96.048828 C 24.67481,79.46368 21.382757,54.892706 21.609375,27.914062 37.205694,26.049707 50.678875,20.968566 63.996094,15.3125 Z m 34.957031,7.453125 -4.603516,3.050781 h -0.002 L 73.333937,39.742188 95.863234,42.642578 59.322219,72.869141 83.1855,78.849609 44.496047,101.7832 l -3.861328,2.28907 c 6.13231,5.91036 13.798794,10.58592 23.361328,13.74218 38.754083,-14.37386 47.122763,-51.165952 46.849603,-93.699216 -4.18098,-0.252893 -8.13392,-0.712673 -11.892572,-1.349609 z m 7.429685,5.148437 c 0.38895,39.50272 -7.48457,72.723778 -42.386716,84.773438 -6.409469,-2.19941 -11.846456,-5.11926 -16.527344,-8.59766 L 92.287109,77.523438 66.882812,71.15625 104.30664,40.199219 83.099609,37.470703 99.121094,26.853516 c -1.581414,-0.300232 3.139836,0.643646 7.261716,1.060546 z" />
</svg>
