<?xml version="1.0" encoding="UTF-8" standalone="no"?>
<!-- Created with Inkscape (http://www.inkscape.org/) -->

<svg
   width="121.29441mm"
   height="133.57428mm"
   viewBox="0 0 121.29441 133.57428"
   version="1.1"
   id="svg1"
   xml:space="preserve"
   xmlns="http://www.w3.org/2000/svg"
   xmlns:svg="http://www.w3.org/2000/svg"><defs
     id="defs1" /><path
     id="path1"
     style="display:inline;fill:#ffffff;fill-opacity:1;stroke-width:0.26966"
     d="M 60.646428,-8.1087819e-6 -3.9481184e-7,19.648923 c 0,0 2.34273499481184,66.87005 15.65072439481184,86.152877 13.308,19.28283 44.995704,27.77246 44.995704,27.77246 0,0 31.68748,-8.48969 44.995702,-27.77246 13.30823,-19.282767 15.65228,-86.152877 15.65228,-86.152877 z m 0,5.2901120087819 55.844652,18.0924391 c 0,0 -2.15844,61.57358 -14.41255,79.329007 -12.254112,17.75542 -41.432102,25.5726 -41.432102,25.5726 0,0 -29.177681,-7.81713 -41.431581,-25.5726 C 6.9609476,84.956073 4.8033246,23.382543 4.8033246,23.382543 Z m 0,4.15634 L 8.5777706,26.316213 c 0,0 2.0117454,57.41165 13.4374224,73.967057 11.425678,16.55541 38.631235,23.84454 38.631235,23.84454 0,0 27.20588,-7.28917 38.63175,-23.84454 C 110.70406,83.727903 112.71664,26.316213 112.71664,26.316213 Z m 5.2e-4,1.7006691 a 4.1564884,4.1564884 0 0 1 4.15685,4.15634 4.1564884,4.1564884 0 0 1 -4.15685,4.15633 4.1564884,4.1564884 0 0 1 -4.15634,-4.15633 4.1564884,4.1564884 0 0 1 4.15634,-4.15634 z m -44.965219,15.11432 a 4.1564884,4.1564884 0 0 1 4.156336,4.15634 4.1564884,4.1564884 0 0 1 -4.156336,4.15634 4.1564884,4.1564884 0 0 1 -4.156852,-4.15634 4.1564884,4.1564884 0 0 1 4.156852,-4.15634 z m 89.930951,0 a 4.1564884,4.1564884 0 0 1 4.15685,4.15634 4.1564884,4.1564884 0 0 1 -4.15685,4.15634 4.1564884,4.1564884 0 0 1 -4.15634,-4.15634 4.1564884,4.1564884 0 0 1 4.15634,-4.15634 z m -76.328163,66.88171 a 4.1564884,4.1564884 0 0 1 4.156335,4.15634 4.1564884,4.1564884 0 0 1 -4.156335,4.156327 4.1564884,4.1564884 0 0 1 -4.156336,-4.156327 4.1564884,4.1564884 0 0 1 4.156336,-4.15634 z m 62.725371,0 a 4.1564884,4.1564884 0 0 1 4.15633,4.15634 4.1564884,4.1564884 0 0 1 -4.15633,4.156327 4.1564884,4.1564884 0 0 1 -4.15634,-4.156327 4.1564884,4.1564884 0 0 1 4.15634,-4.15634 z m -31.36294,19.837547 a 4.1564884,4.1564884 0 0 1 4.15685,4.15685 4.1564884,4.1564884 0 0 1 -4.15685,4.15634 4.1564884,4.1564884 0 0 1 -4.15634,-4.15634 4.1564884,4.1564884 0 0 1 4.15634,-4.15685 z" /></svg>
