<?xml version="1.0" encoding="UTF-8" standalone="no"?>
<svg
   id="ico_battery_active"
   width="128"
   height="128"
   viewBox="0 0 128 128"
   version="1.1"
   xml:space="preserve"
   xmlns="http://www.w3.org/2000/svg"
   xmlns:svg="http://www.w3.org/2000/svg"><defs
     id="defs1"><style
       id="style1">
      .cls-1 {
        fill: #fff;
        fill-rule: evenodd;
      }
    </style></defs><path
     id="path1"
     style="display:inline;opacity:1;fill:#ffffff;fill-opacity:1;stroke:none;stroke-width:5.00142;stroke-linecap:square;stroke-miterlimit:5;stroke-opacity:1;paint-order:stroke fill markers"
     d="m 94.984737,12.029235 c -1.407316,0.0364 -2.63229,0.87424 -3.499043,2.027922 C 79.155288,30.469409 64.925932,44.405365 49.614396,58.290456 l 10.389677,11.583378 -0.123082,0.623224 c 0.513418,0.18822 0.977371,0.498633 1.367578,0.890879 L 74.943875,85.153576 C 92.484904,73.954321 110.03427,62.458965 128,34.271898 L 97.67691,12.93379 c -0.937789,-0.659926 -1.847783,-0.926393 -2.692173,-0.904555 z m 0.50405,3.411128 a 3.1675888,3.1675889 0 0 1 3.166918,3.166917 3.1675888,3.1675889 0 0 1 -3.166918,3.166917 3.1675888,3.1675889 0 0 1 -3.166917,-3.166917 3.1675888,3.1675889 0 0 1 3.166917,-3.166917 z M 47.170341,59.966715 22.206201,81.447441 C 15.465809,87.247698 9.7197769,94.565655 3.9627244,101.64655 c -1.3608313,1.67376 -2.3802853,3.66776 -3.26264783,5.56798 -0.70765044,1.52398 -1.24281922,4.61811 0.27351533,5.23393 l 7.6838287,3.12197 c 2.0483524,0.83188 3.4865364,0.30802 4.0597504,-0.97293 l 1.996662,-4.46025 c 1.819109,-4.06516 5.708543,-7.87092 9.162766,-11.503274 6.518861,-5.138155 12.095356,-11.236194 17.714028,-17.307662 2.722646,-2.937484 7.254202,-5.67992 10.893727,-5.98608 3.445227,-0.289815 4.545839,-3.298363 4.825593,-4.724002 L 47.760353,59.966715 Z" /></svg>
