<?xml version="1.0" encoding="UTF-8" standalone="no"?>
<!-- Created with Inkscape (http://www.inkscape.org/) -->

<svg
   width="63.999996"
   height="63.999996"
   viewBox="0 0 16.933332 16.933332"
   version="1.1"
   id="svg1"
   xml:space="preserve"
   xmlns="http://www.w3.org/2000/svg"
   xmlns:svg="http://www.w3.org/2000/svg"><defs
     id="defs1" /><g
     id="layer1"><path
       id="path1"
       style="opacity:1;fill:#ffffff;fill-opacity:1;stroke-width:1.5875;stroke-linecap:round;stroke-miterlimit:5"
       d="M 2.6923421,2.0308838 1.5585612,3.6607585 2.9047323,5.2663452 C 2.8773653,5.9688411 2.7500086,6.7214354 2.5977743,7.4863647 2.1935961,9.5172319 4.1038552,12.26128 5.9433065,14.562419 6.1881959,14.410317 6.4587919,14.200918 6.7303385,13.943335 7.2925373,13.410048 7.8695583,12.677582 8.3085368,11.851473 8.7475152,11.025363 9.0469463,10.106582 9.0624959,9.2009888 9.078008,8.2975779 8.8155609,7.4086547 8.1230184,6.6114827 7.6739147,6.2282818 7.1841721,5.813828 6.7070841,5.5154256 6.2266642,5.2149391 5.7638894,5.0389367 5.3826172,5.0994303 L 5.2518758,5.1211344 5.2110514,4.8591349 C 5.1101041,4.6491462 3.7828617,2.2971606 2.6923421,2.0308838 Z m 7.7421629,2.7569377 c -0.8574747,0.00622 -1.8127222,0.363919 -2.7590045,1.0924397 -0.016039,-0.00894 0.4132532,0.3534831 0.6294189,0.5379517 l 0.00775,0.00568 0.00568,0.00775 C 9.0574481,7.2793793 9.3446063,8.2445561 9.3281128,9.2051229 9.3116193,10.16569 8.996805,11.122803 8.5431478,11.97653 8.0894904,12.830263 7.4964246,13.582462 6.9122396,14.136605 6.6391664,14.395635 6.370107,14.61253 6.1143555,14.775326 c 0.5464083,0.677524 1.0799635,1.312578 1.5373738,1.874304 1.0380883,0.54542 1.6906021,0.165654 2.4324097,0 2.684736,-2.28934 3.24912,-5.196634 3.377055,-8.7617394 -0.274097,-1.727565 -1.174513,-2.757507 -2.353345,-3.0282389 l 0.851111,1.9487183 0.223242,1.0986409 0.05633,0.020671 -0.02274,0.060461 0.715718,1.0293945 0.07648,0.107487 -0.217041,0.1524455 -0.07597,-0.109554 -0.611849,-0.8800497 -0.329695,0.8779826 -0.13746,3.1651812 0.04961,0.03411 -0.01912,0.02739 0.433049,0.536918 0.08423,0.10387 -0.207222,0.165881 -0.08217,-0.103353 -0.384989,-0.476456 -1.009241,1.460893 -0.07441,0.109037 -0.218591,-0.150379 0.07596,-0.109037 L 11.37087,12.355323 11.511959,9.1131388 11.930538,7.9943441 11.705229,6.8884684 10.795723,4.806425 C 10.67753,4.793015 10.557002,4.786932 10.434505,4.7878215 Z" /><path
       style="fill:#ffffff;fill-opacity:1;stroke:none;stroke-width:0.264583;stroke-linecap:square;stroke-miterlimit:5;stroke-dasharray:none;stroke-opacity:1"
       d="M 4.4989265,3.0110924 4.8885972,2.4324904 C 5.3077349,2.3327725 5.4810317,2.3547561 5.8096374,2.5859971 6.8860726,1.1481706 8.7167936,1.328519 10.273139,1.8302719 10.96287,2.1924984 10.938442,2.4707061 11.135138,2.7749284 L 10.237714,3.8494752 C 9.3715695,3.4474513 8.801887,2.8776603 7.9469227,3.3062978 7.252199,3.6545984 7.992065,4.4657732 8.4074428,4.9712546 L 7.5218273,5.5616649 C 6.8652121,5.1098783 6.2751958,4.885147 5.5144323,4.7232823 4.7447816,3.2495837 4.41846,3.6107585 4.4989265,3.0110924 Z"
       id="path6" /><path
       style="fill:#ffffff;fill-opacity:1;stroke:none;stroke-width:0.264583;stroke-linecap:square;stroke-miterlimit:5;stroke-dasharray:none;stroke-opacity:1"
       d="M 7.0731154,0.08265744 6.5771706,1.5941078 C 7.0770513,1.4268604 7.5769321,1.2195152 8.0768128,1.2398616 L 8.1830867,0.46052004 Z"
       id="path7" /></g></svg>
