<?xml version="1.0" encoding="UTF-8" standalone="no"?>
<!-- Created with Inkscape (http://www.inkscape.org/) -->

<svg
   width="127.99999"
   height="127.99999"
   viewBox="0 0 33.866664 33.866664"
   version="1.1"
   id="svg1"
   xml:space="preserve"
   xmlns="http://www.w3.org/2000/svg"
   xmlns:svg="http://www.w3.org/2000/svg"><defs
     id="defs1" /><g
     id="layer1"><path
       id="path1"
       style="opacity:1;fill:#ffffff;fill-opacity:1;stroke-width:1.5875;stroke-linecap:round;stroke-miterlimit:5"
       d="M 16.752466,0.11265462 C 9.4184236,0.33947664 4.6452841,5.4063461 4.229716,8.4671834 3.9726158,10.360836 5.4463114,14.029619 4.9593872,16.531291 c -0.1748569,0.898363 -2.7925098,3.451402 -0.6531901,5.143872 2.9445889,2.329539 4.2900286,1.585501 6.0848999,3.594612 0.447849,0.412562 0.202928,1.47196 -0.105937,2.951758 -0.0791,0.378963 0.296215,0.820638 0.696599,0.448552 1.088084,-0.607643 1.22583,-0.670907 2.385384,0.756026 0.266694,0.245849 0.520692,0.566441 0.908988,0.08268 l 0.799951,-0.974101 c 0.372187,-0.498509 1.303708,-0.177548 1.525489,0.208773 0.728155,0.666926 0.910979,0.603746 1.677417,0.682646 1.405378,-0.124902 0.736428,-0.726024 1.611271,-1.197343 1.135999,-0.306795 1.759958,0.630428 1.962154,-0.517281 0.158388,-0.899042 1.673844,1.216378 1.494999,-0.473873 l -0.203088,-1.920813 c 0.301614,-0.598071 0.611284,-1.304867 1.463993,-1.842265 1.330984,0.03946 2.578838,-0.05508 4.250903,-0.755509 1.141753,-1.060759 1.853194,-2.126231 1.416968,-3.873149 C 29.812258,16.988016 28.08668,14.919709 28.584302,13.2302 29.020256,11.750065 29.613587,9.7645855 29.331543,7.6047038 28.949976,5.6591947 29.054035,3.913276 27.276371,2.9290202 24.013543,1.1224604 20.978872,0.29346728 18.252633,0.13384196 17.741463,0.10391221 17.241402,0.09753316 16.752466,0.11265462 Z M 9.9663167,11.6427 13.272575,11.7135 c 0.854832,0.01832 0.966289,1.590179 0.920874,2.598291 -0.09333,2.071656 -1.667341,3.163034 -4.6054038,3.943945 C 7.9787737,18.683463 7.1346284,16.835605 6.683313,15.846578 6.76055,13.469667 8.2698507,11.606347 9.9663167,11.6427 Z m 12.9330603,0.05943 c 1.23031,0.03382 2.345071,0.365047 2.748153,0.979785 1.596712,2.435139 1.657305,3.646622 1.251603,4.746997 -0.22582,0.612486 -0.02717,0.652545 -1.180806,1.606104 -1.463828,1.209961 -5.83389,-1.291345 -6.093168,-1.653129 -1.040362,-1.069185 -1.033307,-1.894688 -1.086239,-3.306258 -0.06224,-1.659823 2.309942,-2.429871 4.360457,-2.373499 z m -6.174816,6.45542 c 0.542646,-0.0057 0.984788,0.756647 1.410766,1.096574 0.976503,1.053856 1.605978,1.950883 1.152385,3.407027 0.01101,0.769258 -0.709828,0.643738 -1.486215,0.450619 -0.311914,-0.233791 -0.413411,-0.467459 0.05013,-0.70125 0.747958,-0.595606 -0.492742,-1.14066 -0.734839,-0.985469 -0.671814,0.533057 -0.699198,0.471325 -0.709518,1.002006 0.112004,0.611976 -0.09929,0.739096 -0.47594,0.61805 -0.648609,-0.257364 -1.30379,-0.591945 -1.56993,-1.277441 -0.08074,-0.262379 0.929097,-2.215353 1.552877,-3.014287 0.29594,-0.431861 0.563629,-0.59324 0.810287,-0.595829 z" /><path
       style="fill:#ffffff;fill-opacity:1;stroke-width:1.5875;stroke-linecap:round;stroke-miterlimit:5"
       d="m 11.229604,29.059994 c -0.452213,0.298587 -0.910016,0.579004 -1.2398616,1.275286 -0.2575028,0.352692 -0.1894248,0.933291 -0.1416987,1.499643 0.4596023,0.587923 0.8071263,0.391294 1.1099713,-0.118081 0.310111,-0.933773 0.698072,-1.709924 0.271589,-2.656848 z"
       id="path2" /><path
       style="fill:#ffffff;fill-opacity:1;stroke-width:1.5875;stroke-linecap:round;stroke-miterlimit:5"
       d="m 12.552123,29.674021 c -0.730917,1.04312 -1.286477,2.415311 -0.354246,3.223641 0.795889,0.350225 1.29971,0.220624 1.216245,-0.873804 0.06039,-1.149631 -0.117401,-1.807282 -0.861999,-2.349837 z"
       id="path3" /><path
       style="fill:#ffffff;fill-opacity:1;stroke-width:1.5875;stroke-linecap:round;stroke-miterlimit:5"
       d="m 15.527791,28.894681 c -1.494474,1.130257 -1.407849,2.918168 -1.476029,4.59339 1.07833,0.327577 2.112541,0.50702 2.609614,-0.03542 l -0.129892,-2.597803 c -0.231817,-0.804496 -0.334992,-1.475352 -1.003693,-1.960162 z"
       id="path4" /><path
       style="fill:#ffffff;fill-opacity:1;stroke-width:1.5875;stroke-linecap:round;stroke-miterlimit:5"
       d="m 18.161021,29.851146 c 0.933137,0.434287 0.949305,1.395914 1.228053,2.23175 l 0.118079,1.216244 -1.912929,0.507753 -0.318822,-0.366052 c 0.04334,-1.178769 -0.232234,-2.805489 0.885619,-3.589695 z"
       id="path5" /><path
       style="fill:#ffffff;fill-opacity:1;stroke-width:1.5875;stroke-linecap:round;stroke-miterlimit:5"
       d="m 20.8651,29.083611 c 0.946899,0.680855 1.178643,1.778484 1.535066,2.833971 l -1.747614,0.85019 c -0.460648,-1.099165 -1.215726,-1.88148 -0.944659,-3.400763 0.2975,-0.588584 0.70278,-0.573605 1.157207,-0.283398 z"
       id="path6" /><path
       style="fill:#ffffff;fill-opacity:1;stroke-width:1.5875;stroke-linecap:round;stroke-miterlimit:5"
       d="m 22.352934,28.351503 c -0.226829,0.967443 -0.106717,1.69015 0.519558,2.526956 l 0.720301,-0.861999 c -0.04872,-0.834994 -0.432511,-1.377747 -1.239859,-1.664957 z"
       id="path7" /></g></svg>
