<?xml version="1.0" encoding="UTF-8" standalone="no"?>
<!-- Created with Inkscape (http://www.inkscape.org/) -->

<svg
   width="127.99999"
   height="127.99999"
   viewBox="0 0 33.866664 33.866664"
   version="1.1"
   id="svg1"
   xml:space="preserve"
   sodipodi:docname="skull_headshot.svg"
   inkscape:version="1.4.2 (f4327f4, 2025-05-13)"
   xmlns:inkscape="http://www.inkscape.org/namespaces/inkscape"
   xmlns:sodipodi="http://sodipodi.sourceforge.net/DTD/sodipodi-0.dtd"
   xmlns:xlink="http://www.w3.org/1999/xlink"
   xmlns="http://www.w3.org/2000/svg"
   xmlns:svg="http://www.w3.org/2000/svg"><sodipodi:namedview
     id="namedview1"
     pagecolor="#808080"
     bordercolor="#000000"
     borderopacity="0.25"
     inkscape:showpageshadow="2"
     inkscape:pageopacity="0.0"
     inkscape:pagecheckerboard="0"
     inkscape:deskcolor="#d1d1d1"
     inkscape:zoom="4.3420778"
     inkscape:cx="43.988157"
     inkscape:cy="63.103429"
     inkscape:window-width="1920"
     inkscape:window-height="1017"
     inkscape:window-x="-8"
     inkscape:window-y="-8"
     inkscape:window-maximized="1"
     inkscape:current-layer="svg1" /><defs
     id="defs1"><linearGradient
       id="linearGradient1"
       inkscape:collect="always"><stop
         style="stop-color:#ffffff;stop-opacity:1;"
         offset="0.80389613"
         id="stop1" /><stop
         style="stop-color:#ffffff;stop-opacity:0;"
         offset="0.95324677"
         id="stop2" /></linearGradient><linearGradient
       inkscape:collect="always"
       xlink:href="#linearGradient1"
       id="linearGradient2"
       x1="16.937744"
       y1="1.5151997"
       x2="16.937744"
       y2="28.451651"
       gradientUnits="userSpaceOnUse" /></defs><g
     id="layer1"
     transform="translate(0,5.6541411)"><path
       id="path1"
       style="opacity:1;fill:url(#linearGradient2);fill-opacity:1;stroke-width:1.5875;stroke-linecap:round;stroke-miterlimit:5"
       d="M 19.125447,0.20699972 C 20.506732,0.84566348 21.5405,2.0515362 21.955249,3.5545989 h 3.40806 C 25.260152,2.9250136 25.091736,2.3206984 24.865148,1.7490244 22.841953,0.88942467 20.921507,0.40285481 19.125447,0.20699972 Z M 14.457515,0.34859314 C 12.212982,0.74610384 10.27282,1.5959035 8.702311,2.646644 8.621111,2.9425831 8.5545115,3.2455642 8.5038735,3.5545989 H 11.911934 C 12.297911,2.1561905 13.218892,1.0149566 14.457515,0.34859314 Z M 15.55874,2.2771576 c -0.572795,0.298667 -0.978774,0.7046463 -1.277441,1.2774413 h 1.277441 z m 2.749703,0 v 1.2774413 h 1.277441 C 19.287218,2.9818029 18.881238,2.5758236 18.308443,2.2771576 Z m 10.094474,1.681551 c 0.02692,0.3200786 0.04031,0.6441477 0.04031,0.9710002 0,2.9187369 -1.095263,5.5889202 -2.895948,7.6212402 0.03707,0.04211 0.07063,0.08557 0.100253,0.130741 1.596712,2.435139 1.657305,3.646622 1.251603,4.746997 -0.22582,0.612486 -0.02717,0.652545 -1.180807,1.606104 -1.463828,1.209961 -5.83389,-1.291345 -6.093168,-1.653129 -0.376187,-0.38661 -0.615333,-0.741176 -0.769979,-1.103292 -0.625086,0.105737 -1.266885,0.160714 -1.921329,0.160714 -1.127066,0 -2.217284,-0.162966 -3.247864,-0.467155 C 12.996769,17.028722 11.61791,17.71599 9.5880451,18.25551 7.9787736,18.683237 7.1346283,16.835382 6.6833129,15.846355 6.7307972,14.385059 7.3194781,13.117958 8.1602253,12.366981 6.616492,10.549371 5.625574,8.2488329 5.4513467,5.7291432 4.7586328,6.6978234 4.3401982,7.6532107 4.2297159,8.4669605 3.9726157,10.360613 5.4463113,14.029396 4.9593871,16.531068 4.7845302,17.429431 2.1668773,19.98247 4.306197,21.67494 c 2.9445889,2.329539 4.2900285,1.585501 6.0849,3.594612 0.447849,0.412562 0.202928,1.47196 -0.105937,2.951758 -0.0791,0.378963 0.296214,0.820637 0.696598,0.448551 1.088084,-0.607643 1.22583,-0.670906 2.385384,0.756027 0.266694,0.245849 0.520693,0.566443 0.908989,0.08268 l 0.799951,-0.974101 c 0.372187,-0.498509 1.303707,-0.177548 1.525488,0.208773 0.728155,0.666926 0.910979,0.603746 1.677417,0.682646 1.405378,-0.124902 0.736428,-0.726024 1.611271,-1.197343 1.135999,-0.306795 1.759959,0.630428 1.962155,-0.517281 0.158388,-0.899042 1.673844,1.216378 1.494999,-0.473873 l -0.203089,-1.920813 c 0.301614,-0.598071 0.611285,-1.304867 1.463994,-1.842265 1.330984,0.03946 2.578838,-0.05508 4.250903,-0.75551 1.141753,-1.060759 1.853194,-2.12623 1.416968,-3.873148 -0.46393,-1.85786 -2.189509,-3.926169 -1.691887,-5.615678 C 29.020255,11.74984 29.613586,9.7643606 29.331542,7.6044789 29.060168,6.2208168 29.03465,4.9382581 28.402917,3.9587086 Z M 8.5059406,6.3043018 C 8.8666568,8.504021 10.021533,10.392636 11.680424,11.679167 l 1.592151,0.03411 c 0.52229,0.01119 0.767111,0.602718 0.868164,1.290877 0.45508,0.155558 0.928883,0.274876 1.418001,0.355017 V 9.9511076 C 13.772123,9.4581166 12.405396,8.0907428 11.911934,6.3043018 Z m 5.7753584,0 c 0.298666,0.572795 0.704645,0.9787785 1.277441,1.2774414 V 6.3043018 Z m 4.027144,0 v 1.2774414 c 0.572795,-0.298666 0.978775,-0.7046464 1.277441,-1.2774414 z m 3.646806,0 c -0.493265,1.786221 -1.860585,3.1535408 -3.646806,3.6468058 v 3.4080604 c 0.13731,-0.0225 0.27343,-0.04838 0.408244,-0.077 0.497222,-0.946695 1.955123,-1.460637 3.420463,-1.563728 1.68679,-1.287111 2.862007,-3.1916769 3.226159,-5.4141402 z M 16.72456,18.157325 c 0.542646,-0.0057 0.984789,0.756647 1.410767,1.096574 0.976503,1.053856 1.605977,1.950883 1.152384,3.407027 0.01101,0.769258 -0.709827,0.643737 -1.486214,0.450618 -0.311914,-0.233791 -0.413415,-0.467458 0.05013,-0.701249 0.747958,-0.595606 -0.492742,-1.14066 -0.734839,-0.985469 -0.671814,0.533057 -0.699197,0.471325 -0.709517,1.002006 0.112004,0.611976 -0.09929,0.739096 -0.47594,0.61805 -0.648609,-0.257364 -1.30379,-0.591946 -1.56993,-1.277442 -0.08074,-0.262379 0.929097,-2.215352 1.552877,-3.014286 0.29594,-0.431861 0.563628,-0.59324 0.810286,-0.595829 z" /></g><g
     id="path239"
     style="opacity:1"
     transform="translate(0,-6.3499999)"><path
       style="baseline-shift:baseline;display:inline;overflow:visible;vector-effect:none;fill:#ffffff;stroke-linejoin:round;enable-background:accumulate;stop-color:#000000;stop-opacity:1"
       d="m 16.933449,6.3499999 c -5.839087,0 -10.5834491,4.7443621 -10.5834491,10.5834491 0,5.839087 4.7443621,10.583217 10.5834491,10.583217 5.839087,0 10.583217,-4.74413 10.583217,-10.583217 0,-5.839087 -4.74413,-10.5834491 -10.583217,-10.5834491 z m -0.449356,0.9994987 v 5.2480664 c -2.046904,0.2101 -3.676428,1.839624 -3.886528,3.886528 H 7.3494988 C 7.5767823,11.537469 11.537469,7.5767822 16.484093,7.3494986 Z m 0.898713,0 c 4.946624,0.2272836 8.907078,4.1879704 9.134362,9.1345944 h -5.248067 c -0.2101,-2.046904 -1.839392,-3.676428 -3.886295,-3.886528 z m -0.898713,5.5200024 v 3.614592 h -3.614592 c 0.207313,-1.900297 1.714295,-3.407279 3.614592,-3.614592 z m 0.898713,0 c 1.900297,0.207313 3.407278,1.714295 3.614592,3.614592 H 17.382806 Z M 7.3494988,17.382806 h 5.2480662 c 0.2101,2.046903 1.839624,3.676195 3.886528,3.886295 v 5.248067 C 11.537469,26.289884 7.5767823,22.32943 7.3494988,17.382806 Z m 5.5200022,0 h 3.614592 v 3.614592 c -1.900297,-0.207314 -3.407279,-1.714295 -3.614592,-3.614592 z m 4.513305,0 h 3.614592 c -0.207314,1.900297 -1.714295,3.407278 -3.614592,3.614592 z m 3.886295,0 h 5.248067 c -0.227284,4.946624 -4.187738,8.907078 -9.134362,9.134362 v -5.248067 c 2.046903,-0.2101 3.676195,-1.839392 3.886295,-3.886295 z"
       id="path8" /></g></svg>
