<?xml version="1.0" encoding="UTF-8" standalone="no"?>
<!-- Created with Inkscape (http://www.inkscape.org/) -->

<svg
   width="127.99999"
   height="127.99999"
   viewBox="0 0 33.866664 33.866664"
   version="1.1"
   id="svg1"
   xml:space="preserve"
   xmlns="http://www.w3.org/2000/svg"
   xmlns:svg="http://www.w3.org/2000/svg"><defs
     id="defs1" /><g
     id="layer1"
     transform="matrix(0.7536616,0,0,0.7536616,4.1680061,6.4899311)"><path
       id="path1"
       style="opacity:1;fill:#ffffff;fill-opacity:1;stroke-width:1.5875;stroke-linecap:round;stroke-miterlimit:5"
       d="m 17.229145,0.10476533 c -0.160067,3.3364e-4 -0.318791,0.003349 -0.476542,0.008228 -0.03552,0.001098 -0.07089,0.002104 -0.106279,0.003428 V 6.7818348 c 4.34e-4,0.1618783 -0.130904,0.2932157 -0.292782,0.2927818 H 4.6594138 c -0.092309,0.2004923 -0.1709963,0.397363 -0.235871,0.5896775 0.020716,-0.00457 0.041868,-0.00687 0.063082,-0.00686 H 16.353542 c 0.161878,-4.339e-4 0.293216,0.1309034 0.292782,0.2927817 V 18.163979 c 0.02639,-0.0039 0.05225,-0.0059 0.07817,-0.0062 0.178037,-0.0019 0.345276,0.07878 0.504655,0.200217 V 7.9502191 c -4.34e-4,-0.1618779 0.130903,-0.293215 0.292781,-0.2927817 h 11.816178 c -0.0022,-0.0176 -0.0046,-0.035174 -0.0069,-0.052797 -0.03503,-0.1786 -0.06595,-0.355223 -0.09462,-0.5300241 H 17.521926 C 17.360048,7.0750499 17.228711,6.9437127 17.229145,6.7818348 Z m 0.585563,0.008914 V 1.5179344 c 2.571503,0.3877814 4.582652,2.3989314 4.970433,4.970433 h 6.240297 C 28.981928,5.887259 28.895666,5.2990778 28.768997,4.7261915 28.517581,4.0014459 28.097834,3.3839185 27.27629,2.9290464 24.013462,1.1224866 20.979091,0.29318885 18.252852,0.13356353 18.106016,0.12496608 17.95971,0.11843853 17.814708,0.11367933 Z m -1.751891,0.0349693 C 10.524775,0.55547015 6.5490004,3.7200256 4.9624806,6.4883674 h 6.1271614 c 0.387907,-2.5723415 2.400483,-4.5836016 4.973175,-4.970433 z m 0,2.37996587 c -2.033802,0.3766943 -3.581635,1.9264547 -3.959753,3.9597532 h 3.959753 z m 1.751891,0.00274 v 3.9576962 h 3.957696 C 21.394508,4.4569395 19.846822,2.9092546 17.814708,2.5313569 Z M 4.8493448,8.2409439 C 5.010548,10.474573 5.7667815,12.534063 6.9618988,14.263883 7.4849961,12.694161 8.6714537,11.614809 9.9665115,11.64256 l 2.9552445,0.06308 C 11.959184,10.81486 11.295085,9.6072833 11.089642,8.2409439 Z m 7.2509762,0 c 0.376915,2.0349871 1.927509,3.5848981 3.962496,3.9618101 V 8.2409439 Z m 5.714387,0 v 3.9597531 c 2.033297,-0.378117 3.58306,-1.92595 3.959753,-3.9597531 z m 4.970433,0 c -0.227422,1.5125105 -1.015966,2.8313601 -2.150266,3.7403381 0.706195,-0.207803 1.507498,-0.299887 2.264773,-0.279068 1.23031,0.03382 2.34509,0.365086 2.748172,0.979824 0.477384,0.728057 0.817039,1.346569 1.048392,1.885597 1.320287,-1.790272 2.158482,-3.96086 2.329226,-6.3266911 z M 4.2281264,8.4802432 c -0.1534905,1.1706398 0.3454388,3.0113918 0.6363032,4.8360418 0.5460105,1.104522 1.239681,2.123435 2.0542719,3.031354 -0.088368,-0.179568 -0.1663907,-0.350468 -0.2351853,-0.501226 0.00868,-0.267229 0.03505,-0.528019 0.078167,-0.780295 C 5.3511775,13.204289 4.440622,10.943055 4.2281264,8.4802432 Z M 29.153658,11.05974 c -0.467388,1.550299 -1.22162,2.975816 -2.201005,4.214823 0.09528,0.330114 0.143499,0.627946 0.154961,0.903715 0.525394,-0.605785 0.997958,-1.258937 1.409741,-1.952107 -0.04143,-0.342831 -0.02697,-0.676585 0.0672,-0.996281 0.188024,-0.638372 0.405389,-1.370326 0.569107,-2.17015 z m -15.116314,1.459109 c 0.159274,0.539742 0.180854,1.248703 0.156333,1.793031 -0.07874,1.747738 -1.211841,2.797932 -3.32825,3.552464 1.383755,0.798968 2.943333,1.332444 4.60977,1.533162 0.154497,-0.249018 0.305241,-0.472747 0.43883,-0.643846 0.05038,-0.07353 0.100007,-0.139762 0.14879,-0.198159 v -5.342067 c -0.728112,-0.109479 -1.41127,-0.348964 -2.025473,-0.694585 z m 4.934778,0.39906 c -0.369526,0.135288 -0.75663,0.235087 -1.157414,0.295525 v 5.728786 c 0.108658,0.117799 0.215493,0.227871 0.320894,0.31198 0.049,0.05288 0.09684,0.105528 0.143991,0.157705 1.177437,-0.13004 2.30213,-0.426192 3.350877,-0.864632 -1.050125,-0.475966 -1.895879,-1.012558 -2.005589,-1.165642 -1.040362,-1.069185 -1.033172,-1.894738 -1.086104,-3.306308 -0.01692,-0.451136 0.14592,-0.836468 0.433345,-1.157414 z M 5.0406472,14.817905 c 0.037274,0.604658 0.021228,1.185218 -0.081595,1.713494 -0.1748569,0.898363 -2.7920791,3.451437 -0.6527594,5.143907 2.9445889,2.329539 4.289778,1.58518 6.0846492,3.594291 0.447849,0.412562 0.203272,1.472018 -0.105593,2.951816 -0.0791,0.378963 0.296258,0.820515 0.696642,0.448429 1.088084,-0.607643 1.225897,-0.670637 2.385451,0.756296 0.266694,0.245849 0.520219,0.566727 0.908515,0.08297 l 0.800179,-0.974339 c 0.372187,-0.498509 1.303838,-0.177877 1.525619,0.208444 0.728155,0.666926 0.910715,0.604029 1.677153,0.682929 1.405378,-0.124902 0.736485,-0.725864 1.611328,-1.197183 1.135999,-0.306795 1.760196,0.630027 1.962392,-0.517682 0.158388,-0.899042 1.673609,1.216452 1.494764,-0.473799 l -0.202959,-1.920566 c 0.301614,-0.598071 0.6112,-1.305001 1.463909,-1.842399 1.330984,0.03946 2.579098,-0.05518 4.251163,-0.75561 1.141753,-1.060759 1.852824,-2.126441 1.416598,-3.873359 -0.308863,-1.236877 -1.176726,-2.566893 -1.575674,-3.816448 -0.501812,0.76786 -1.076817,1.483881 -1.714864,2.137924 -0.02559,0.08831 -0.05454,0.175528 -0.08639,0.261927 -0.22582,0.612486 -0.02709,0.652283 -1.180726,1.605842 -0.351397,0.290456 -0.870518,0.366948 -1.459795,0.31061 -1.471791,0.902643 -3.121538,1.541972 -4.884038,1.851313 0.101917,0.433111 0.08626,0.908137 -0.08708,1.464594 0.01101,0.769258 -0.709464,0.643605 -1.485851,0.450486 -0.311914,-0.233791 -0.413487,-0.467651 0.05005,-0.701442 0.621645,-0.495021 -0.130267,-0.955064 -0.540995,-1.007251 -0.04918,0.0013 -0.09881,0.0027 -0.148105,0.0034 -0.0178,0.0044 -0.03322,0.01036 -0.04594,0.01851 -0.671814,0.533057 -0.69935,0.471085 -0.70967,1.001766 0.112004,0.611976 -0.09921,0.739522 -0.475856,0.618476 -0.648609,-0.257364 -1.303362,-0.59191 -1.569502,-1.277406 -0.02293,-0.07452 0.04194,-0.285628 0.161133,-0.567736 C 10.533997,20.50584 7.1182512,18.123165 5.0406472,14.817905 Z m 5.0287148,3.303566 c -0.1560391,0.04582 -0.3167162,0.09064 -0.4813411,0.134391 -0.1639145,0.04357 -0.3198818,0.06342 -0.4683137,0.06308 1.6481778,1.179176 3.5729788,1.995489 5.6574758,2.332655 0.105018,-0.211067 0.222913,-0.434236 0.346264,-0.655502 -1.841089,-0.261486 -3.554464,-0.915599 -5.054085,-1.874626 z m 12.368829,0.76041 c -1.140194,0.54501 -2.374454,0.925629 -3.671771,1.111473 0.160222,0.212688 0.297887,0.426142 0.405918,0.646588 1.501152,-0.251204 2.918505,-0.751312 4.207966,-1.456366 -0.312002,-0.08092 -0.629942,-0.184718 -0.942113,-0.301695 z" /><path
       style="fill:#ffffff;fill-opacity:1;stroke-width:1.5875;stroke-linecap:round;stroke-miterlimit:5"
       d="m 11.229604,29.059994 c -0.452213,0.298587 -0.910016,0.579004 -1.2398616,1.275286 -0.2575028,0.352692 -0.1894248,0.933291 -0.1416987,1.499643 0.4596023,0.587923 0.8071263,0.391294 1.1099713,-0.118081 0.310111,-0.933773 0.698072,-1.709924 0.271589,-2.656848 z"
       id="path2" /><path
       style="fill:#ffffff;fill-opacity:1;stroke-width:1.5875;stroke-linecap:round;stroke-miterlimit:5"
       d="m 12.552123,29.674021 c -0.730917,1.04312 -1.286477,2.415311 -0.354246,3.223641 0.795889,0.350225 1.29971,0.220624 1.216245,-0.873804 0.06039,-1.149631 -0.117401,-1.807282 -0.861999,-2.349837 z"
       id="path3" /><path
       style="fill:#ffffff;fill-opacity:1;stroke-width:1.5875;stroke-linecap:round;stroke-miterlimit:5"
       d="m 15.527791,28.894681 c -1.494474,1.130257 -1.407849,2.918168 -1.476029,4.59339 1.07833,0.327577 2.112541,0.50702 2.609614,-0.03542 l -0.129892,-2.597803 c -0.231817,-0.804496 -0.334992,-1.475352 -1.003693,-1.960162 z"
       id="path4" /><path
       style="fill:#ffffff;fill-opacity:1;stroke-width:1.5875;stroke-linecap:round;stroke-miterlimit:5"
       d="m 18.161021,29.851146 c 0.933137,0.434287 0.949305,1.395914 1.228053,2.23175 l 0.118079,1.216244 -1.912929,0.507753 -0.318822,-0.366052 c 0.04334,-1.178769 -0.232234,-2.805489 0.885619,-3.589695 z"
       id="path5" /><path
       style="fill:#ffffff;fill-opacity:1;stroke-width:1.5875;stroke-linecap:round;stroke-miterlimit:5"
       d="m 20.8651,29.083611 c 0.946899,0.680855 1.178643,1.778484 1.535066,2.833971 l -1.747614,0.85019 c -0.460648,-1.099165 -1.215726,-1.88148 -0.944659,-3.400763 0.2975,-0.588584 0.70278,-0.573605 1.157207,-0.283398 z"
       id="path6" /><path
       style="fill:#ffffff;fill-opacity:1;stroke-width:1.5875;stroke-linecap:round;stroke-miterlimit:5"
       d="m 22.352934,28.351503 c -0.226829,0.967443 -0.106717,1.69015 0.519558,2.526956 l 0.720301,-0.861999 c -0.04872,-0.834994 -0.432511,-1.377747 -1.239859,-1.664957 z"
       id="path7" /></g><g
     id="layer1-8"
     transform="translate(-15.063809,-16.96158)"
     style="stroke:none"><path
       id="path8"
       style="baseline-shift:baseline;display:inline;overflow:visible;opacity:1;vector-effect:none;fill:#ffffff;stroke:none;stroke-linejoin:round;enable-background:accumulate;stop-color:#000000;stop-opacity:1"
       d="m 31.998169,18.859436 c -5.598486,0 -10.144601,4.544047 -10.144601,10.142533 0,5.598487 4.546109,10.1446 10.144601,10.1446 5.598493,0 10.142533,-4.546107 10.142533,-10.1446 0,-5.598492 -4.544046,-10.142533 -10.142533,-10.142533 z m -0.451136,0.538985 c 0.125003,-0.0059 0.229776,0.09345 0.230477,0.218591 v 8.945707 c 3.27e-4,0.122001 -0.09866,0.220986 -0.220658,0.220659 h -8.94364 c -0.125957,4.78e-4 -0.226617,-0.10466 -0.220659,-0.230477 0.227691,-4.955475 4.199004,-8.926789 9.15448,-9.15448 z m 0.900204,0 c 4.955476,0.227691 8.926791,4.199005 9.15448,9.15448 0.006,0.125817 -0.0947,0.230955 -0.220659,0.230477 h -8.94364 c -0.122002,3.27e-4 -0.220985,-0.09866 -0.220658,-0.220659 v -8.945707 c 7.01e-4,-0.125141 0.105474,-0.224511 0.230477,-0.218591 z m -9.834025,9.824206 h 8.94364 c 0.122002,-3.27e-4 0.220985,0.09866 0.220658,0.220659 v 8.94364 c 4.78e-4,0.125956 -0.104661,0.226616 -0.230477,0.220658 -4.955476,-0.227689 -8.926789,-4.199003 -9.15448,-9.15448 -0.006,-0.125817 0.0947,-0.230955 0.220659,-0.230477 z m 9.824206,0 h 8.94364 c 0.125957,-4.78e-4 0.226617,0.10466 0.220659,0.230477 -0.227689,4.955477 -4.199004,8.926791 -9.15448,9.15448 -0.125816,0.006 -0.230955,-0.0947 -0.230477,-0.220658 v -8.94364 c -3.27e-4,-0.122001 0.09866,-0.220986 0.220658,-0.220659 z" /></g></svg>
