<svg id="hud_obj_status_build_128" width="128" height="128" viewBox="0 0 128 128">
  <defs>
    <style>
      .cls-1 {
        fill: #fff;
        fill-rule: evenodd;
      }
    </style>
  </defs>
  <path id="Ellipse_1_copy_5" data-name="Ellipse_1_copy_5" class="cls-1" d="M 62.166016,28.046875 C 53.440746,28.494058 44.979842,32.110002 38.544922,38.544922 28.24905,48.840794 25.168451,64.325349 30.740234,77.777344 36.312029,91.229366 49.439375,100 64,100 83.882251,100 100,83.882251 100,64 100,49.439375 91.229366,36.312029 77.777344,30.740234 72.732846,28.650816 67.401177,27.778565 62.166016,28.046875 Z M 49.953125,37.123047 H 51.3125 v 1.378906 c 0.554051,0.03258 1.104801,0.105022 1.648438,0.216797 l 0.357421,-1.332031 1.314453,0.351562 -0.357421,1.332031 c 0.526736,0.175209 1.040985,0.3877 1.537109,0.636719 l 0.689453,-1.193359 1.175781,0.679687 -0.689453,1.19336 c 0.463571,0.305329 0.90538,0.644951 1.320313,1.013672 l 0.974609,-0.976563 0.960938,0.962891 -0.97461,0.974609 c 0.368721,0.414933 0.70639,0.854788 1.011719,1.31836 l 1.195312,-0.689454 0.679688,1.177735 -1.195312,0.689453 c 0.249017,0.496124 0.463463,1.010373 0.638671,1.537109 l 1.330079,-0.357422 0.353515,1.3125 -1.333984,0.357422 c 0.111775,0.543637 0.184219,1.09634 0.216797,1.650391 h 1.380859 v 1.359375 h -0.822266 l 0.279297,1.042969 c 0.972823,-0.20002 1.959712,-0.328422 2.951172,-0.386719 v -2.46875 h 2.431641 v 2.46875 c 0.99146,0.0583 1.978348,0.186699 2.951172,0.386719 l 0.638671,-2.384766 2.115235,0.566406 a 6.5699079,6.5699079 0 0 1 -1.029297,-3.529297 6.5699079,6.5699079 0 0 1 6.568359,-6.570312 6.5699079,6.5699079 0 0 1 6.570313,6.570312 6.5699079,6.5699079 0 0 1 -6.570313,6.56836 6.5699079,6.5699079 0 0 1 -0.06641,0 h -0.002 l -1.017578,1.765625 c 0.829548,0.546378 1.618818,1.150732 2.361328,1.810547 L 82.650391,54.8125 84.371094,56.53125 82.625,58.277344 c 0.659818,0.742511 1.266124,1.53178 1.8125,2.361328 l 2.138672,-1.234375 1.214844,2.105469 -2.136719,1.234375 c 0.445612,0.8878 0.825142,1.807419 1.138672,2.75 l 2.384765,-0.638672 0.628907,2.349609 -2.384766,0.640625 c 0.20002,0.972823 0.330372,1.957759 0.388672,2.949219 h 2.46875 v 2.433594 h -2.46875 c -0.0583,0.991459 -0.188652,1.976395 -0.388672,2.949218 l 2.384766,0.640625 -0.628907,2.34961 -2.384765,-0.638672 c -0.31353,0.94258 -0.69306,1.8622 -1.138672,2.75 l 2.136719,1.232422 -1.214844,2.107422 -2.138672,-1.234375 c -0.546376,0.829548 -1.152682,1.618815 -1.8125,2.361328 l 1.746094,1.74414 -1.720703,1.720704 -1.744141,-1.746094 c -0.74251,0.659813 -1.53178,1.266124 -2.361328,1.8125 l 1.234375,2.138672 -2.107422,1.214843 -1.232422,-2.136718 c -0.8878,0.445612 -1.807419,0.82709 -2.75,1.140625 l 0.638672,2.382812 -2.351563,0.628906 -0.638671,-2.384765 c -0.972824,0.200019 -1.959712,0.330372 -2.951172,0.388672 v 2.46875 h -2.431641 v -2.46875 c -0.99146,-0.0583 -1.978349,-0.188653 -2.951172,-0.388672 l -0.638672,2.384765 -2.349609,-0.628906 0.636719,-2.382812 c -0.942581,-0.313535 -1.860247,-0.695013 -2.748047,-1.140625 l -1.234375,2.136718 -2.105469,-1.214843 1.232422,-2.138672 c -0.829548,-0.546376 -1.616864,-1.152687 -2.359375,-1.8125 l -1.746094,1.746094 -1.71875,-1.720704 1.744141,-1.74414 c -0.659816,-0.742513 -1.266122,-1.53178 -1.8125,-2.361328 l -2.136719,1.234375 -1.216797,-2.107422 2.138672,-1.232422 c -0.445613,-0.8878 -0.827094,-1.80742 -1.140625,-2.75 l -2.382812,0.638672 -0.63086,-2.34961 2.384766,-0.640625 C 46.719903,75.204911 46.589547,74.219975 46.53125,73.228516 H 44.0625 v -2.433594 h 2.46875 c 0.0583,-0.99146 0.188653,-1.976396 0.388672,-2.949219 l -2.384766,-0.640625 0.63086,-2.349609 2.382812,0.638672 c 0.313531,-0.942581 0.695012,-1.8622 1.140625,-2.75 l -0.65625,-0.378907 -0.08594,0.320313 -1.3125,-0.351563 0.179687,-0.671875 -0.263672,-0.152343 0.31836,-0.548828 c -0.484057,-0.167001 -0.956193,-0.365886 -1.414063,-0.595704 l -0.689453,1.19336 -1.177734,-0.679688 0.689453,-1.193359 c -0.463571,-0.305329 -0.903427,-0.644952 -1.31836,-1.013672 l -0.976562,0.976563 -0.960938,-0.960938 0.97461,-0.976562 c -0.368721,-0.414933 -0.70639,-0.854789 -1.011719,-1.31836 l -1.195313,0.689453 -0.679687,-1.177734 1.195313,-0.689453 c -0.249019,-0.496124 -0.461511,-1.010373 -0.636719,-1.53711 l -1.332031,0.357422 -0.351563,-1.3125 1.332031,-0.357422 C 39.204628,51.821598 39.132186,51.270848 39.099606,50.716797 H 37.7207 v -1.359375 h 1.378906 c 0.03258,-0.554051 0.105022,-1.106754 0.216797,-1.650391 l -1.332031,-0.357422 0.351563,-1.3125 1.332031,0.357422 c 0.175208,-0.526736 0.3877,-1.040985 0.636719,-1.537109 l -1.195313,-0.689453 0.679687,-1.177735 1.195313,0.689454 c 0.305329,-0.463572 0.642998,-0.903427 1.011719,-1.31836 l -0.97461,-0.974609 0.960938,-0.962891 0.976562,0.976563 c 0.414933,-0.368721 0.854789,-0.708343 1.31836,-1.013672 l -0.689453,-1.19336 1.177734,-0.679687 0.689453,1.193359 c 0.496124,-0.249019 1.00842,-0.46151 1.535156,-0.636719 l -0.355468,-1.332031 1.3125,-0.351562 0.357422,1.332031 c 0.543635,-0.111775 1.094386,-0.184217 1.648437,-0.216797 z m -0.853516,3.767578 c -3.019335,0.510115 -5.593596,2.475497 -6.880859,5.253906 l 5.921875,0.494141 z m 3.06836,0 0.957031,5.748047 5.923828,-0.494141 C 57.761565,43.366122 55.187304,41.40074 52.167969,40.890625 Z m 27.46289,2.123047 a 3.3982282,3.3982282 0 0 0 -3.398437,3.398437 3.3982282,3.3982282 0 0 0 3.398437,3.398438 3.3982282,3.3982282 0 0 0 3.398438,-3.398438 3.3982282,3.3982282 0 0 0 -3.398438,-3.398437 z m -28.998047,3.625 a 3.3982282,3.3982282 0 0 0 -3.398437,3.398437 3.3982282,3.3982282 0 0 0 3.398437,3.396485 3.3982282,3.3982282 0 0 0 3.398438,-3.396485 3.3982282,3.3982282 0 0 0 -3.398438,-3.398437 z m -9.25,2.566406 c -0.02479,0.276297 -0.03713,0.554624 -0.03711,0.832031 -7.2e-5,2.546219 1.044592,4.980696 2.890625,6.734375 l 2.544922,-5.601562 z m 18.501954,0 -5.400391,1.964844 0.535156,1.175781 1.650391,-0.955078 1.234375,2.138672 c 0.52114,-0.261576 1.052719,-0.500312 1.59375,-0.716797 0.27838,-0.889601 0.423855,-1.825073 0.423828,-2.775391 2.6e-5,-0.277407 -0.01232,-0.555734 -0.03711,-0.832031 z m 14.388672,1.00586 -0.583985,2.177734 c 0.942581,0.31353 1.8622,0.695012 2.75,1.140625 l 0.619141,-1.074219 a 6.5699079,6.5699079 0 0 1 -2.785156,-2.24414 z m -23.640626,4.128906 -3.732421,4.201172 c 1.176949,0.516576 2.447096,0.783279 3.732421,0.783203 0.07209,-3.47e-4 0.144817,-0.0019 0.216797,-0.0039 0.277731,-0.357244 0.566418,-0.704503 0.867188,-1.042968 l -1.744141,-1.746094 1.404297,-1.404297 z m 13.792969,1.30664 c -0.846927,0.143088 -1.674601,0.350548 -2.476562,0.617188 l -0.472657,0.818359 -0.673828,-0.388672 h -0.002 c -0.374782,0.15617 -0.742539,0.325356 -1.103515,0.507813 -0.137569,0.174013 -0.280132,0.343663 -0.427735,0.509766 l 0.97461,0.976562 -0.960938,0.960938 -0.974609,-0.976563 c -0.414933,0.36872 -0.856742,0.708343 -1.320313,1.013672 l 0.689453,1.193359 -1.175781,0.679688 -0.689453,-1.19336 c -0.262777,0.131896 -0.530625,0.253946 -0.802734,0.365235 -0.212361,0.228832 -0.41755,0.463995 -0.617188,0.705078 l 0.240234,0.898437 -1.15039,0.306641 c -2.95e-4,4.3e-4 2.95e-4,0.0015 0,0.002 -0.517991,0.756222 -0.977107,1.56009 -1.369141,2.40625 l 10.597657,0.88086 z m 5.492188,0 1.71289,10.283204 10.59961,-0.88086 c -2.303525,-4.97189 -6.90948,-8.489506 -12.3125,-9.402344 z m -2.746094,10.283204 a 6.0810397,6.0810406 0 0 0 -6.082031,6.082031 6.0810397,6.0810406 0 0 0 6.082031,6.080078 6.0810397,6.0810406 0 0 0 6.080078,-6.080078 6.0810397,6.0810406 0 0 0 -6.080078,-6.082031 z m -16.554687,4.59375 c -0.04437,0.494425 -0.06841,0.991868 -0.06836,1.488281 -1.29e-4,4.556392 1.8704,8.912621 5.173828,12.050781 l 4.556641,-10.023438 z m 33.109374,0 -9.664062,3.515624 4.556641,10.023438 c 3.303428,-3.13816 5.173955,-7.494389 5.173828,-12.050781 4.5e-5,-0.496413 -0.02205,-0.993856 -0.06641,-1.488281 z m -16.554687,9.191406 -6.681641,7.515625 c 2.10612,0.924395 4.381586,1.402479 6.681641,1.402343 2.402314,-0.01156 4.772353,-0.544426 6.949219,-1.560546 z" />
</svg>