<?xml version="1.0" encoding="UTF-8" standalone="no"?>
<svg
   id="hud_obj_status_sentry_1"
   width="128"
   height="128"
   viewBox="0 0 128 128"
   version="1.1"
   xml:space="preserve"
   xmlns="http://www.w3.org/2000/svg"
   xmlns:svg="http://www.w3.org/2000/svg"><defs
     id="defs1"><style
       id="style1">
      .cls-1 {
        fill: #fff;
        fill-rule: evenodd;
      }
    </style></defs><path
     id="Shape_4_copy_9"
     class="cls-1"
     d="m 41,46 a 50.352,50.352 0 0 0 -15,2 l -0.300781,3 H 51.117188 L 51,50 a 2,2 0 0 1 2,-2 h 2 c 0,0 -4.806,-2 -14,-2 z m 12,4 2,17 h 4.181641 L 60,58 v -8 z m 9,0 v 4 h 7 a 4,4 0 0 1 4,4 l 0.818359,9 H 83 V 50 Z M 25.5,53 25,58 h 1.982422 v -5 z m 1.482422,5 v 5 h 5 v -5 z m 5,0 h 5 v -5 h -5 z m 5,0 v 5 h 5 v -5 z m 5,0 h 5 v -5 h -5 z m 5,0 v 5 h 5 V 58.349609 L 51.941406,58 Z M 85,55 v 9 h 9 v -9 h -3 v 6 h -2 v -6 z m -21,1 a 2,2 0 0 0 -2,2 l -1,11 h -1 l -1,3 H 74 L 73,69 H 72 L 71,58 a 2,2 0 0 0 -2,-2 z m 2.337891,1.003906 A 3.5,3.5 0 1 1 66.5,64 3.5,3.5 0 0 1 63,60.5 3.5,3.5 0 0 1 66.337891,57.003906 Z M 66.5,59 A 1.5,1.5 0 0 0 65,60.5 1.5,1.5 0 1 0 66.5,59 Z M 24.300781,65 24,68 h 6 l 3,2 h 17 l 3,-2 h 0.277344 A 1.98,1.98 0 0 1 53,67 l -0.234375,-2 z m 10.931641,7 A 5.483,5.483 0 0 0 40.5,76 c 0.156,0 0.299125,-0.03387 0.453125,-0.04687 L 45.625,80.625 a 4.987,4.987 0 0 1 2,-2 L 43.841797,74.841797 A 5.526,5.526 0 0 0 45.765625,72 Z M 55,74 50.908203,78.091797 a 4.991,4.991 0 0 1 4,4 L 59,78 h 2 v 3 l -3,1 v 2 h 4 v 2.667969 L 63,87 73,82.714844 V 82 l -3,-1 v -7 z m -5,6 a 3,3 0 0 0 -3,3 3,3 0 1 0 3,-3 z m 27,3 -14,6 -3,-1 -4,2 c 0,0 0.495844,1.100078 1.089844,2.455078 L 52,95 l 2,4 4.841797,-2.419922 C 58.900797,96.737078 58.958,96.882 59,97 a 4.343,4.343 0 0 1 -2,5 c -1.827,1.217 -9.646703,5.79342 -9.970703,5.98242 L 51,116 c 0,0 11.657,-5.833 19,-9.5 v -2.19922 A 11.966,11.966 0 0 1 66,105 a 1.5,1.5 0 0 1 0,-3 9.01,9.01 0 0 0 2.611328,-0.38867 l -2.667969,-2.667971 a 4.489,4.489 0 1 1 5,-5 l 3.091797,3.091797 a 8.975,8.975 0 0 0 0.09961,-7.890625 l 0.01758,-0.0078 A 1.474,1.474 0 0 1 74,88.5 1.5,1.5 0 0 1 75.5,87 a 1.483,1.483 0 0 1 1.410156,1.056641 l 0.02344,-0.0059 a 11.961,11.961 0 0 1 -0.175782,10.242188 l 2.294922,0.382812 A 14.526,14.526 0 0 0 80,93 C 80,84.8 77,83 77,83 Z M 66.384766,92.001953 A 2.5,2.5 0 0 0 64,94.5 2.5,2.5 0 0 0 66.5,97 2.5,2.5 0 1 0 66.384766,92.001953 Z m 4.123046,4.505859 a 4.492,4.492 0 0 1 -2,2 L 72,102 v 4 l 11,11 -2,2 2,2 11,-9 -2,-2 -2,2 -11,-11 -5,-1 z M 70,108.75391 61,113.23828 V 116 h 9 z M 46.072266,110.55664 37,116 a 7.483,7.483 0 0 0 -5,-2 c -5.366,0 -14,11 -14,11 h 6 c 0,0 5.071,-6 9,-6 a 4.837,4.837 0 0 1 4,2 h 2 l 9.439453,-5.66406 z M 24,111 l -9,5 4,2 8,-4 z m 66.5,7.00195 A 2.5,2.5 0 0 0 88.050781,121 H 88 l -3,1 v 4 h 11 v -4 l -3,-1 H 92.94922 A 2.5,2.5 0 0 0 90.5,118.00195 Z" /><path
     id="path1"
     style="fill:#ffffff;stroke-width:7;stroke-linecap:round;stroke-miterlimit:12.7;paint-order:stroke fill markers"
     d="m 33.400391,43 0.732421,1.833984 c 2.280239,-0.263325 4.579532,-0.375471 6.88086,-0.333984 2.190555,5.37e-4 4.150678,0.114744 5.86914,0.291016 L 47.599609,43 Z" /><path
     id="path2"
     style="fill:#ffffff;stroke-width:7;stroke-linecap:round;stroke-miterlimit:12.7;paint-order:stroke fill markers"
     d="M 43.867188,25.988281 C 43.664718,25.985266 43.458126,25.990832 43.25,26 h -5.5 c -2.012476,0.101328 -3.224347,1.053298 -3.5,3 l -2,8 h 16.5 l -2,-8 c -0.243037,-2.550258 -1.465527,-2.990615 -2.882812,-3.011719 z" /><path
     style="fill:#ffffff;stroke-width:7;stroke-linecap:round;stroke-miterlimit:12.7;paint-order:stroke fill markers"
     d="m 31,38 1,4 h 17 l 1,-4 z"
     id="path3" /></svg>
