<svg id="hud_obj_status_haul_128" width="128" height="128" viewBox="0 0 128 128">
  <defs>
    <style>
      .cls-1 {
        fill: #fff;
        fill-rule: evenodd;
      }
    </style>
  </defs>
  <path id="Ellipse_1_copy_5" data-name="Ellipse_1_copy_5" class="cls-1" d="M 62.166016,28.046875 C 53.440746,28.494058 44.979842,32.110002 38.544922,38.544922 28.24905,48.840794 25.168451,64.325349 30.740234,77.777344 36.312029,91.229366 49.439375,100 64,100 83.882251,100 100,83.882251 100,64 100,49.439375 91.229366,36.312029 77.777344,30.740234 72.732846,28.650816 67.401177,27.778565 62.166016,28.046875 Z m -7.310547,11.908203 h 18.289062 c 1.680736,0.0062 3.040608,1.366139 3.046875,3.046875 v 4.572266 h 6.095703 v 4.572265 h -7.61914 c -1.680736,-0.0062 -3.04256,-1.368092 -3.048828,-3.048828 V 44.525391 H 56.380859 v 4.572265 c -0.0062,1.680736 -1.368092,3.04256 -3.048828,3.048828 h -7.61914 v -4.572265 h 6.095703 v -4.572266 c 0.0062,-1.680736 1.366139,-3.040607 3.046875,-3.046875 z M 39.617188,55.193359 h 48.796874 l 3.017579,6.095703 -0.761719,4.572266 H 70.400391 l 1.21875,-6.095703 H 57.904297 l 1.21875,6.095703 H 37.330078 l -0.761719,-4.572266 z m -1.779297,13.716797 h 21.894531 l 1.21875,6.095703 h 7.621094 l 1.21875,-6.095703 H 90.162109 L 88.382812,79.578125 H 39.617188 Z" />
</svg>
