<?xml version="1.0" encoding="UTF-8" standalone="no"?>
<svg
   id="hud_obj_status_ammo_128"
   width="128"
   height="128"
   viewBox="0 0 128 128"
   version="1.1"
   xmlns="http://www.w3.org/2000/svg"
   xmlns:svg="http://www.w3.org/2000/svg">
  <defs
     id="defs1">
    <style
       id="style1">
      .cls-1 {
        fill: #fff;
        fill-rule: evenodd;
      }
    </style>
  </defs>
  <path
     id="rect1"
     style="fill:#ffffff;fill-opacity:1;stroke-width:4.6077;stroke-linecap:round;stroke-miterlimit:12.7;paint-order:stroke fill markers"
     d="M 64,28 A 36,36 0 0 0 28,64 36,36 0 0 0 63.999999,99.999998 36,36 0 0 0 99.999998,63.999999 36,36 0 0 0 64,28 Z m 0,8 a 28,28 0 0 1 16.767578,5.576172 L 41.576172,80.767578 A 28,28 0 0 1 36,64 28,28 0 0 1 64,36 Z M 86.423828,47.232422 A 28,28 0 0 1 92.000002,64.000001 28,28 0 0 1 64.000001,92.000002 28,28 0 0 1 47.232422,86.423828 Z" />
</svg>
