<?xml version="1.0" encoding="UTF-8" standalone="no"?>
<!-- Created with Inkscape (http://www.inkscape.org/) -->

<svg
   width="64mm"
   height="64mm"
   viewBox="0 0 64 64"
   version="1.1"
   id="svg1"
   xml:space="preserve"
   xmlns:inkscape="http://www.inkscape.org/namespaces/inkscape"
   xmlns:sodipodi="http://sodipodi.sourceforge.net/DTD/sodipodi-0.dtd"
   xmlns="http://www.w3.org/2000/svg"
   xmlns:svg="http://www.w3.org/2000/svg"><sodipodi:namedview
     id="namedview1"
     pagecolor="#808080"
     bordercolor="#000000"
     borderopacity="0.25"
     inkscape:showpageshadow="2"
     inkscape:pageopacity="0.0"
     inkscape:pagecheckerboard="0"
     inkscape:deskcolor="#d1d1d1"
     inkscape:document-units="mm"
     showgrid="false"><inkscape:grid
       id="grid1"
       units="mm"
       originx="0"
       originy="0"
       spacingx="0.99999997"
       spacingy="0.99999997"
       empcolor="#0099e5"
       empopacity="0.30196078"
       color="#0099e5"
       opacity="0.14901961"
       empspacing="5"
       enabled="true"
       visible="false" /><inkscape:page
       x="0"
       y="0"
       width="64"
       height="64"
       id="page2"
       margin="0"
       bleed="0" /></sodipodi:namedview><defs
     id="defs1" /><g
     inkscape:label="Layer 1"
     inkscape:groupmode="layer"
     id="layer1"><path
       id="path1"
       style="display:inline;fill:#ffffff;stroke-width:0.600001;stroke-linejoin:round"
       d="M 35.637101,0 28.386898,14.405839 24.301359,10.178707 23.946859,16.43724 9.0449259,10.225732 15.563391,24.584546 10.3203,25.29303 14.760339,29.166178 0,37.219434 l 15.917375,4.062284 -2.597775,4.156335 5.21932,-0.992187 -2.952274,16.64963 13.555761,-10.461894 1.818494,5.006413 2.125452,-3.896403 10.88719,12.256616 0.307475,-17.735868 5.691126,1.983858 -1.747181,-3.920174 15.775265,-0.75551 -13.484965,-11.288716 5.455481,-3.589962 -4.53409,-1.393197 8.548832,-12.233362 -16.224333,3.353284 0.803052,-6.75411 -4.652429,3.377055 z m -0.877466,7.3907633 3.244247,11.4199747 3.798734,-2.755904 -0.646472,5.429643 12.263851,-2.535246 -6.515881,9.323979 3.732588,1.1467 -4.332035,2.851505 10.202995,8.541081 -11.939323,0.572058 1.490348,3.346049 -4.669999,-1.627291 -0.232544,13.38678 -8.243941,-9.27902 -1.781287,3.269568 -1.498099,-4.12688 -10.277409,7.931299 2.228804,-12.57391 -4.295345,0.815971 2.197282,-3.513481 -12.0741983,-3.079915 11.1331703,-6.074565 -3.56464,-3.107304 4.336169,-0.58601 -4.965071,-10.937317 11.285099,4.703072 0.285254,-5.06429 3.335714,3.450952 z m -0.392224,4.1129277 -4.719092,9.377205 -2.421557,-2.50579 -0.212907,3.755843 -9.722921,-4.052983 4.224549,9.304859 -3.056661,0.411861 2.695442,2.349727 -9.671761,5.279265 10.363192,2.644799 -1.465027,2.345594 3.060795,-0.581877 -1.933732,10.896493 8.832019,-6.816639 1.064535,2.931604 1.214913,-2.22467 7.103442,7.997961 0.201021,-11.613244 3.351734,1.168404 -0.972551,-2.179712 10.296529,-0.494544 -8.80463,-7.371126 3.357418,-2.208651 -2.658236,-0.816487 5.535579,-7.917863 -10.607621,2.191081 0.486275,-4.093807 -2.759521,2.006079 z" /><path
       style="display:none;opacity:1;fill:#ffffff;stroke-width:0.422879;stroke-linejoin:round"
       d="m 34.563534,9.4464945 3.012705,10.6027225 3.279021,-2.380203 -0.565922,4.760407 11.434962,-2.363558 -6.02541,8.621995 3.195798,0.982041 -3.844944,2.530006 9.504168,7.956204 -11.118712,0.532633 1.231713,2.763032 -4.011391,-1.39816 -0.216381,12.499892 -7.673243,-8.638304 -1.498031,2.746388 -1.281646,-3.528693 -9.554103,7.373638 2.080598,-11.73457 -3.678497,0.699082 1.830926,-2.929482 -11.2185801,-2.862901 10.4029861,-5.675869 -3.129218,-2.729744 3.695141,-0.499343 -4.593959,-10.120025 10.502854,4.377577 0.249672,-4.410866 2.879546,2.979415 z"
       id="path2"
       sodipodi:nodetypes="ccccccccccccccccccccccccccccc"
       inkscape:transform-center-x="-16.248092"
       inkscape:transform-center-y="15.303435" /></g></svg>
