<?xml version="1.0" encoding="UTF-8" standalone="no"?>
<!-- Created with Inkscape (http://www.inkscape.org/) -->

<svg
   width="68.881081mm"
   height="51.222542mm"
   viewBox="0 0 68.881081 51.222542"
   version="1.1"
   id="svg1"
   xml:space="preserve"
   xmlns="http://www.w3.org/2000/svg"
   xmlns:svg="http://www.w3.org/2000/svg"><defs
     id="defs1" /><g
     id="layer1"
     transform="translate(-68.767313,-121.93448)"><g
       id="g3"
       style="display:inline;fill:#ffffff;fill-opacity:1"
       transform="rotate(-52.035758,130.27245,142.69154)"><path
         id="rect1"
         style="display:inline;fill:#ffffff;fill-opacity:1;stroke-width:0.600001;stroke-linejoin:round"
         d="m 90.9,95.4 h 28.8 v 13 H 90.9 Z" /><path
         id="rect2"
         style="display:inline;fill:#ffffff;fill-opacity:1;stroke-width:1.70392;stroke-linejoin:round"
         d="m 98.3,93.249031 h 14 v 16.699999 h -14 z" /><path
         id="rect3"
         style="fill:#ffffff;fill-opacity:1;stroke-width:0.600001;stroke-linejoin:round"
         d="m 101,109 h 8.6 v 45.7 H 101 Z" /></g><g
       id="g5"
       transform="rotate(52.020998,80.292121,142.53443)"
       style="fill:#ffffff;fill-opacity:1"><path
         id="rect4"
         style="opacity:1;fill:#ffffff;fill-opacity:1;stroke-width:0.852814;stroke-linejoin:round"
         d="m 109.69925,92.784517 v 7.915283 l -4.65605,2.85099 -4.89634,-2.85099 v -7.75922 a 8.75,8.75 0 0 0 -3.85403,7.25227 8.75,8.75 0 0 0 4.37544,7.57783 v 43.22165 c 0,6.63358 8.6,6.58097 8.6,0 v -43.13741 a 8.75,8.75 0 0 0 4.52478,-7.66207 8.75,8.75 0 0 0 -4.0938,-7.408333 z m -4.7315,55.862743 a 3,3 0 0 1 3.00034,2.99981 3,3 0 0 1 -3.00034,2.99982 3,3 0 0 1 -2.99981,-2.99982 3,3 0 0 1 2.99981,-2.99981 z" /></g></g></svg>
