<?xml version="1.0" encoding="UTF-8" standalone="no"?>
<svg
   id="hud_obj_status_teleport_128"
   width="54"
   height="34"
   viewBox="0 0 54 34"
   version="1.1"
   xmlns="http://www.w3.org/2000/svg"
   xmlns:svg="http://www.w3.org/2000/svg">
  <defs
     id="defs1">
    <style
       id="style1">
      .cls-1 {
        fill: #fff;
        fill-rule: evenodd;
      }
    </style>
  </defs>
  <path
     id="Ellipse_2_copy_3"
     class="cls-1"
     d="M 27,0 C 12.088,0 0,3.582 0,8 0,9.669 1.728688,11.218 4.679688,12.5 1.728687,13.782 0,15.331 0,17 0,18.669 1.728688,20.218 4.679688,21.5 1.728687,22.782 0,24.331 0,26 c 0,4.418 12.088,8 27,8 14.912,0 27,-3.582 27,-8 0,-1.669 -1.728687,-3.218 -4.679688,-4.5 C 52.271313,20.218 54,18.669 54,17 54,15.331 52.271313,13.782 49.320312,12.5 52.271313,11.218 54,9.669 54,8 54,3.582 41.912,0 27,0 Z m 0,2 c 11.046,0 20,2.462 20,5.5 0,1.173 -1.346094,2.257391 -3.621094,3.150391 h -0.002 A 75.873,75.873 0 0 0 27,9 75.873,75.873 0 0 0 10.621094,10.650391 C 8.346094,9.757391 7,8.673 7,7.5 7,4.462 15.954,2 27,2 Z m 0,9 A 61.793,61.793 0 0 1 38.476562,12 61.8,61.8 0 0 1 27,13 61.8,61.8 0 0 1 15.523438,12 61.792,61.792 0 0 1 27,11 Z M 9.195312,14 A 72.96,72.96 0 0 0 27,16 72.96,72.96 0 0 0 44.804688,14 C 46.199687,14.753 47,15.6 47,16.5 c 0,1.173 -1.346094,2.257391 -3.621094,3.150391 A 75.873,75.873 0 0 0 27,18 75.873,75.873 0 0 0 10.621094,19.650391 C 8.346094,18.757391 7,17.673 7,16.5 7,15.6 7.800312,14.753 9.195312,14 Z M 27,20 A 61.793,61.793 0 0 1 38.476562,21 61.8,61.8 0 0 1 27,22 61.8,61.8 0 0 1 15.523438,21 61.792,61.792 0 0 1 27,20 Z M 9.195312,23 A 72.96,72.96 0 0 0 27,25 72.96,72.96 0 0 0 44.804688,23 C 46.199687,23.753 47,24.6 47,25.5 47,28.538 38.046,31 27,31 15.954,31 7,28.538 7,25.5 7,24.6 7.800312,23.753 9.195312,23 Z" />
</svg>
