<?xml version="1.0" encoding="UTF-8" standalone="no"?>
<svg
   version="1.1"
   id="Logo"
   x="512px"
   y="256px"
   viewBox="0 0 512 256"
   xml:space="preserve"
   width="512"
   height="256"
   sodipodi:docname="tf2classified_logo_fg.svg"
   inkscape:version="1.4.2 (f4327f4, 2025-05-13)"
   xmlns:inkscape="http://www.inkscape.org/namespaces/inkscape"
   xmlns:sodipodi="http://sodipodi.sourceforge.net/DTD/sodipodi-0.dtd"
   xmlns="http://www.w3.org/2000/svg"
   xmlns:svg="http://www.w3.org/2000/svg"><sodipodi:namedview
     id="namedview1"
     pagecolor="#ffffff"
     bordercolor="#000000"
     borderopacity="0.25"
     inkscape:showpageshadow="2"
     inkscape:pageopacity="0.0"
     inkscape:pagecheckerboard="0"
     inkscape:deskcolor="#d1d1d1"
     inkscape:zoom="2.1710388"
     inkscape:cx="198.06187"
     inkscape:cy="136.34026"
     inkscape:window-width="1920"
     inkscape:window-height="1017"
     inkscape:window-x="-8"
     inkscape:window-y="-8"
     inkscape:window-maximized="1"
     inkscape:current-layer="Logo" /><defs
     id="defs23" /><style
     type="text/css"
     id="style1">.st1{fill:#e8dbae}.st2{fill:#c1592b}</style><linearGradient
     id="SVGID_1_"
     gradientUnits="userSpaceOnUse"
     x1="369.4259"
     y1="1242.15"
     x2="369.4259"
     y2="1451.71"
     gradientTransform="matrix(0.69289385,0,0,0.69289385,0.02072924,-804.64421)"><stop
       offset="0"
       stop-color="#4a2a13"
       id="stop1"
       style="stop-color:#8c8c8c;stop-opacity:1;" /><stop
       offset="1"
       stop-color="#230e0b"
       id="stop2"
       style="stop-color:#545454;stop-opacity:1;" /></linearGradient><g
     id="g12"
     transform="matrix(0.69289385,0,0,0.69289385,0.02072924,52.271469)"
     style="display:inline"><path
       class="st1"
       d="m 78,172.2 v -55 c 0,-7.5 3.8,-13 9.2,-13 h 18.1 v 81.1 h -18 C 81.9,185.2 78,179.7 78,172.2 m 32.2,-68 h 24.2 c 5.4,0 9.2,5.6 9.2,13 v 22.4 h -27 v -11.3 c 0,-4.2 -2.2,-5.9 -5.7,-5.9 h -0.7 z m 0.9,62.7 c 3.4,0 5.5,-1.6 5.5,-5.8 v -11.3 h 27 v 22.4 c 0,7.5 -3.9,13 -9.2,13 h -24.2 v -18.3 z"
       id="path3"
       style="fill:#dbdbdb;fill-opacity:1" /><path
       class="st1"
       d="m 152.3,104.2 h 27.4 v 81.1 h -27.4 z m 32.1,57.7 h 20.2 v 23.3 h -20.2 z"
       id="path4"
       style="fill:#dbdbdb;fill-opacity:1" /><path
       class="st1"
       d="m 228,104.2 h 6.7 l 7.3,38.8 -0.1,0.2 -0.5,2.5 -1.6,8 h 0.1 l -5.1,26.5 -1,5 H 211 Z m 39.1,0 17,81.1 H 255 l -2.7,-13 h -10.9 l 3.6,-18.4 h 4.1 l -2.8,-14 -6.7,-35.6 c 0,-0.1 27.5,-0.1 27.5,-0.1"
       id="path5"
       style="fill:#dbdbdb;fill-opacity:1" /><path
       class="st1"
       d="m 289.8,172.2 v -10.3 h 27.1 v 1.1 c 0,4 1.4,6.3 5.2,6.3 h 0.2 v 15.9 H 299 c -5.4,0 -9.2,-5.5 -9.2,-13 m 32.2,-41.1 22.8,4.4 c 5.7,1.1 9.4,6.3 9.4,14.8 v 21.9 c 0,7.5 -3.9,13 -9.3,13 H 327 v -21.7 c 0,-3.9 -1.2,-5.6 -5,-6.3 l -22.8,-4.4 c -5.6,-1.1 -9.4,-6 -9.4,-14 v -21.5 c 0,-7.5 3.9,-13 9.2,-13 h 18 v 21.4 c 0,3.1 1.1,4.6 5,5.4 m -0.2,-26.9 H 345 c 5.4,0 9.3,5.6 9.3,13 v 10.3 h -27 v -1.1 c 0,-4 -1.4,-6.3 -5.2,-6.3 h -0.2 z"
       id="path6"
       style="fill:#dbdbdb;fill-opacity:1" /><path
       class="st1"
       d="m 426.6,117.2 v 10.3 h -27.1 v -1.1 c 0,-4 -1.4,-6.3 -5.2,-6.3 h -0.2 v -15.8 h 23.3 c 5.4,-0.1 9.2,5.4 9.2,12.9 m -32.2,41.1 -22.8,-4.4 c -5.7,-1.1 -9.4,-6.3 -9.4,-14.8 v -21.8 c 0,-7.5 3.9,-13 9.3,-13 h 17.9 V 126 c 0,3.8 1.2,5.5 5,6.3 l 22.8,4.4 c 5.6,1.1 9.4,6 9.4,14 v 21.5 c 0,7.5 -3.9,13 -9.2,13 h -17.9 v -21.4 c -0.1,-3.1 -1.2,-4.7 -5.1,-5.5 m 0.2,26.9 h -23.2 c -5.4,0 -9.3,-5.6 -9.3,-13 v -10.3 h 27 v 1.1 c 0,4 1.4,6.3 5.2,6.3 h 0.2 z"
       id="path7"
       style="fill:#dbdbdb;fill-opacity:1" /><path
       class="st1"
       d="m 435.1,104.2 h 27.7 v 81.1 h -27.7 z"
       id="path8"
       style="fill:#dbdbdb;fill-opacity:1" /><path
       class="st1"
       d="m 471.7,104.2 h 27.4 v 81.1 h -27.4 z m 32.2,0 h 22.2 v 19.6 h -22.2 z m 0,30.2 H 524 v 18.4 h -20.2 z"
       id="path9"
       style="fill:#dbdbdb;fill-opacity:1" /><path
       class="st1"
       d="m 561.8,185.2 h -27.7 v -81.1 h 27.7 z"
       id="path10"
       style="fill:#dbdbdb;fill-opacity:1" /><path
       class="st1"
       d="M 570.8,104.2 H 598 v 81.1 h -27.2 z m 31.9,0 h 24.7 v 19.6 h -24.7 z m 0,30.2 h 20.8 v 18.4 h -20.8 z m 0,31.2 h 24.7 v 19.6 h -24.7 z"
       id="path11"
       style="fill:#dbdbdb;fill-opacity:1" /><path
       class="st1"
       d="m 635.8,104.2 h 27 v 81.1 h -27 z m 38.1,40.3 c 0,-18.1 -2.8,-20.7 -6.1,-20.7 h -0.2 v -19.6 h 24.1 c 5.4,0 9.2,5.6 9.2,13 v 55 c 0,7.5 -3.8,13 -9.2,13 h -24.1 v -19.6 h 0.2 c 3.5,0 6.1,-2.4 6.1,-21.1"
       id="path12"
       style="fill:#dbdbdb;fill-opacity:1" /></g><path
     d="m 126.82031,73.127569 -1.24721,9.70052 c -1.73224,0.48503 -3.18731,1.59365 -4.08808,3.18731 l -9.70051,-1.24721 -0.83147,-1.10862 c 2.35584,-6.44391 8.24543,-11.01702 15.10508,-11.64062 z m 6.72107,-0.13857 -1.10863,0.83147 -1.24722,9.70052 c 1.52437,0.90075 2.63301,2.42513 3.18732,4.08807 l 9.70051,1.24721 1.10864,-0.83148 c -0.62361,-6.72106 -5.12742,-12.67996 -11.64062,-15.03579 m -12.81853,18.63884 -9.70052,-1.2472 -1.10863,0.83147 c 0.6236,6.85965 5.12741,12.749241 11.64062,15.105081 l 1.10862,-0.83147 1.24721,-9.700511 c -1.59365,-0.97005 -2.70228,-2.42513 -3.1873,-4.15737 m 22.58834,2.97945 -9.70053,-1.24721 c -0.90076,1.52436 -2.42513,2.633 -4.08807,3.18731 l -1.24721,9.700511 0.83148,1.10863 c 6.85964,-0.6236 12.74924,-5.12741 15.10508,-11.640621 z"
     fill="#e7daad"
     id="path23"
     style="display:inline;fill:#dbdbdb;fill-opacity:1;stroke-width:0.692894" /></svg>
