<?xml version="1.0" encoding="UTF-8" standalone="no"?>
<svg
   version="1.1"
   id="Logo"
   x="512px"
   y="256px"
   viewBox="0 0 512 256"
   xml:space="preserve"
   width="512"
   height="256"
   sodipodi:docname="tf2classified_logo_bg.svg"
   inkscape:version="1.4.2 (f4327f4, 2025-05-13)"
   xmlns:inkscape="http://www.inkscape.org/namespaces/inkscape"
   xmlns:sodipodi="http://sodipodi.sourceforge.net/DTD/sodipodi-0.dtd"
   xmlns="http://www.w3.org/2000/svg"
   xmlns:svg="http://www.w3.org/2000/svg"><sodipodi:namedview
     id="namedview1"
     pagecolor="#ffffff"
     bordercolor="#000000"
     borderopacity="0.25"
     inkscape:showpageshadow="2"
     inkscape:pageopacity="0.0"
     inkscape:pagecheckerboard="0"
     inkscape:deskcolor="#d1d1d1"
     inkscape:zoom="3.0703125"
     inkscape:cx="256"
     inkscape:cy="128"
     inkscape:window-width="1920"
     inkscape:window-height="1017"
     inkscape:window-x="-8"
     inkscape:window-y="-8"
     inkscape:window-maximized="1"
     inkscape:current-layer="Logo" /><defs
     id="defs23" /><style
     type="text/css"
     id="style1">.st1{fill:#e8dbae}.st2{fill:#c1592b}</style><linearGradient
     id="SVGID_1_"
     gradientUnits="userSpaceOnUse"
     x1="369.4259"
     y1="1242.15"
     x2="369.4259"
     y2="1451.71"
     gradientTransform="matrix(0.69289385,0,0,0.69289385,0.02072924,-804.64421)"><stop
       offset="0"
       stop-color="#4a2a13"
       id="stop1"
       style="stop-color:#8c8c8c;stop-opacity:1;" /><stop
       offset="1"
       stop-color="#230e0b"
       id="stop2"
       style="stop-color:#545454;stop-opacity:1;" /></linearGradient><path
     d="m 511.58426,153.2261 c -0.0693,-0.34645 -0.20786,-0.6236 -0.27715,-0.97005 -0.41574,-1.24721 -1.10863,-2.28655 -1.87082,-3.11802 l -20.92539,-20.78681 -10.39341,-10.39341 -0.13858,-0.13858 -0.13857,-0.13858 c -0.13859,-0.0693 -0.20787,-0.20787 -0.34645,-0.27715 -0.0693,-0.0693 -0.13859,-0.0693 -0.13859,-0.13859 -0.13857,-0.13858 -0.34644,-0.20786 -0.48502,-0.34644 -0.20786,-0.13858 -0.34645,-0.20787 -0.55431,-0.27716 -0.0693,0 -0.13859,-0.0693 -0.13859,-0.0693 -0.13857,-0.0693 -0.27715,-0.0693 -0.41573,-0.13859 -0.0693,0 -0.13857,-0.0693 -0.20787,-0.0693 -0.13857,-0.0693 -0.27715,-0.0693 -0.41574,-0.0693 h -40.11855 v 5.8896 l -5.8896,-5.8896 h -21.89544 c 3.74162,-6.37462 5.05813,-8.79974 5.05813,-11.57132 0,-15.105091 0.20786,-14.897221 -0.83147,-17.391641 -0.34645,-0.76218 -0.83148,-1.52437 -1.80153,-2.56371 -0.13858,-0.13859 -26.26067,-29.03226 -26.32997,-29.10155 -0.90076,-1.17792 -1.9401,-2.07868 -3.39518,-2.56371 -2.35583,-0.97005 -3.94949,-0.76218 -11.50204,-0.76218 -0.97004,0 -1.9401,0.0693 -2.91015,0.13858 -1.73224,0 -3.39518,0.41574 -4.85026,1.45508 -1.45507,1.10863 -2.00939,2.21726 -2.49441,3.8802 -0.48503,2.14797 -0.34645,2.633 -0.34645,13.30356 l -15.86727,-15.86726 c -1.10863,-1.3165 -2.91015,-2.00939 -4.5731,-2.14798 -4.08808,-0.27715 -7.96828,-0.27715 -11.98707,0.0693 -2.63299,0.27715 -5.1967,2.42513 -5.40457,5.05812 -0.27715,1.66295 -0.27715,2.28655 -0.27715,4.43453 l -7.34467,-7.34468 c -1.17793,-1.3165 -2.91016,-2.00939 -4.57311,-2.14797 -4.15736,-0.27715 -8.03757,-0.27715 -11.98707,0.0693 -3.04873,0.34645 -5.26599,2.77157 -5.40456,5.05812 -0.34645,2.07868 0.0693,1.38579 -0.6929,0.90077 -0.13857,-0.20787 -5.05812,-5.12742 -5.1967,-5.12742 -0.20787,-0.41574 -0.62361,-0.69289 -1.10863,-0.69289 H 269.8336 c -0.6929,0 -1.3165,0.6236 -1.3165,1.31649 v 8.86904 l -7.8297,-7.8297 c -0.55431,-0.6236 -1.10863,-1.03934 -1.80153,-1.38578 -1.66294,-0.76218 -2.70228,-0.90077 -3.81091,-0.90077 -0.6929,0 -1.10863,-0.0693 -2.42512,-0.0693 h -12.81855 c -0.69288,0 -1.3165,0.6236 -1.3165,1.3165 v 4.01879 c -0.13857,-0.20788 -4.57309,-4.6424 -4.71167,-4.71169 -0.20787,-0.41573 -0.69289,-0.69289 -1.10863,-0.69289 h -18.43098 c -0.76219,0 -1.31649,0.62361 -1.31649,1.3165 v 5.61244 c 0,0.48502 0.27715,1.17792 0.13857,1.03934 l -5.61243,-5.61245 c -0.55432,-0.6236 -1.10864,-1.03933 -1.80153,-1.38577 -2.49442,-1.10864 -1.80152,-0.97006 -19.05459,-0.97006 -0.69288,0 -1.31649,0.62361 -1.31649,1.3165 v 8.79975 l -8.24544,-8.24544 c -0.76218,-0.83147 -2.21726,-1.66294 -3.74163,-1.9401 q -6.54785,-1.03934 -13.09569,0 c -1.80153,0.41573 -3.46447,1.45508 -4.29594,3.04873 -0.62361,1.24722 -0.76219,1.9401 -0.90076,3.11803 l -5.54316,-5.54316 c -0.20786,-0.41574 -0.6236,-0.69289 -1.10862,-0.69289 h -14.62007 c -0.76218,0 -1.31649,0.6236 -1.31649,1.3165 v 20.64824 c -0.0693,-0.0693 -0.13858,-0.13859 -0.20787,-0.13859 -0.0693,-0.0693 -20.85611,-20.99468 -21.13326,-21.13326 -0.20787,-0.41574 -0.62361,-0.69289 -1.10864,-0.69289 H 98.688814 c -0.762184,0 -1.385788,0.6236 -1.455077,1.3165 -0.138579,1.24721 -0.415737,3.53376 -0.415737,3.88021 -0.06929,-0.0693 -4.365231,-4.36524 -4.50381,-4.43452 -0.277157,-0.41574 -0.762183,-0.6929 -1.247209,-0.6929 h -11.22488 c -0.762183,0 -1.316498,0.6236 -1.316498,1.3165 v 10.80918 L 66.677118,54.072999 c -0.277157,-0.41574 -0.762183,-0.6929 -1.247209,-0.6929 h -9.631225 c -0.762183,0 -1.385787,0.62361 -1.524366,1.3165 l -0.900762,8.10686 -8.938331,-8.86904 c -0.207868,-0.41574 -0.623604,-0.69289 -1.10863,-0.69289 H 28.983692 c -0.692893,0 -1.316498,0.6236 -1.316498,1.31649 v 4.01878 l -4.642389,-4.64238 c -0.207868,-0.41574 -0.623604,-0.69289 -1.10863,-0.69289 H 1.4065168 c -0.76218313,0.0693 -1.38578756,0.6236 -1.38578756,1.38579 0,7.06751 -0.20786815,7.27538 0.69289381,7.7604 0.0692893,0.0693 4.91954625,4.98884 5.12741445,5.12741 0.06929,0.0693 0.1385788,0.20788 0.2078681,0.27717 v 40.742161 c 0,0.48502 0.2771576,0.90075 0.6236045,1.10862 l 31.1802239,30.6952 h 5.265993 v 22.93479 c 0,2.35583 0.554315,4.36522 1.524366,5.95888 0.346447,0.55432 0.692895,0.97005 1.10863,1.38579 l 31.249513,31.24951 c 0.831473,0.76219 1.732235,1.3165 2.840865,1.52437 0.346447,0.0693 0.692894,0.13857 1.10863,0.13857 h 33.120329 c 0.41574,0 0.76218,-0.0693 1.10863,-0.13857 1.59366,-0.34645 2.91016,-1.38579 3.81092,-2.91016 0.20786,-0.27715 0.34645,-0.6236 0.55431,-0.97005 0.0693,-0.20787 0.20787,-0.48502 0.27716,-0.69289 0.20787,-0.48502 0.34645,-1.03934 0.48503,-1.66294 l 6.30533,6.30533 h 36.86196 v -4.36524 l 4.36522,4.36524 h 16.00585 l 1.80152,-9.00763 h 4.01879 l 9.00762,9.00763 h 20.50966 l -2.21726,-10.39341 8.73046,8.73046 0.20787,0.20787 c 0.76218,0.69289 1.66294,1.17792 2.63299,1.38579 0.34645,0.0693 0.69289,0.13857 1.10864,0.13857 h 32.28885 c 0.20787,0 0.48502,0 0.69289,-0.0693 3.46447,-0.41574 5.82031,-4.08807 5.82031,-9.00763 v -0.83147 l 7.82971,7.82971 0.20786,0.20786 0.13857,0.13859 0.20787,0.20786 c 0.76219,0.69289 1.66296,1.17792 2.633,1.38579 0.34645,0.0693 0.6929,0.13857 1.10863,0.13857 h 32.21957 c 0.55431,0 1.10863,-0.0693 1.66294,-0.27715 1.9401,-0.6236 3.39519,-2.28655 4.22666,-4.64239 l 0.20786,-0.6236 c 0.0693,-0.20787 0.13859,-0.41574 0.13859,-0.6929 l 6.23603,6.23604 h 19.47032 v -6.23604 l 6.23605,6.23604 h 19.26244 l -0.0693,-15.31295 h 9.35406 l 15.31296,15.31295 h 19.47032 v -6.23604 l 6.23604,6.23604 h 39.77211 v -5.75101 l 5.8896,5.8896 h 39.28708 c 0.20787,0 0.48502,0 0.69289,-0.0693 C 509.64416,203.18375 512,199.51141 512,194.59187 V 156.4827 c -0.0693,-1.10862 -0.20787,-2.21726 -0.41574,-3.2566"
     fill="url(#SVGID_1_)"
     id="path2"
     style="display:inline;fill:url(#SVGID_1_);stroke-width:0.692894" /><g
     id="g22"
     transform="matrix(0.69289385,0,0,0.69289385,0.02072924,52.271469)"
     style="display:inline"><polygon
       class="st2"
       points="223.3,13.3 198,13.3 198,92 213.8,92 213.8,55.3 223.3,55.3 223.3,43.9 213.8,43.9 213.8,24.7 223.3,24.7 "
       id="polygon12"
       style="fill:#ffffff;fill-opacity:1" /><polygon
       class="st2"
       points="168.3,83.6 168.3,13.3 150.1,13.3 145,48.9 139.8,13.3 121.5,13.3 121.5,83.6 135,83.6 135,43.2 135,43.1 135,43.2 140.6,83.6 149.1,83.6 154.8,43.1 154.8,83.6 "
       id="polygon13"
       style="fill:#ffffff;fill-opacity:1" /><polygon
       class="st2"
       points="22,24.9 22,92 22.1,92 37.9,92 37.9,24.9 46,24.9 46,13.3 13.9,13.3 13.9,24.9 "
       id="polygon14"
       style="fill:#ffffff;fill-opacity:1" /><polygon
       class="st2"
       points="134,43.1 134,43.2 "
       id="polygon15"
       style="fill:#ffffff;fill-opacity:1" /><polygon
       class="st2"
       points="65.2,50.7 74.1,50.7 74.1,39.3 65.2,39.3 65.2,24.7 74.1,24.7 74.1,13.3 50.4,13.3 50.4,83.6 74.1,83.6 74.1,72.2 65.2,72.2 "
       id="polygon16"
       style="fill:#ffffff;fill-opacity:1" /><path
       class="st2"
       d="M 87.9,13.3 79,83.6 h 13.7 l 1.1,-13.8 h 5.9 l 1.1,13.8 h 13.9 l -9,-70.2 c 0.1,-0.1 -17.8,-0.1 -17.8,-0.1 m 6.7,45 2.3,-27.1 2.2,27.1 z"
       id="path16"
       style="fill:#ffffff;fill-opacity:1" /><path
       class="st2"
       d="m 379,49.3 c 2.6,-0.9 4.4,-2.3 5.3,-4 q 1.5,-2.55 1.5,-10.2 v -7.3 c 0,-6.3 -1,-10.4 -3,-12 -2,-1.6 -6.6,-2.5 -13.8,-2.5 H 352.4 V 83.5 H 367 V 55.7 h 0.9 c 1.3,0 2.2,0.2 2.7,0.8 0.5,0.6 0.7,1.5 0.7,3 v 24.1 h 14.6 V 60.7 q 0,-5.25 -1.5,-7.8 -1.65,-2.55 -5.4,-3.6 M 371.2,40 c 0,1.1 -0.2,1.8 -0.6,2.2 -0.4,0.4 -1.2,0.6 -2.3,0.6 h -1.4 v -18 h 1.3 q 1.8,0 2.4,0.6 c 0.4,0.4 0.6,1.5 0.6,3.2 z"
       id="path17"
       style="fill:#ffffff;fill-opacity:1" /><polygon
       class="st2"
       points="408.9,50.7 417.7,50.7 417.7,39.3 408.9,39.3 408.9,24.7 417.7,24.7 417.7,13.3 394.2,13.3 394.2,83.6 417.7,83.6 417.7,72.2 408.9,72.2 "
       id="polygon17"
       style="fill:#ffffff;fill-opacity:1" /><path
       class="st2"
       d="m 500.7,15.1 c -2.1,-1.5 -6.7,-2.2 -13.8,-2.2 -7.5,0 -12.2,0.8 -14.1,2.5 -1.9,1.7 -2.9,5.6 -2.9,11.9 v 8.2 q 0,4.8 1.5,7.8 c 1.5,3 2.7,3.6 5,4.8 l 10,5.5 c 1.1,0.6 1.9,1.2 2.3,1.9 0.4,0.7 0.6,1.7 0.6,3.1 v 11.8 q 0,0.9 -0.6,1.5 c -0.4,0.4 -1,0.6 -1.6,0.6 -0.8,0 -1.4,-0.3 -1.7,-0.8 -0.3,-0.5 -0.5,-1.4 -0.5,-2.7 V 55.3 H 470 v 14.2 c 0,6.2 1,10.2 2.9,11.9 1.9,1.8 6.7,2.6 14.4,2.6 5.3,0 8.9,-0.2 10.7,-0.7 1.8,-0.5 3.3,-1.3 4.2,-2.6 0.7,-0.9 1.2,-1.9 1.4,-3 0.3,-1.2 0.4,-2.9 0.4,-5.3 v -16 c 0,-3.1 -0.5,-5.6 -1.6,-7.4 -1.1,-1.8 -2.8,-3.4 -5.4,-4.7 l -9.2,-4.9 c -1.1,-0.6 -1.9,-1.2 -2.3,-1.9 -0.4,-0.7 -0.6,-1.7 -0.6,-3 v -6.7 c 0,-1.3 0.2,-2.2 0.5,-2.7 0.4,-0.5 1,-0.8 1.6,-0.8 0.9,0 1.5,0.2 1.8,0.7 0.3,0.5 0.5,1.4 0.5,2.8 v 10.1 h 14.6 V 23.1 c 0,-3.8 -1.1,-6.5 -3.2,-8"
       id="path18"
       style="fill:#ffffff;fill-opacity:1" /><path
       class="st2"
       d="m 457.5,15.1 c -2.1,-1.5 -6.7,-2.2 -13.8,-2.2 -7.5,0 -12.2,0.8 -14.1,2.5 -1.9,1.7 -2.9,5.6 -2.9,11.9 v 8.2 q 0,4.8 1.5,7.8 c 1.5,3 2.7,3.6 5,4.8 l 10,5.5 c 1.1,0.6 1.9,1.2 2.3,1.9 0.4,0.7 0.6,1.7 0.6,3.1 v 11.8 q 0,0.9 -0.6,1.5 c -0.4,0.4 -1,0.6 -1.6,0.6 -0.8,0 -1.4,-0.3 -1.7,-0.8 -0.3,-0.5 -0.5,-1.4 -0.5,-2.7 V 55.3 h -14.9 v 14.2 c 0,6.2 1,10.2 2.9,11.9 1.9,1.7 6.7,2.6 14.4,2.6 5.3,0 8.8,-0.2 10.7,-0.7 1.9,-0.5 3.3,-1.3 4.2,-2.6 0.7,-0.9 1.2,-1.9 1.4,-3 0.3,-1.2 0.4,-2.9 0.4,-5.3 v -16 c 0,-3.1 -0.5,-5.6 -1.6,-7.4 -1.1,-1.8 -2.8,-3.4 -5.4,-4.7 l -9.2,-4.9 c -1.1,-0.6 -1.9,-1.2 -2.3,-1.9 -0.4,-0.7 -0.6,-1.7 -0.6,-3 v -6.7 c 0,-1.3 0.2,-2.2 0.5,-2.7 0.4,-0.5 1,-0.8 1.6,-0.8 0.9,0 1.5,0.2 1.8,0.7 0.3,0.5 0.5,1.4 0.5,2.8 v 10.1 h 14.6 V 23.1 c -0.1,-3.8 -1.1,-6.5 -3.2,-8"
       id="path19"
       style="fill:#ffffff;fill-opacity:1" /><path
       class="st2"
       d="m 522.8,37.8 h 16.8 v -9.6 c 0,-1.6 0.2,-2.7 0.6,-3.2 0.4,-0.5 1,-0.8 1.9,-0.8 0.9,0 1.6,0.3 1.9,0.9 0.4,0.6 0.6,1.6 0.6,3.1 v 11.3 c 0,1 -0.2,1.9 -0.5,2.9 -0.5,1.4 -1.2,2.7 -2,3.9 L 522.8,79.6 V 92 h 39.1 V 79.7 h -19.5 l 16.9,-28.4 c 0.8,-1.4 1.5,-3 1.9,-4.5 0.5,-1.6 0.7,-3.3 0.8,-5 V 29.4 q 0,-10.05 -3.3,-13.2 C 556.5,14.1 551,13 542.1,13 c -5.5,0 -9.5,0.3 -11.8,0.9 -2.3,0.6 -4.1,1.6 -5.3,3.1 -0.8,0.9 -1.3,2 -1.6,3.2 -0.3,1.3 -0.4,3.2 -0.4,5.8 z"
       id="path20"
       style="fill:#ffffff;fill-opacity:1" /><path
       class="st2"
       d="m 300.7,49.3 c 2.6,-0.9 4.4,-2.3 5.3,-4 q 1.5,-2.55 1.5,-10.2 v -7.3 c 0,-6.3 -1,-10.4 -3,-12 -2,-1.6 -6.6,-2.5 -13.8,-2.5 h -16.6 v 70.2 h 14.6 V 55.7 h 0.9 c 1.3,0 2.2,0.3 2.7,0.8 0.5,0.5 0.7,1.5 0.7,3 v 24.1 h 14.6 V 60.7 q 0,-5.25 -1.5,-7.8 c -1.5,-2.55 -2.9,-2.9 -5.4,-3.6 M 292.9,40 c 0,1.1 -0.2,1.8 -0.6,2.2 -0.4,0.4 -1.1,0.6 -2.3,0.6 h -1.4 v -18 h 1.3 q 1.8,0 2.4,0.6 c 0.4,0.4 0.6,1.5 0.6,3.2 z"
       id="path21"
       style="fill:#ffffff;fill-opacity:1" /><polygon
       class="st2"
       points="336.5,24.9 344.2,24.9 344.2,13.3 313.9,13.3 313.9,24.9 321.6,24.9 321.6,83.5 336.5,83.5 "
       id="polygon21"
       style="fill:#ffffff;fill-opacity:1" /><path
       class="st2"
       d="m 262.9,15.5 c -1.9,-1.7 -6.8,-2.6 -14.5,-2.6 -7.6,0 -12.4,0.8 -14.3,2.4 -1.9,1.6 -2.9,5.6 -2.9,12.2 v 41.9 c 0,6.4 0.9,10.4 2.9,12.1 2,1.7 6.8,2.6 14.5,2.6 7.7,0 12.5,-0.8 14.4,-2.5 1.9,-1.7 2.9,-5.7 2.9,-12.2 V 27.5 c -0.1,-6.3 -1,-10.3 -3,-12 m -12.2,54.8 v 0.4 c -0.1,1.1 -1.1,1.9 -2.2,1.7 -0.8,0 -1.4,-0.3 -1.7,-0.8 -0.3,-0.5 -0.5,-1.4 -0.5,-2.8 V 26.6 c -0.1,-0.6 0.1,-1.1 0.5,-1.6 0.4,-0.4 0.9,-0.6 1.4,-0.6 0.9,0 1.6,0.2 1.9,0.7 0.3,0.5 0.5,1.4 0.5,2.8 z"
       id="path22"
       style="fill:#ffffff;fill-opacity:1" /><polygon
       class="st2"
       points="321.3,83.5 321.3,83.6 "
       id="polygon22"
       style="fill:#ffffff;fill-opacity:1" /></g></svg>
