<?xml version="1.0" encoding="UTF-8" standalone="no"?>
<!-- Created with Inkscape (http://www.inkscape.org/) -->

<svg
   width="64"
   height="63.999996"
   viewBox="0 0 16.933332 16.933332"
   version="1.1"
   id="svg1"
   xml:space="preserve"
   xmlns="http://www.w3.org/2000/svg"
   xmlns:svg="http://www.w3.org/2000/svg"><defs
     id="defs1" /><path
     id="path1"
     style="display:inline;fill:#fff3d8;fill-opacity:1;stroke-width:0.529167;stroke-linecap:round;stroke-miterlimit:23.2"
     d="m 12.502079,2.2835814 c -1.632318,-0.0642 -2.8340467,0.9715854 -3.9780519,2.1549072 l -1.3249837,2.424658 1.771468,0.2754354 a 0.2645835,0.2645835 0 0 1 0.1452108,0.072864 v 5.167e-4 L 9.677445,7.5209876 9.017537,7.6506954 A 0.2645835,0.2645835 0 0 1 8.948291,7.6641314 0.2645835,0.2645835 0 0 1 8.888863,7.6620614 L 6.3732541,7.2693234 8.1002804,4.1098265 C 6.956279,2.9399502 5.692384,2.0898849 3.7041665,2.3812499 1.7506886,2.667524 1.1581412,4.0663873 1.0583333,5.5562497 0.97638099,6.7795755 1.5485672,7.9363519 2.3812499,8.9958329 L 8.4666662,14.816666 14.552083,8.9958329 c 0.781024,-1.0847 1.428875,-2.1945302 1.322916,-3.4395832 -0.137396,-1.6144531 -0.88271,-2.7771435 -2.645833,-3.1749998 -0.251855,-0.056832 -0.493899,-0.088497 -0.727087,-0.097668 z" /></svg>
