<?xml version="1.0" encoding="UTF-8" standalone="no"?>
<!-- Created with Inkscape (http://www.inkscape.org/) -->

<svg
   width="64"
   height="63.999996"
   viewBox="0 0 16.933332 16.933332"
   version="1.1"
   id="svg1"
   xml:space="preserve"
   xmlns="http://www.w3.org/2000/svg"
   xmlns:svg="http://www.w3.org/2000/svg"><defs
     id="defs1" /><path
     id="path1"
     style="display:inline;fill:#fff3d8;fill-opacity:1;stroke-width:0.529167;stroke-linecap:round;stroke-miterlimit:23.2"
     d="M 12.502079,2.2835814 C 10.8697,2.2193916 9.6680733,3.2551051 8.5240271,4.4384886 L 7.1974931,6.8652137 10.115144,7.353556 8.6485673,11.435477 A 0.2645835,0.2645835 0 0 1 8.548315,11.565185 l -0.4097941,0.492476 -0.00258,-0.678511 a 0.2645835,0.2645835 0 0 1 0,-10e-4 0.2645835,0.2645835 0 0 1 0,-0.06046 0.2645835,0.2645835 0 0 1 0,-0.0026 0.2645835,0.2645835 0 0 1 0.014469,-0.05943 L 9.4025264,7.7695512 6.3748044,7.265706 8.1002804,4.1098265 C 6.9562872,2.9399665 5.692366,2.0898875 3.7041665,2.3812499 1.7506886,2.667524 1.1581412,4.0663873 1.0583333,5.5562497 0.97638099,6.7795755 1.5485672,7.9363519 2.3812499,8.9958329 L 8.4666662,14.816666 14.552083,8.9958329 c 0.781024,-1.0847 1.428875,-2.1945302 1.322916,-3.4395832 -0.137396,-1.6144531 -0.88271,-2.7771435 -2.645833,-3.1749998 -0.251865,-0.056834 -0.49389,-0.088498 -0.727087,-0.097668 z" /></svg>
