<?xml version="1.0" encoding="UTF-8" standalone="no"?>
<!-- Created with Inkscape (http://www.inkscape.org/) -->

<svg
   width="128"
   height="128"
   viewBox="0 0 33.866666 33.866666"
   version="1.1"
   id="svg1"
   xml:space="preserve"
   sodipodi:docname="agility.svg"
   inkscape:version="1.4.2 (f4327f4, 2025-05-13)"
   xmlns:inkscape="http://www.inkscape.org/namespaces/inkscape"
   xmlns:sodipodi="http://sodipodi.sourceforge.net/DTD/sodipodi-0.dtd"
   xmlns="http://www.w3.org/2000/svg"
   xmlns:svg="http://www.w3.org/2000/svg"><sodipodi:namedview
     id="namedview1"
     pagecolor="#ffffff"
     bordercolor="#000000"
     borderopacity="0.25"
     inkscape:showpageshadow="2"
     inkscape:pageopacity="0.0"
     inkscape:pagecheckerboard="0"
     inkscape:deskcolor="#d1d1d1"
     inkscape:zoom="6.140625"
     inkscape:cx="74.748092"
     inkscape:cy="57.648855"
     inkscape:window-width="1920"
     inkscape:window-height="1017"
     inkscape:window-x="-8"
     inkscape:window-y="-8"
     inkscape:window-maximized="1"
     inkscape:current-layer="layer1" /><defs
     id="defs1" /><g
     id="layer1"
     style="display:inline"><path
       id="path35"
       style="fill:#ffffff;fill-opacity:1;stroke:none;stroke-width:0.79375;stroke-linecap:round;stroke-linejoin:miter;stroke-miterlimit:16.7;stroke-dasharray:none;stroke-opacity:1;paint-order:stroke fill markers"
       d="m 22.886458,3.175 c -1.242065,2e-7 -2.248958,1.006893 -2.248958,2.2489583 -4.1e-5,0.5569259 0.206562,1.0940582 0.57981,1.5074016 -0.160195,0.156409 -0.257166,0.4351155 -0.520382,0.4351155 H 14.335559 L 9.6583252,12.628687 c -0.7251289,0.81577 0.5963318,2.522714 1.6841348,1.262455 l 3.834908,-4.4431399 h 2.783293 c 0.230203,0 0.183657,0.4673509 0,0.6779949 L 9.6820964,19.621025 H 3.6251017 c -1.7167182,0 -1.4727706,2.618961 0,2.618961 h 7.7638673 c 0.76672,0 1.009649,-0.434012 1.262972,-0.72502 l 2.829801,-3.250448 c 0.169001,-0.194142 0.51685,-0.206773 0.725021,0 l 3.272151,3.250448 c 0.228021,0.22649 0.263554,0.825348 0.124024,1.432471 l -1.420069,6.179984 c -0.310804,1.352368 2.422907,2.519566 2.946591,0.10542 l 1.648478,-7.60057 c 0.178542,-0.823065 0.428919,-1.607118 -0.537952,-2.549198 l -2.73575,-2.665987 c -0.288379,-0.280985 -0.238084,-0.732005 0,-1.005624 l 3.133659,-3.60133 c 0.243346,-0.279667 0.614227,-0.230111 0.841809,0 l 2.104781,2.128035 c 0.674783,0.682281 1.24151,0.382961 1.613338,0 L 31.103528,9.9156738 C 31.850174,9.1466736 30.560889,7.4950912 29.513444,8.4894043 l -3.22771,3.0633787 -3.507796,-3.2974729 c -0.199418,-0.1874608 -0.156497,-0.427225 0,-0.5849773 0.02549,-0.025693 0.07233,0.0026 0.10852,0.00258 1.242066,4e-7 2.248959,-1.0068927 2.248959,-2.2489584 0,-1.2420656 -1.006893,-2.2489587 -2.248959,-2.2489583 z"
       sodipodi:nodetypes="sccsccccsscsssccccccccccccccccccsscsss" /></g></svg>
