<?xml version="1.0" encoding="UTF-8" standalone="no"?>
<!-- Created with Inkscape (http://www.inkscape.org/) -->

<svg
   width="128"
   height="128"
   viewBox="0 0 33.866666 33.866666"
   version="1.1"
   id="svg1"
   xml:space="preserve"
   sodipodi:docname="king.svg"
   inkscape:version="1.4.2 (f4327f4, 2025-05-13)"
   xmlns:inkscape="http://www.inkscape.org/namespaces/inkscape"
   xmlns:sodipodi="http://sodipodi.sourceforge.net/DTD/sodipodi-0.dtd"
   xmlns="http://www.w3.org/2000/svg"
   xmlns:svg="http://www.w3.org/2000/svg"><sodipodi:namedview
     id="namedview1"
     pagecolor="#ffffff"
     bordercolor="#000000"
     borderopacity="0.25"
     inkscape:showpageshadow="2"
     inkscape:pageopacity="0.0"
     inkscape:pagecheckerboard="0"
     inkscape:deskcolor="#d1d1d1"
     inkscape:zoom="4.3420776"
     inkscape:cx="62.642823"
     inkscape:cy="65.176173"
     inkscape:window-width="1920"
     inkscape:window-height="1017"
     inkscape:window-x="-8"
     inkscape:window-y="-8"
     inkscape:window-maximized="1"
     inkscape:current-layer="svg1" /><defs
     id="defs1" /><g
     id="layer1"
     style="display:inline;stroke-width:0.79374998;stroke-dasharray:none"><path
       id="path24"
       style="fill:#ffffff;fill-opacity:1;stroke:none;stroke-width:0.79374998;stroke-linecap:round;stroke-linejoin:miter;stroke-miterlimit:16.7;stroke-dasharray:none;stroke-opacity:1;paint-order:stroke fill markers"
       d="M 12.7 3.7041667 A 2.3812499 2.3812499 0 0 0 10.31875 6.0854167 A 2.3812499 2.3812499 0 0 0 12.135177 8.3984538 L 10.583333 16.933333 L 6.1138387 11.948108 A 2.1166666 2.1166666 0 0 0 6.8791667 10.31875 A 2.1166666 2.1166666 0 0 0 4.7625 8.2020833 A 2.1166666 2.1166666 0 0 0 2.6458333 10.31875 A 2.1166666 2.1166666 0 0 0 4.7625 12.435417 A 2.1166666 2.1166666 0 0 0 4.8415649 12.433866 L 4.8420817 12.433866 L 8.73125 23.283333 L 25.135417 23.283333 L 29.024585 12.433866 L 29.025102 12.433866 A 2.1166666 2.1166666 0 0 0 29.104167 12.435417 A 2.1166666 2.1166666 0 0 0 31.220833 10.31875 A 2.1166666 2.1166666 0 0 0 29.104167 8.2020833 A 2.1166666 2.1166666 0 0 0 26.9875 10.31875 A 2.1166666 2.1166666 0 0 0 27.752828 11.948108 L 23.283333 16.933333 L 21.73149 8.3984538 A 2.3812499 2.3812499 0 0 0 23.547917 6.0854167 A 2.3812499 2.3812499 0 0 0 21.166667 3.7041667 A 2.3812499 2.3812499 0 0 0 18.785417 6.0854167 A 2.3812499 2.3812499 0 0 0 20.082495 8.2057007 L 16.933333 16.66875 L 13.784172 8.2057007 A 2.3812499 2.3812499 0 0 0 15.08125 6.0854167 A 2.3812499 2.3812499 0 0 0 12.7 3.7041667 z " /><path
       style="fill:#ffffff;fill-opacity:1;stroke:none;stroke-width:0.79375;stroke-linecap:round;stroke-linejoin:miter;stroke-miterlimit:16.7;stroke-dasharray:none;stroke-opacity:1;paint-order:stroke fill markers"
       d="M 6.6145833,30.1625 H 27.252083 v -2.116667 c 0,-1.504089 -1.102291,-2.472609 -3.175,-2.645833 -4.679257,-0.391062 -9.437872,-0.558956 -14.2874997,0 -1.5394105,0.177428 -3.175,0.56539 -3.175,2.645833 z"
       id="path27"
       sodipodi:nodetypes="ccssssc" /></g></svg>
