<?xml version="1.0" encoding="UTF-8" standalone="no"?>
<!-- Created with Inkscape (http://www.inkscape.org/) -->

<svg
   width="128"
   height="128"
   viewBox="0 0 33.866666 33.866666"
   version="1.1"
   id="svg1"
   xml:space="preserve"
   sodipodi:docname="knockout.svg"
   inkscape:version="1.4.2 (f4327f4, 2025-05-13)"
   xmlns:inkscape="http://www.inkscape.org/namespaces/inkscape"
   xmlns:sodipodi="http://sodipodi.sourceforge.net/DTD/sodipodi-0.dtd"
   xmlns="http://www.w3.org/2000/svg"
   xmlns:svg="http://www.w3.org/2000/svg"><sodipodi:namedview
     id="namedview1"
     pagecolor="#ffffff"
     bordercolor="#000000"
     borderopacity="0.25"
     inkscape:showpageshadow="2"
     inkscape:pageopacity="0.0"
     inkscape:pagecheckerboard="0"
     inkscape:deskcolor="#d1d1d1"
     inkscape:zoom="6.140625"
     inkscape:cx="64"
     inkscape:cy="63.83715"
     inkscape:window-width="1920"
     inkscape:window-height="1017"
     inkscape:window-x="-8"
     inkscape:window-y="-8"
     inkscape:window-maximized="1"
     inkscape:current-layer="svg1" /><defs
     id="defs1" /><g
     id="layer1"
     style="display:inline;stroke-width:0.79374998;stroke-dasharray:none"><path
       style="fill:#ffffff;fill-opacity:1;stroke:none;stroke-width:0.79374998;stroke-linecap:round;stroke-linejoin:miter;stroke-miterlimit:16.7;stroke-dasharray:none;stroke-opacity:1;paint-order:stroke fill markers"
       d="M 3.4583031,17.01137 C 2.4204266,15.481782 2.9046483,14.748508 3.5079125,13.563928 5.3022609,10.040514 8.2648591,6.4253048 12.464782,3.3208237 c 0.89674,-0.6628485 2.174384,-0.657861 3.063577,0 L 18.435,5.4712745 c 1.269816,0.9394612 0.611188,2.309641 0,3.0299946 l -3.614589,4.2601969 c -0.435767,0.5136 -0.700746,1.786319 -0.03307,2.464537 l 1.840164,1.869224 c -1.449271,1.402006 -2.675955,3.056911 -4.5369,4.092565 -1.554706,0.865225 -3.0729677,0.627724 -4.2562669,0 C 5.9042435,20.163904 4.4889507,18.530305 3.4583031,17.01137 Z"
       id="path33" /><path
       style="fill:#ffffff;fill-opacity:1;stroke:none;stroke-width:0.79374998;stroke-linecap:round;stroke-linejoin:miter;stroke-miterlimit:16.7;stroke-dasharray:none;stroke-opacity:1;paint-order:stroke fill markers"
       d="m 17.095,13.236523 4.841146,-5.2384825 c 0.432342,-0.4678261 1.037222,-0.4190183 1.566868,0 1.202685,0.9514784 2.395946,1.8696592 2.919248,2.9974315 1.022456,2.203504 0.382785,4.187745 -0.444135,5.320274 -4.447602,6.091325 -5.077014,6.698902 -8.836128,10.016983 -1.297027,1.144856 -3.488512,0.728821 -3.811932,0.42095 l -2.432152,-2.315222 c 1.613733,-0.112208 3.01355,-0.667749 4.279653,-1.941045 l 4.115951,-4.139337 c 0.447892,0.111608 1.509724,0.513079 2.33107,-0.363802 l 2.463077,-2.629616 c 0.64442,-0.687992 -0.96091,-2.339296 -1.847501,-1.473323 l -2.011203,1.964431 c -0.484365,0.473101 -1.214386,0.435782 -1.637026,0 L 17.095,14.312283 c -0.388728,-0.400815 -0.212809,-0.845484 0,-1.07576 z"
       id="path34" /><path
       style="fill:#ffffff;fill-opacity:1;stroke:none;stroke-width:0.79374998;stroke-linecap:round;stroke-linejoin:miter;stroke-miterlimit:16.7;stroke-dasharray:none;stroke-opacity:1;paint-order:stroke fill markers"
       d="m 19.831,26.800452 7.109769,-7.670636 c 0.428549,-0.462356 0.9414,-0.406198 1.496708,0 l 2.525697,1.847501 -9.284275,9.751997 -1.847899,-2.26845 c -0.440005,-0.540142 -0.41472,-1.212977 0,-1.660412 z"
       id="path35" /></g></svg>
