<?xml version="1.0" encoding="UTF-8" standalone="no"?>
<!-- Created with Inkscape (http://www.inkscape.org/) -->

<svg
   width="128"
   height="128"
   viewBox="0 0 33.866666 33.866666"
   version="1.1"
   id="svg1"
   xml:space="preserve"
   sodipodi:docname="plague.svg"
   inkscape:version="1.4.2 (f4327f4, 2025-05-13)"
   xmlns:inkscape="http://www.inkscape.org/namespaces/inkscape"
   xmlns:sodipodi="http://sodipodi.sourceforge.net/DTD/sodipodi-0.dtd"
   xmlns="http://www.w3.org/2000/svg"
   xmlns:svg="http://www.w3.org/2000/svg"><sodipodi:namedview
     id="namedview1"
     pagecolor="#ffffff"
     bordercolor="#000000"
     borderopacity="0.25"
     inkscape:showpageshadow="2"
     inkscape:pageopacity="0.0"
     inkscape:pagecheckerboard="0"
     inkscape:deskcolor="#d1d1d1"
     inkscape:zoom="6.140625"
     inkscape:cx="64"
     inkscape:cy="64"
     inkscape:window-width="1920"
     inkscape:window-height="1017"
     inkscape:window-x="-8"
     inkscape:window-y="-8"
     inkscape:window-maximized="1"
     inkscape:current-layer="svg1" /><defs
     id="defs1" /><g
     id="layer1"
     style="display:inline"><path
       id="path6"
       style="baseline-shift:baseline;display:inline;overflow:visible;opacity:1;fill:#ffffff;fill-opacity:1;stroke:none;stroke-width:0.79375;stroke-linecap:round;stroke-linejoin:round;stroke-miterlimit:16.7;stroke-dasharray:none;stroke-opacity:1;paint-order:stroke fill markers;enable-background:accumulate;stop-color:#000000;stop-opacity:1"
       d="M 14.247709 3.4369995 A 9.1281252 9.1281252 0 0 0 7.8052083 12.144478 A 9.1281252 9.1281252 0 0 0 7.8491333 13.03693 A 9.1281252 9.1281252 0 0 0 2.4871867 21.351668 A 9.1281252 9.1281252 0 0 0 2.7579712 23.559285 A 6.6145835 6.6145835 0 0 1 2.6985433 22.674585 A 6.6145835 6.6145835 0 0 1 9.3131266 16.060002 A 6.6145835 6.6145835 0 0 1 9.9735514 16.093075 C 9.759947 16.776952 9.6443726 17.503303 9.6443726 18.255733 C 9.6443726 21.726292 12.094939 24.645746 15.353068 25.371578 A 6.6145835 6.6145835 0 0 1 14.995984 26.050606 A 6.6145835 6.6145835 0 0 1 14.876095 26.238708 A 6.6145835 6.6145835 0 0 1 9.3131266 29.289168 A 6.6145835 6.6145835 0 0 1 5.2498088 27.893905 A 9.1281252 9.1281252 0 0 0 11.615312 30.479793 A 9.1281252 9.1281252 0 0 0 16.933333 28.743465 A 9.1281252 9.1281252 0 0 0 22.251355 30.479793 A 9.1281252 9.1281252 0 0 0 28.618408 27.892871 A 6.6145835 6.6145835 0 0 1 24.55354 29.289168 A 6.6145835 6.6145835 0 0 1 18.990572 26.238708 A 6.6145835 6.6145835 0 0 1 18.870683 26.050606 A 6.6145835 6.6145835 0 0 1 18.513599 25.371578 C 21.771963 24.645923 24.222811 21.72646 24.222811 18.255733 C 24.222811 17.503284 24.107247 16.776966 23.893632 16.093075 A 6.6145835 6.6145835 0 0 1 24.55354 16.060002 A 6.6145835 6.6145835 0 0 1 31.168123 22.674585 A 6.6145835 6.6145835 0 0 1 31.108179 23.560319 A 9.1281252 9.1281252 0 0 0 31.37948 21.351668 A 9.1281252 9.1281252 0 0 0 26.017533 13.03693 A 9.1281252 9.1281252 0 0 0 26.061458 12.144478 A 9.1281252 9.1281252 0 0 0 19.618958 3.4369995 A 6.6145835 6.6145835 0 0 1 23.547917 9.47229 A 6.6145835 6.6145835 0 0 1 22.936584 12.249382 A 6.6145835 6.6145835 0 0 1 22.302515 13.33562 C 20.968199 11.881283 19.053948 10.966772 16.93385 10.966772 C 14.813597 10.966772 12.898998 11.881098 11.564669 13.33562 A 6.6145835 6.6145835 0 0 1 11.221537 12.808004 A 6.6145835 6.6145835 0 0 1 11.221537 12.807487 A 6.6145835 6.6145835 0 0 1 10.930082 12.249382 A 6.6145835 6.6145835 0 0 1 10.31875 9.47229 A 6.6145835 6.6145835 0 0 1 14.247709 3.4369995 z M 16.93385 13.083956 C 18.484546 13.083956 19.869599 13.756809 20.815267 14.828035 A 6.6145835 6.6145835 0 0 1 18.860347 15.800069 A 9.1281252 9.1281252 0 0 0 18.860347 15.799552 A 6.6145835 6.6145835 0 0 1 18.228861 15.958716 A 6.6145835 6.6145835 0 0 1 18.228345 15.958716 A 6.6145835 6.6145835 0 0 1 17.58394 16.054834 A 6.6145835 6.6145835 0 0 1 16.933333 16.086873 A 6.6145835 6.6145835 0 0 1 15.005802 15.799552 A 6.6145835 6.6145835 0 0 1 13.051917 14.828035 C 13.997589 13.756674 15.383043 13.083956 16.93385 13.083956 z M 12.016838 16.637744 A 6.6145835 6.6145835 0 0 1 13.826029 17.838704 A 6.6145835 6.6145835 0 0 1 14.408423 18.461922 A 6.6145835 6.6145835 0 0 1 14.566553 18.673796 A 6.6145835 6.6145835 0 0 1 14.901933 19.148185 A 6.6145835 6.6145835 0 0 1 15.063163 19.427755 A 6.6145835 6.6145835 0 0 1 15.310693 19.905245 A 6.6145835 6.6145835 0 0 1 15.439884 20.208069 A 6.6145835 6.6145835 0 0 1 15.617651 20.707263 A 6.6145835 6.6145835 0 0 1 15.710669 21.02559 A 6.6145835 6.6145835 0 0 1 15.92771 22.674585 A 6.6145835 6.6145835 0 0 1 15.895671 23.324674 C 13.528796 22.847766 11.761556 20.769032 11.761556 18.255733 C 11.761556 17.689955 11.851056 17.146163 12.016838 16.637744 z M 21.849829 16.637744 C 22.015653 17.146222 22.105627 17.689879 22.105627 18.255733 C 22.105627 20.769212 20.338127 22.847963 17.970996 23.324674 A 6.6145835 6.6145835 0 0 1 17.938957 22.674585 A 6.6145835 6.6145835 0 0 1 18.156514 21.02404 A 6.6145835 6.6145835 0 0 1 18.248499 20.708297 A 6.6145835 6.6145835 0 0 1 18.425749 20.209619 A 6.6145835 6.6145835 0 0 1 18.557007 19.903695 A 6.6145835 6.6145835 0 0 1 18.805054 19.425171 A 6.6145835 6.6145835 0 0 1 18.961117 19.15387 A 6.6145835 6.6145835 0 0 1 19.304765 18.667078 A 6.6145835 6.6145835 0 0 1 19.457727 18.462439 A 6.6145835 6.6145835 0 0 1 21.849829 16.637744 z " /></g></svg>
