<?xml version="1.0" encoding="UTF-8" standalone="no"?>
<!-- Created with Inkscape (http://www.inkscape.org/) -->

<svg
   width="128"
   height="128"
   viewBox="0 0 33.866666 33.866666"
   version="1.1"
   id="svg1"
   xml:space="preserve"
   sodipodi:docname="precision.svg"
   inkscape:version="1.4.2 (f4327f4, 2025-05-13)"
   xmlns:inkscape="http://www.inkscape.org/namespaces/inkscape"
   xmlns:sodipodi="http://sodipodi.sourceforge.net/DTD/sodipodi-0.dtd"
   xmlns="http://www.w3.org/2000/svg"
   xmlns:svg="http://www.w3.org/2000/svg"><sodipodi:namedview
     id="namedview1"
     pagecolor="#ffffff"
     bordercolor="#000000"
     borderopacity="0.25"
     inkscape:showpageshadow="2"
     inkscape:pageopacity="0.0"
     inkscape:pagecheckerboard="0"
     inkscape:deskcolor="#d1d1d1"
     inkscape:zoom="6.140625"
     inkscape:cx="64"
     inkscape:cy="64"
     inkscape:window-width="1920"
     inkscape:window-height="1017"
     inkscape:window-x="-8"
     inkscape:window-y="-8"
     inkscape:window-maximized="1"
     inkscape:current-layer="svg1" /><defs
     id="defs1" /><g
     id="layer1"
     style="display:inline"><path
       id="path29"
       style="display:inline;fill:#ffffff;stroke-width:0.79375;stroke-linecap:round;stroke-miterlimit:16.7;paint-order:stroke fill markers;fill-opacity:1;stroke:none;stroke-opacity:1;stroke-dasharray:none"
       d="M 6.35 2.9104167 L 6.0854167 6.0854167 L 2.9104167 6.35 L 3.7041667 7.14375 L 6.35 7.14375 L 6.35 7.9375 L 5.2916667 8.73125 L 6.8791667 10.31875 L 8.9958333 10.054167 L 13.758333 14.816667 A 3.96875 3.96875 0 0 0 12.964583 17.197917 A 3.96875 3.96875 0 0 0 16.933333 21.166667 A 3.96875 3.96875 0 0 0 20.902083 17.197917 A 3.96875 3.96875 0 0 0 16.933333 13.229167 A 3.96875 3.96875 0 0 0 14.86731 13.808976 L 10.054167 8.9958333 L 10.31875 6.8791667 L 6.35 2.9104167 z " /><path
       id="path30"
       style="opacity:1;fill:#ffffff;stroke-width:0.79375;stroke-linecap:round;stroke-miterlimit:16.7;paint-order:stroke fill markers;fill-opacity:1;stroke:none;stroke-opacity:1;stroke-dasharray:none"
       d="M 16.933333 3.4395833 A 13.49375 13.49375 0 0 0 11.422559 4.6157389 L 12.82609 6.0197876 L 12.560474 8.134904 L 14.427543 10.001457 A 7.5406251 7.5406251 0 0 1 17.065625 9.525 A 7.5406251 7.5406251 0 0 1 24.60625 17.065625 A 7.5406251 7.5406251 0 0 1 17.065625 24.60625 A 7.5406251 7.5406251 0 0 1 9.525 17.065625 A 7.5406251 7.5406251 0 0 1 10.001457 14.427543 L 8.134904 12.560474 L 6.0197876 12.82609 L 4.6162557 11.422559 A 13.49375 13.49375 0 0 0 3.4395833 16.933333 A 13.49375 13.49375 0 0 0 16.933333 30.427083 A 13.49375 13.49375 0 0 0 30.427083 16.933333 A 13.49375 13.49375 0 0 0 16.933333 3.4395833 z " /></g></svg>
