<?xml version="1.0" encoding="UTF-8" standalone="no"?>
<!-- Created with Inkscape (http://www.inkscape.org/) -->

<svg
   width="128"
   height="128"
   viewBox="0 0 33.866666 33.866666"
   version="1.1"
   id="svg1"
   xml:space="preserve"
   sodipodi:docname="regeneration.svg"
   inkscape:version="1.4.2 (f4327f4, 2025-05-13)"
   xmlns:inkscape="http://www.inkscape.org/namespaces/inkscape"
   xmlns:sodipodi="http://sodipodi.sourceforge.net/DTD/sodipodi-0.dtd"
   xmlns="http://www.w3.org/2000/svg"
   xmlns:svg="http://www.w3.org/2000/svg"><sodipodi:namedview
     id="namedview1"
     pagecolor="#ffffff"
     bordercolor="#000000"
     borderopacity="0.25"
     inkscape:showpageshadow="2"
     inkscape:pageopacity="0.0"
     inkscape:pagecheckerboard="0"
     inkscape:deskcolor="#d1d1d1"
     inkscape:zoom="6.140625"
     inkscape:cx="64"
     inkscape:cy="63.83715"
     inkscape:window-width="1920"
     inkscape:window-height="1017"
     inkscape:window-x="-8"
     inkscape:window-y="-8"
     inkscape:window-maximized="1"
     inkscape:current-layer="svg1" /><defs
     id="defs1" /><g
     id="layer1"
     style="display:inline"><path
       style="fill:#ffffff;fill-opacity:1;stroke:none;stroke-width:0.79374998;stroke-linecap:round;stroke-linejoin:miter;stroke-miterlimit:16.7;stroke-dasharray:none;stroke-opacity:1;paint-order:stroke fill markers"
       d="M 4.4979167,14.552083 8.4666666,14.2875 C 11.002774,7.8635054 18.390182,7.5647529 18.25625,8.2020833 l -0.79375,2.1166667 6.35,-1.5875 -2.645833,-5.8208333 -1.058334,1.5875 C 11.684709,3.5774781 6.8288289,7.4123639 4.4979167,14.552083 Z"
       id="path22" /><path
       style="fill:#ffffff;fill-opacity:1;stroke:none;stroke-width:0.79374998;stroke-linecap:round;stroke-linejoin:miter;stroke-miterlimit:16.7;stroke-dasharray:none;stroke-opacity:1;paint-order:stroke fill markers"
       d="m 26.682917,8.0624131 -1.75524,3.5693299 c 4.295289,5.408331 0.860312,11.95539 0.375334,11.520736 l -1.436212,-1.745741 -1.800185,6.293011 6.363906,0.619058 -0.845648,-1.710294 C 32.593807,19.77366 31.700639,13.650902 26.682917,8.0624131 Z"
       id="path23" /><path
       style="fill:#ffffff;fill-opacity:1;stroke:none;stroke-width:0.79374998;stroke-linecap:round;stroke-linejoin:miter;stroke-miterlimit:16.7;stroke-dasharray:none;stroke-opacity:1;paint-order:stroke fill markers"
       d="M 21.210636,30.520022 18.997125,27.215275 C 12.165729,28.230938 8.2132978,21.982632 8.8322082,21.779955 L 11.06217,21.40903 6.5123553,16.703518 l -3.7180729,5.201776 1.903982,0.122794 c 3.4146889,7.755291 9.1637366,10.043164 16.5123716,8.491934 z"
       id="path24" /></g></svg>
