<?xml version="1.0" encoding="UTF-8" standalone="no"?>
<!-- Created with Inkscape (http://www.inkscape.org/) -->

<svg
   width="128"
   height="128"
   viewBox="0 0 33.866666 33.866666"
   version="1.1"
   id="svg1"
   xml:space="preserve"
   sodipodi:docname="vampire.svg"
   inkscape:version="1.4.2 (f4327f4, 2025-05-13)"
   xmlns:inkscape="http://www.inkscape.org/namespaces/inkscape"
   xmlns:sodipodi="http://sodipodi.sourceforge.net/DTD/sodipodi-0.dtd"
   xmlns="http://www.w3.org/2000/svg"
   xmlns:svg="http://www.w3.org/2000/svg"><sodipodi:namedview
     id="namedview1"
     pagecolor="#ffffff"
     bordercolor="#000000"
     borderopacity="0.25"
     inkscape:showpageshadow="2"
     inkscape:pageopacity="0.0"
     inkscape:pagecheckerboard="0"
     inkscape:deskcolor="#d1d1d1"
     inkscape:zoom="6.140625"
     inkscape:cx="64"
     inkscape:cy="64"
     inkscape:window-width="1920"
     inkscape:window-height="1017"
     inkscape:window-x="-8"
     inkscape:window-y="-8"
     inkscape:window-maximized="1"
     inkscape:current-layer="svg1" /><defs
     id="defs1" /><g
     id="layer1"><path
       style="fill:#ffffff;fill-opacity:1;stroke:none;stroke-width:0.79375;stroke-linecap:round;stroke-miterlimit:23.2;stroke-dasharray:none;stroke-opacity:1;paint-order:stroke fill markers"
       d="m 3.4395833,3.175 c 2.4011503,0.9990816 4.8039074,1.9435297 7.1437497,5.0270833 -0.146223,2.7409927 -0.243328,5.4677947 2.38125,7.4083337 h 0.79375 l 0,-1.058334 c -0.540952,-0.620519 -0.648273,-1.374462 -0.79375,-2.116666 1.001873,0.195009 1.722363,0.722561 2.38125,1.322916 0.35478,-0.341017 0.825356,-0.597432 1.5875,-0.580375 0.855515,0.01915 1.32962,0.2315 1.5875,0.580375 0.554527,-0.588186 1.420096,-0.984962 2.38125,-1.322916 -0.117108,0.779293 -0.302415,1.524486 -0.79375,2.116666 l 0,1.058334 h 0.79375 c 2.543363,-1.859115 2.485488,-4.625638 2.38125,-7.4083337 C 25.092851,5.8201316 27.54802,4.235749 30.427083,3.175 c -3.130308,3.6893384 -3.029003,7.714429 -1.322916,11.90625 -4.622436,2.465408 -4.625315,5.444101 -4.233334,8.466667 -1.87092,0.06936 -3.620838,0.259716 -4.497916,1.322916 -0.656668,3.942304 -2.044612,4.959499 -3.439584,5.948585 C 14.91595,29.769616 13.747829,27.80989 13.49375,24.870833 12.514969,23.749175 10.777839,23.619204 8.9958333,23.547917 9.3243868,19.443837 8.0229504,16.540801 4.7625,15.08125 6.6716721,10.263837 6.0634885,6.3554687 3.4395833,3.175 Z"
       id="path2" /></g></svg>
