<?xml version="1.0" encoding="UTF-8" standalone="no"?>
<!-- Created with Inkscape (http://www.inkscape.org/) -->

<svg
   width="121.8171mm"
   height="68.914749mm"
   viewBox="0 0 121.8171 68.914749"
   version="1.1"
   id="svg1"
   xml:space="preserve"
   xmlns="http://www.w3.org/2000/svg"
   xmlns:svg="http://www.w3.org/2000/svg"><defs
     id="defs1" /><g
     id="layer1"
     style="display:inline;fill:#ff0000;fill-opacity:1"
     transform="translate(-102.79804,-173.91975)"><path
       id="path6"
       style="display:inline;opacity:1;fill:#ece9d8;fill-opacity:1;stroke:none;stroke-width:0.79375;stroke-miterlimit:15.8"
       d="m 102.81256,205.81623 c -0.16296,0.95411 1.09964,2.86255 1.09964,2.86255 0.80307,1.23352 1.46639,1.13894 2.20598,0.74223 l 22.93441,-13.3043 15.69723,9.28522 -2.20452,19.83859 -23.91326,13.7604 c 0,0 0.56588,1.94171 1.39454,2.21212 12.77359,4.16828 27.48923,0.93575 34.49213,-17.19153 0.23273,-0.43175 0.4129,-0.861 1.55298,-1.33595 l 3.8586,-0.84019 v -32.80885 l -10.50479,2.40451 c -0.78617,-0.0704 -1.57467,-0.18509 -2.40452,-1.08539 -18.12316,-16.31498 -40.75216,-4.77497 -44.20842,15.46059 z m 76.67157,-21.2554 -17.66455,4.04316 v 32.7918 l 17.7984,-4.23799 c 2.28096,-1.37351 4.10973,-3.63458 4.00802,-9.68519 0.16046,-5.37207 -1.20775,-7.78585 -3.80752,-7.81555 3.47684,-1.77029 3.70664,-5.07869 3.87418,-8.41654 0.23422,-4.21747 -1.14744,-6.47002 -4.20853,-6.67969 z m -6.94582,8.9271 c 0.80552,0.0366 1.38001,0.4142 1.36839,2.04535 -0.065,2.08454 -1.12453,2.44923 -2.23759,2.72129 v -4.72323 c 0.30673,-0.0298 0.60069,-0.0556 0.8692,-0.0434 z m 0,11.82409 c 0.80552,0.0476 1.38001,0.53903 1.36839,2.66133 -0.065,2.7122 -1.12453,3.18637 -2.23759,3.54035 v -6.14536 c 0.30673,-0.0388 0.60069,-0.0722 0.8692,-0.0563 z" /><path
       id="path1"
       style="display:inline;fill:#cbc14c;stroke-width:0.279032;stroke-linecap:square;stroke-miterlimit:5"
       d="m 30.960901,60.540491 a 9.1011324,8.4999571 65.942916 0 0 -2.200383,0.339514 c 1.85022,0.75779 3.399689,1.673379 4.647779,2.727999 l 2.888712,-1.289327 a 9.1011324,8.4999571 65.942916 0 0 -5.336108,-1.778186 z m -2.642216,0.486792 a 9.1011324,8.4999571 65.942916 0 0 -0.397392,0.157613 l 1.813843,4.062801 3.367236,-1.503267 c -1.27472,-1.05319 -2.866927,-1.966107 -4.783687,-2.717147 z m -0.6165,0.255281 a 9.1011324,8.4999571 65.942916 0 0 -0.383956,0.191203 c -0.72054,1.92835 -1.104505,3.723799 -1.171505,5.375899 l 3.369304,-1.504301 z m -0.787032,0.421163 a 9.1011324,8.4999571 65.942916 0 0 -3.961515,6.571692 l 2.889229,-1.289844 c 0.0481,-1.63332 0.401126,-3.398448 1.072286,-5.281848 z m 9.597347,0.781865 -2.903182,1.296045 c 1.15797,1.01925 2.042301,2.163822 2.652551,3.417362 l 2.934188,-1.309998 A 9.1011324,8.4999571 65.942916 0 0 36.5125,62.485592 Z m -3.206006,1.43092 -3.473173,1.55081 1.712557,3.836975 4.441073,-1.982825 c -0.60957,-1.24845 -1.501567,-2.38957 -2.680457,-3.40496 z m -3.692281,1.648478 -3.47524,1.551327 c -0.0311,1.55559 0.222664,2.98167 0.745174,4.26899 l 4.442623,-1.983342 z m 9.68158,0.542086 -2.932121,1.308964 c 0.0281,0.0616 0.0563,0.122902 0.0832,0.185002 0.56277,1.30109 0.839541,2.710358 0.833541,4.208528 l 2.827734,-1.262455 a 9.1011324,8.4999571 65.942916 0 0 -0.812354,-4.440039 z m -13.457577,1.143599 -2.904215,1.296562 a 9.1011324,8.4999571 65.942916 0 0 0.74259,4.270024 l 2.934705,-1.309998 c -0.52574,-1.29126 -0.78738,-2.713998 -0.77308,-4.256588 z m 10.251054,0.287838 -4.445723,1.984375 1.788004,4.004924 3.547587,-1.583883 c 0.0233,-1.50987 -0.245712,-2.922704 -0.807702,-4.221964 -0.0266,-0.0615 -0.05417,-0.122452 -0.08217,-0.183452 z m -4.664315,2.082044 -4.44779,1.985925 c 0.0267,0.0614 0.05417,0.122651 0.08216,0.183451 0.5921,1.28583 1.464512,2.429367 2.604492,3.419947 l 3.548621,-1.5844 z m 8.663554,1.198376 -2.812231,1.255737 c -0.0432,1.67409 -0.434167,3.456262 -1.166337,5.319572 a 9.1011324,8.4999571 65.942916 0 0 3.978568,-6.575309 z m -13.384196,0.909505 -2.932121,1.308448 a 9.1011324,8.4999571 65.942916 0 0 2.763139,3.569291 l 2.828768,-1.262455 c -1.11921,-0.99595 -1.983707,-2.142652 -2.576587,-3.430282 -0.0283,-0.0614 -0.056,-0.123002 -0.0832,-0.185002 z m 10.26759,0.482141 -3.442167,1.536858 1.811259,4.057116 a 9.1011324,8.4999571 65.942916 0 0 0.348299,-0.172599 c 0.79095,-1.9109 1.218509,-3.725645 1.282609,-5.421375 z m -3.661275,1.634526 -3.443717,1.537374 c 1.30569,1.08421 2.942998,1.97697 4.893758,2.66392 a 9.1011324,8.4999571 65.942916 0 0 0.361218,-0.144177 z m -3.746541,1.672766 -2.813265,1.255737 a 9.1011324,8.4999571 65.942916 0 0 7.551477,1.42782 c -1.87606,-0.69895 -3.463042,-1.598007 -4.738212,-2.683557 z"
       transform="translate(96.668878,145.53407)" /><path
       id="path2"
       style="display:inline;opacity:1;fill:#ece9d8;fill-opacity:1;stroke:none;stroke-width:0.79375;stroke-miterlimit:15.8"
       d="m 129.03553,198.25457 c -0.38353,-0.0168 -0.75587,0.0778 -1.11879,0.26716 l -11.7228,6.6797 c -0.64032,0.42934 -1.02987,1.15127 -1.13585,2.204 l -1.46916,13.86065 c -0.01,1.54331 0.56909,2.4052 1.4025,2.97243 l 11.38897,6.8802 c 1.08424,0.64955 2.03198,0.47829 2.93936,0.0667 l 10.8877,-6.17843 c 0.61911,-0.44291 1.13602,-1.0442 1.26918,-2.23811 l 1.50275,-14.72882 c 0.0296,-0.77229 -0.13691,-1.52037 -1.03508,-2.204 l -11.7228,-7.18095 c -0.40744,-0.25576 -0.80244,-0.3837 -1.18598,-0.40049 z m -1.40559,7.82019 a 9.1011324,8.4999571 65.942916 0 1 5.3361,1.77819 l -2.88871,1.28932 c -1.24809,-1.05462 -2.79756,-1.97021 -4.64778,-2.728 a 9.1011324,8.4999571 65.942916 0 1 2.20039,-0.33951 z m -2.64222,0.48679 c 1.91676,0.75104 3.50897,1.66396 4.78369,2.71715 l -3.36724,1.50327 -1.81384,-4.0628 a 9.1011324,8.4999571 65.942916 0 1 0.39739,-0.15762 z m -0.6165,0.25528 1.81384,4.0628 -3.3693,1.50431 c 0.067,-1.6521 0.45096,-3.44755 1.1715,-5.3759 a 9.1011324,8.4999571 65.942916 0 1 0.38396,-0.19121 z m -0.78703,0.42117 c -0.67116,1.8834 -1.02419,3.64852 -1.07229,5.28184 l -2.88923,1.28985 a 9.1011324,8.4999571 65.942916 0 1 3.96152,-6.57169 z m 9.59734,0.78186 a 9.1011324,8.4999571 65.942916 0 1 2.68356,3.40341 l -2.93419,1.31 c -0.61025,-1.25354 -1.49458,-2.39811 -2.65255,-3.41736 z m -3.206,1.43092 c 1.17889,1.01539 2.07089,2.15651 2.68046,3.40496 l -4.44108,1.98283 -1.71255,-3.83698 z m -3.69228,1.64848 1.71255,3.83697 -4.44262,1.98335 c -0.52251,-1.28732 -0.77627,-2.7134 -0.74517,-4.26899 z m 9.68158,0.54209 a 9.1011324,8.4999571 65.942916 0 1 0.81235,4.44003 l -2.82773,1.26246 c 0.006,-1.49817 -0.27077,-2.90744 -0.83354,-4.20853 -0.0269,-0.0621 -0.0551,-0.1234 -0.0832,-0.185 z m -13.45758,1.14359 c -0.0143,1.54259 0.24734,2.96533 0.77308,4.25659 l -2.9347,1.31 a 9.1011324,8.4999571 65.942916 0 1 -0.74259,-4.27002 z m 10.25105,0.28784 c 0.028,0.061 0.0556,0.12195 0.0822,0.18345 0.56199,1.29926 0.831,2.7121 0.8077,4.22197 l -3.54758,1.58388 -1.78801,-4.00492 z m -4.66431,2.08205 1.78749,4.00492 -3.54862,1.5844 c -1.13998,-0.99058 -2.01239,-2.13412 -2.60449,-3.41995 -0.028,-0.0608 -0.0555,-0.12205 -0.0822,-0.18345 z m 8.66355,1.19837 a 9.1011324,8.4999571 65.942916 0 1 -3.97856,6.57531 c 0.73217,-1.86331 1.12313,-3.64548 1.16633,-5.31957 z m -13.38419,0.90951 c 0.0272,0.062 0.0549,0.1236 0.0832,0.185 0.59288,1.28763 1.45737,2.43433 2.57658,3.43028 l -2.82876,1.26246 a 9.1011324,8.4999571 65.942916 0 1 -2.76314,-3.5693 z m 10.26759,0.48214 c -0.0641,1.69573 -0.49166,3.51047 -1.28261,5.42137 a 9.1011324,8.4999571 65.942916 0 1 -0.3483,0.1726 l -1.81126,-4.05711 z m -3.66128,1.63452 1.81126,4.05712 a 9.1011324,8.4999571 65.942916 0 1 -0.36122,0.14418 c -1.95076,-0.68695 -3.58806,-1.57971 -4.89375,-2.66392 z m -3.74654,1.67277 c 1.27517,1.08555 2.86215,1.98461 4.73821,2.68356 a 9.1011324,8.4999571 65.942916 0 1 -7.55147,-1.42782 z" /><path
       style="fill:#ece9d8;fill-opacity:1;stroke-width:0.264583;stroke-linecap:square;stroke-miterlimit:5"
       d="m 185.3885,183.34334 v 32.40794 l 15.47613,-3.90734 v -7.24007 l -5.89932,1.37906 v -25.20618 z"
       id="path3" /><path
       style="fill:#ece9d8;fill-opacity:1;stroke-width:0.264583;stroke-linecap:square;stroke-miterlimit:5"
       d="m 203.04815,179.05293 v 27.08323 c 0.15163,2.5344 1.30437,3.90083 3.29442,4.29041 l 14.36522,-3.1795 c 1.68314,-0.98001 3.13813,-2.467 3.90735,-5.47794 v -27.84938 l -9.61513,2.33674 V 200.007 c 0,1.87786 -2.6432,1.98777 -2.6432,0 v -23.25251 z"
       id="path4" /></g></svg>
