<?xml version="1.0" encoding="UTF-8" standalone="no"?>
<!-- Created with Inkscape (http://www.inkscape.org/) -->

<svg
   width="89.675369mm"
   height="69.527733mm"
   viewBox="0 0 89.675369 69.527733"
   version="1.1"
   id="svg1"
   xml:space="preserve"
   xmlns="http://www.w3.org/2000/svg"
   xmlns:svg="http://www.w3.org/2000/svg"><defs
     id="defs1" /><g
     id="layer1"
     transform="translate(-23.779839,-29.189888)"><path
       style="fill:#f7f3d6;fill-opacity:1;stroke:none;stroke-width:0.264583;stroke-linecap:square;stroke-miterlimit:5"
       d="m 23.779839,47.092097 v 44.019422 c 0.806381,2.929152 2.476873,3.409991 4.341824,3.339864 L 47.49288,88.105638 c 1.921852,-1.029951 2.624294,-2.517181 3.139474,-4.074634 L 50.632,59.382799 36.471325,63.524232 v 6.880122 L 42.416,68.600827 42.416285,82.962246 32.196299,85.901328 V 47.158894 l 10.219986,-2.805486 v 9.218028 L 50.632354,50.96634 V 38.876028 C 50.071445,37.254892 48.960631,36.183661 46.624515,36.337732 L 27.186501,43.28465 c -1.494532,0.551194 -2.796051,1.488412 -3.406662,3.807447 z"
       id="path1" /><path
       style="fill:#f7f3d6;fill-opacity:1;stroke:none;stroke-width:0.264583;stroke-linecap:square;stroke-miterlimit:5"
       d="m 54.129,34.432729 15.114,-5.242843 9.824746,3.542461 c 1.881774,1.238876 3.342136,2.730598 3.96756,4.723284 v 20.924138 c -0.09124,1.800097 -1.174594,2.427686 -2.64504,2.597807 L 74.911259,59.843987 84.405056,86.388836 75.289121,83.318701 65.464694,58.52147 v -4.581586 l 3.778306,-1.322517 4.818068,1.36975 V 37.880726 L 69.243,35.94418 63.008586,38.211355 V 83.177003 L 54.129,86.152671 Z"
       id="path2" /><path
       style="fill:#f7f3d6;fill-opacity:1;stroke:none;stroke-width:0.264583;stroke-linecap:square;stroke-miterlimit:5"
       d="m 86.836,34.934988 6.747018,2.170911 12.090312,33.432051 V 40.813151 l 7.78188,2.638494 V 96.288308 L 106.4749,94.017199 94.351185,57.946657 v 35.836754 c -0.293954,1.232 -0.912233,2.193729 -2.271106,2.538296 l -20.974354,-1.970522 2.137516,2.97248 c 0.01132,0.9186 -0.222709,1.659321 -1.970522,1.302549 L 41.180535,92.78145 63.691227,92.51426 62.288483,89.909167 86.836,89.57518 Z"
       id="path3" /></g></svg>
