<?xml version="1.0" encoding="UTF-8" standalone="no"?>
<!-- Created with Inkscape (http://www.inkscape.org/) -->

<svg
   width="123.94446mm"
   height="80.764336mm"
   viewBox="0 0 123.94446 80.764336"
   version="1.1"
   id="svg1"
   xml:space="preserve"
   xmlns="http://www.w3.org/2000/svg"
   xmlns:svg="http://www.w3.org/2000/svg"><defs
     id="defs1" /><g
     id="layer1"
     style="display:inline"
     transform="translate(-91.699546,-106.59114)"><path
       id="path1"
       style="display:inline;fill:#f7e9c0;fill-opacity:1;stroke-width:0.477938;stroke-linecap:square;stroke-miterlimit:5"
       d="m 132.38164,125.2431 v 9.4e-4 c -0.36548,-0.0108 -0.74963,-0.004 -1.15097,0.0242 -2.91877,0.209 -6.80348,1.54034 -11.9186,4.83166 l 2.88817,-4.68604 -7.12427,1.73347 c -4.08747,4.68935 -5.1905,11.36925 -6.61273,18.55 -3.39198,-5.30898 -13.377736,-15.04565 -16.30313,-7.1887 -2.773451,7.44885 7.578191,12.81558 15.0196,15.59743 -1.98091,4.97826 -3.44276,13.69894 -9.113509,13.54377 l -5.969565,19.70565 c 11.171644,-2.98534 17.195884,-15.90258 19.321044,-28.8845 8.44521,25.37693 17.58956,25.87206 31.96589,23.81479 1.11474,-0.1595 3.27183,0.83359 3.27183,0.83359 l 17.71733,-6.03396 c -9.98774,-3.91386 -12.08772,-0.25277 -28.38041,0.0448 -10.18393,1.2349 -17.39366,-11.79526 -22.39404,-23.28085 3.06238,0.0663 24.46182,-7.94323 25.67707,-22.59381 0.1147,-1.38332 -1.41148,-5.83981 -6.89371,-6.0125 z m -6.47924,6.05824 c 3.36283,-0.0108 6.84047,2.10892 4.51428,8.71679 -3.6988,7.13337 -10.78405,10.20099 -17.94044,10.94405 l 0.25671,-3.81884 c 2.52418,-8.80906 2.9593,-12.03311 9.21152,-14.73208 0.92566,-0.66161 2.42934,-1.1063 3.95793,-1.10992 z m -28.247861,8.78399 c 2.880721,0.0683 10.528901,6.04226 10.006841,12.12863 -2.22729,-0.74625 -15.522674,-6.26751 -10.911376,-11.77857 0.179229,-0.24818 0.493003,-0.35909 0.904535,-0.35006 z" /><path
       id="path2"
       style="opacity:1;fill:#f7e9c0;fill-opacity:1;stroke-width:0.264583;stroke-linecap:square;stroke-miterlimit:5"
       d="m 161.02943,115.36786 c -7.74777,0.12257 -14.14576,8.28584 -14.1795,8.29046 -0.65574,0.84356 -5.28533,7.30093 0.4868,14.63476 -8.55762,5.08129 -24.21584,22.03308 -13.86479,33.40468 7.59306,6.28957 15.99978,-0.30694 22.41879,-5.26996 l 3.04012,-12.36462 c -4.5242,3.63162 -15.81769,17.02234 -20.39152,9.04027 -4.24385,-7.91013 6.5621,-19.98018 10.70271,-23.22959 14.98718,5.70275 16.75226,-9.02606 0.77049,-3.52691 -2.03588,-1.1527 -2.16876,-3.10653 -2.18953,-5.1077 0.34739,-5.70891 11.17634,-14.32381 18.64848,-3.12177 l 3.97288,-8.22948 c -3.14481,-3.38503 -6.38319,-4.5681 -9.41493,-4.52014 z m -5.93504,21.55897 c 1.94403,0.012 2.82792,0.53125 2.73723,1.21794 -0.162,1.22665 -1.59057,1.27531 -2.99561,1.26148 -1.94655,-0.0192 -3.01799,-0.53552 -3.75473,-1.23257 0.85375,-0.65973 2.16529,-1.25825 4.01311,-1.24685 z" /><path
       id="path3"
       style="opacity:1;fill:#f7e9c0;fill-opacity:1;stroke-width:0.264583;stroke-linecap:square;stroke-miterlimit:5"
       d="m 196.91665,106.59114 -8.10804,1.98644 -4.33772,5.14852 -8.63461,3.40496 -4.17597,9.72964 c 2.96059,-1.89526 5.89655,-4.00277 8.95966,-5.02656 -4.3271,10.96028 -7.30493,23.62873 -9.36481,36.12079 -5.61642,-1.33934 -6.88894,-3.56399 -8.51369,-5.71645 l -1.45934,11.35125 c 2.62618,1.23282 5.53502,2.05477 8.99997,2.06757 l -0.60824,4.66225 7.66207,-2.14871 -0.40514,-3.2029 c 5.04401,-1.0253 13.73627,-3.45539 21.32376,-8.91832 12.40339,-8.53815 22.97006,-27.49751 14.10766,-38.55372 -5.60414,-6.92032 -11.66041,-6.56771 -20.83748,-5.79706 1.60291,-1.99608 3.1262,-3.79437 5.39192,-5.1077 z m -0.0935,11.1094 c 4.0123,0.10456 7.55649,1.66639 9.86968,6.48436 2.32164,9.95743 -3.14612,17.75826 -9.97561,24.48068 -5.4479,5.42022 -13.5535,8.31404 -19.60759,9.17308 1.31821,-14.03826 4.82184,-25.58299 9.86089,-38.58473 3.3279,-0.83481 6.73196,-1.63472 9.85263,-1.55339 z" /></g></svg>
