<?xml version="1.0" encoding="UTF-8" standalone="no"?>
<!-- Created with Inkscape (http://www.inkscape.org/) -->

<svg
   width="68.648994mm"
   height="27.930143mm"
   viewBox="0 0 68.648994 27.930143"
   version="1.1"
   id="svg1"
   xml:space="preserve"
   sodipodi:docname="ylw.svg"
   inkscape:version="1.4.2 (f4327f4, 2025-05-13)"
   xmlns:inkscape="http://www.inkscape.org/namespaces/inkscape"
   xmlns:sodipodi="http://sodipodi.sourceforge.net/DTD/sodipodi-0.dtd"
   xmlns="http://www.w3.org/2000/svg"
   xmlns:svg="http://www.w3.org/2000/svg"><sodipodi:namedview
     id="namedview1"
     pagecolor="#ffffff"
     bordercolor="#000000"
     borderopacity="0.25"
     inkscape:showpageshadow="2"
     inkscape:pageopacity="0.0"
     inkscape:pagecheckerboard="0"
     inkscape:deskcolor="#d1d1d1"
     inkscape:document-units="mm"
     inkscape:zoom="4.8401215"
     inkscape:cx="94.419117"
     inkscape:cy="56.196936"
     inkscape:window-width="1920"
     inkscape:window-height="1017"
     inkscape:window-x="-8"
     inkscape:window-y="-8"
     inkscape:window-maximized="1"
     inkscape:current-layer="svg1" /><defs
     id="defs1" /><g
     id="layer1"
     transform="translate(-49.129412,-55.073554)"><path
       style="display:inline;fill:#ececec;fill-opacity:1;stroke:none;stroke-width:0.264583;stroke-linecap:square;stroke-miterlimit:5"
       d="m 49.663794,55.074375 h 8.216066 c 0.544767,0.06258 0.821537,0.29442 0.76817,0.734769 v 0.734772 c -0.08738,0.402469 -0.303808,0.675886 -0.76817,0.70137 -0.532691,0.09559 -0.966181,0.267045 -0.96856,0.76817 l 3.139472,8.282864 2.70529,-7.815284 c -0.04766,-0.227868 0.362134,-0.575212 -0.634574,-0.96856 -0.342665,-0.196243 -0.707668,-0.362701 -0.868365,-0.801569 v -1.001958 c 0.03266,-0.446415 0.286925,-0.560439 0.567777,-0.634574 L 68.266841,55.074 c 0.349376,0.04617 0.700554,0.08962 0.834967,0.535 v 0.968 c -0.03226,0.464078 -0.272504,0.819132 -0.901764,0.969 -0.408592,0.06723 -0.789914,0.36612 -1.135554,0.968434 l -4.809406,11.956717 v 9.552014 c -0.07959,0.147807 1.269148,0.797126 1.269148,1.102156 V 82.194 c 0,0.537092 -0.212137,0.864907 -0.868365,0.802 l -7.815283,-3.55e-4 c -0.502138,-0.0087 -0.766861,-0.225194 -0.734772,-0.701371 v -0.96856 c 0,-0.435776 1.669117,-1.225799 1.569738,-1.369346 V 70.404354 L 50.866145,58.247245 c -0.197696,-0.28821 -0.232962,-0.627179 -0.901763,-0.768168 -0.316249,-0.12619 -0.640793,-0.233717 -0.834967,-0.634574 v -1.202351 c 0.0207,-0.366364 0.265722,-0.480365 0.534379,-0.567777 z"
       id="path3" /><path
       style="display:inline;fill:#ececec;fill-opacity:1;stroke:none;stroke-width:0.264583;stroke-linecap:square;stroke-miterlimit:5"
       d="m 73.399808,55.074 h 8.242128 c 0.494338,0.0335 0.554375,0.284154 0.614026,0.535 v 0.968 c -0.0537,0.472837 -0.350036,0.74135 -0.826574,0.858114 -0.333116,0.163725 -0.528543,0.488089 -0.732107,0.802958 v 22.081344 l 2.739503,-0.04723 c 2.008137,-0.586869 2.338186,-2.256468 2.739503,-3.955751 0.04706,-0.395878 0.42347,-0.584657 0.7203,-0.543435 h 1.877505 c 0.497858,0.02611 0.632341,0.342915 0.661259,0.744175 V 82.996 H 73.494275 C 73.092195,82.894338 72.719442,82.91707 72.6677,82.421277 v -1.062736 c 0.123256,-0.378565 0.348579,-0.693338 0.826575,-0.850191 0.624926,-0.08458 0.774961,-0.485745 0.873807,-0.921041 V 58.190838 C 74.275548,57.689639 73.941996,57.414394 73.494275,57.246183 73.095586,57.090417 72.972096,56.842919 72.903865,56.577 v -0.968 c 0.05247,-0.281772 0.177579,-0.496962 0.495943,-0.535 z"
       id="path4" /><path
       style="fill:#ececec;fill-opacity:1;stroke:none;stroke-width:0.264583;stroke-linecap:square;stroke-miterlimit:5"
       d="m 88.254532,55.074 h 8.171278 c 0.38036,-0.0092 0.634819,0.12227 0.637643,0.535 v 0.968 c -0.09068,0.347596 -0.26229,0.635837 -0.684877,0.740031 -0.622158,0.22042 -0.588933,0.44084 -0.70849,0.66126 l 2.857584,12.611166 2.21994,-9.989744 -0.51956,-2.408875 c -0.16721,-0.34008 -0.36017,-0.662044 -0.944653,-0.70849 -0.477048,-0.08815 -0.895636,-0.257246 -0.968274,-0.905348 v -0.968 c 0.0494,-0.348721 0.226144,-0.532635 0.543179,-0.535 h 8.525518 c 0.3437,0.01808 0.59147,0.14081 0.59041,0.535 v 0.968 c -0.15586,0.348814 -0.33847,0.677857 -0.85019,0.763647 -0.51249,0.140165 -0.80967,0.371673 -0.80295,0.73211 l 2.76312,12.587547 2.71588,-12.374999 c -0.14123,-0.361835 -0.26507,-0.73326 -0.85019,-0.850191 -0.69146,-0.07036 -0.97616,-0.394944 -1.03912,-0.858114 v -0.968 c 0.0142,-0.263341 0.12809,-0.460207 0.4251,-0.535 h 6.68344 c 0.35224,0.02519 0.69625,0.06296 0.75573,0.535 v 0.968 c 0.0462,0.583665 -0.38905,0.830326 -0.96828,0.976195 -0.63313,0.275525 -0.64923,0.551049 -0.82657,0.826574 L 109.88716,82.194 c -0.15726,0.455826 -0.46514,0.755006 -1.0155,0.802 h -1.4406 c -0.53834,-0.03365 -0.83059,-0.344176 -0.99189,-0.802 L 102.89671,67.046993 99.18893,82.194 c -0.09181,0.488393 -0.349368,0.785543 -0.850191,0.802 h -1.605915 c -0.642404,0.01696 -0.85383,-0.36925 -1.015508,-0.802 L 89.695133,58.238072 C 89.459012,57.907421 89.430277,57.473077 88.656011,57.411498 88.16558,57.38043 87.758759,57.226147 87.687739,56.577 v -0.968 c 0.07788,-0.230593 0.122943,-0.476629 0.566793,-0.535 z"
       id="path5" /><path
       id="path6"
       style="display:inline;opacity:1;fill:#4c3d2e;fill-opacity:1;stroke:none;stroke-width:0.264583;stroke-linecap:square;stroke-miterlimit:5"
       d="m 86.916142,58.193864 c -1.805267,-0.03947 -3.801065,1.635673 -3.553272,3.460254 l -2.738334,-2.638599 -1.069185,1.102259 2.338358,3.506762 -10.621057,7.815027 c -0.789682,-1.411192 -1.077279,-3.145152 -1.369425,-4.876188 0.322854,-0.117935 0.646079,0.279593 0.968933,0.534334 -0.223864,-1.328783 -0.686788,-2.561786 0.801501,-4.575431 -2.722316,0.936576 -4.111245,2.460069 -4.609021,4.375443 0.477586,-0.302209 1.023166,-0.842923 1.335836,-0.567924 -0.02544,2.908332 0.09716,5.796612 0.734839,8.616529 l -0.100252,1.035595 0.767911,0.06666 c 2.785619,1.238718 5.638005,2.405152 8.950875,3.072681 0.06445,0.113674 -0.353685,0.71041 -0.667659,1.20251 2.563189,-0.431557 4.071907,-1.917295 5.31027,-3.673677 -1.675371,0.623728 -3.345021,1.010868 -4.97644,-0.167432 0.11694,0.372984 0.39828,0.863785 0.233577,1.035596 -2.216173,-0.614652 -3.470722,-1.862395 -4.842598,-3.139343 l 10.086206,-8.249626 2.972428,3.206522 1.302763,-1.102258 -2.271179,-3.07268 c 1.716998,-0.07959 2.439679,0.2624 3.626624,-1.404167 1.216682,-1.708318 0.647437,-4.009182 -1.422108,-5.242456 -0.363183,-0.216427 -0.772991,-0.311286 -1.189591,-0.320394 z m -0.15503,1.806608 c 0.894406,-0.161503 2.039403,1.020425 1.962155,1.853634 -0.0894,0.964257 -0.743571,1.70049 -1.577682,1.670182 -0.670093,-0.02435 -1.99583,-0.573095 -1.878955,-1.803508 0.08381,-0.882374 0.347229,-1.513148 1.494482,-1.720308 z"
       sodipodi:nodetypes="scccccccccccccccccccccccsssssssss" /><path
       style="display:inline;fill:#ececec;fill-opacity:1;stroke:none;stroke-width:0.264583;stroke-linecap:square;stroke-miterlimit:5"
       d="m 80.697281,62.713491 v 11.527371 l -6.329199,0.169656 V 63.067041 Z"
       id="path9" /></g></svg>
