<?xml version="1.0" encoding="UTF-8" standalone="no"?>
<svg
   id="Layer_1"
   version="1.1"
   viewBox="0 0 34 31.280001"
   width="34"
   height="31.280001"
   xml:space="preserve"
   xmlns="http://www.w3.org/2000/svg"
   xmlns:svg="http://www.w3.org/2000/svg">
   <defs
   id="defs1"><style
     id="style1">
	 </style></defs><path
   id="rect22"
   d="M 10.54,-1.0698733e-8 9.86,3.4 6.46,2.04 6.8,6.12 c 0.180215,2.1625748 -0.69318,4.08659 -2.72,5.1 L 0,13.26 2.72,15.64 0,17.85 2.38,19.38 c 3.109741,2.610078 3.142558,3.390232 4.08,7.14 l -0.34,3.06 3.74,-1.359999 0.68,3.06 3.400001,-2.04 c 2.779767,-1.247978 3.375914,-0.914695 6.12,0 l 3.399999,2.04 0.680001,-3.06 L 27.88,29.58 27.54,26.52 c 0.625217,-3.984836 1.351037,-4.411036 4.08,-7.14 L 34,17.85 31.28,15.64 34,13.26 29.92,11.22 C 27.950196,10.235099 27.006832,8.4380211 27.200001,6.12 L 27.54,2.04 24.140001,3.4 23.46,-1.0698733e-8 C 21.348903,1.055549 19.404447,2.5124378 17.000001,2.3740235 14.634812,2.2378691 12.565983,1.327546 10.54,-1.0698733e-8 Z M 14.28,2.38 16.66,2.72 V 5.1 L 12.920001,7.48 8.5,7.82 8.16,5.78 9.86,4.08 v 0.68 c 2.033367,0.097946 3.920291,-0.051272 4.42,-2.38 z m 5.44,0 c 0.499709,2.3287283 2.386634,2.4779462 4.420001,2.38 V 4.08 L 25.84,5.78 25.5,7.82 21.080001,7.48 17.34,5.1 V 2.72 Z M 17.000001,5.407461 20.74,7.82 l -1.36,3.4 h -0.549179 c -0.584237,-0.224729 -1.204853,-0.339983 -1.83082,-0.34 -0.625969,1.7e-5 -1.246585,0.115271 -1.830822,0.34 H 14.62 L 13.26,7.82 Z M 12.75,7.99 l 1.53,3.57 -0.09895,0.17 h -6.8e-4 c -1.317872,0.874301 -2.155575,2.310541 -2.267755,3.888086 l -0.01262,0.02191 L 8.16,15.980001 6.46,12.58 8.84,8.33 Z m 8.5,0 3.910001,0.34 L 27.54,12.58 25.84,15.980001 22.100001,15.64 22.087407,15.61809 c -0.112184,-1.577546 -0.949883,-3.013785 -2.267773,-3.888086 h -6.8e-4 l -0.09893,-0.17 z m -4.249999,3.57 C 19.441099,11.56 21.42,13.538902 21.42,15.980001 21.42,18.421099 19.441099,20.4 17.000001,20.4 14.558903,20.4 12.58,18.421099 12.58,15.980001 12.58,13.538901 14.558901,11.56 17.000001,11.56 Z M 5.78,12.58 7.82,16.490001 7.14,21.42 5.44,21.76 4.08,20.060001 c 1.711025,-2.011826 1.121444,-3.6534 -0.68,-5.1 L 4.08,13.26 Z m 22.440001,0 1.699999,0.68 0.68,1.700001 c -1.801444,1.4466 -2.391025,3.088174 -0.68,5.1 L 28.56,21.76 26.86,21.42 26.180001,16.490001 Z M 11.9,16.32 l 0.01262,0.02191 c 0.112179,1.577545 0.949882,3.013785 2.267774,3.888086 h 6.8e-4 l 0.09893,0.170004 -2.72,2.720001 -3.74,-1.700001 0.68,-4.76 z m 10.200001,0 L 25.5,16.66 26.180001,21.42 22.44,23.120001 19.72,20.4 19.81895,20.23 h 6.8e-4 c 1.31789,-0.874301 2.155593,-2.310541 2.267773,-3.888086 z M 14.62,20.74 h 0.549179 c 0.584237,0.22473 1.204853,0.339984 1.830822,0.340001 0.625967,-1.7e-5 1.246583,-0.115268 1.83082,-0.340001 H 19.38 l 2.38,2.72 -2.38,3.4 h -4.76 l -2.38,-3.4 z m -7.14,1.19 4.08,1.87 2.72,3.400001 L 12.920001,27.88 10.2,28.220001 l 1.02,-1.02 C 9.551307,25.202858 8.568076,24.481671 6.46,24.48 L 6.12,22.100001 Z m 19.04,0 1.36,0.170001 L 27.54,24.48 c -2.108076,0.0017 -3.091307,0.722858 -4.76,2.720001 l 1.02,1.02 L 21.080001,27.88 19.72,27.200001 22.44,23.8 Z"
   class="st0"
   style="display:inline;fill:#ffffff;fill-opacity:1" /></svg>
