<?xml version="1.0" encoding="UTF-8" standalone="no"?>
<svg
   id="Layer_1"
   version="1.1"
   viewBox="0 0 96 32"
   width="96"
   height="32"
   xml:space="preserve"
   xmlns="http://www.w3.org/2000/svg"
   xmlns:svg="http://www.w3.org/2000/svg">
   <defs
   id="defs1"><style
     id="style1">
	 </style></defs><path
   id="rect22"
   d="m 58.54,0.36 -0.68,3.4 -3.4,-1.36 0.34,4.08 c 0.180215,2.1625748 -0.69318,4.08659 -2.72,5.1 L 48,13.62 50.72,16 48,18.21 l 2.38,1.53 c 3.109741,2.610078 3.142558,3.390232 4.08,7.14 l -0.34,3.06 3.74,-1.359999 0.68,3.06 3.400001,-2.04 c 2.779767,-1.247978 3.375914,-0.914695 6.12,0 l 3.399999,2.04 0.680001,-3.06 L 75.88,29.94 75.54,26.88 c 0.625217,-3.984836 1.351037,-4.411036 4.08,-7.14 L 82,18.21 79.28,16 82,13.62 77.92,11.58 C 75.950196,10.595099 75.006832,8.7980211 75.200001,6.48 L 75.54,2.4 72.140001,3.76 71.46,0.36 C 69.348903,1.415549 67.404447,2.8724378 65.000001,2.7340235 62.634812,2.5978691 60.565983,1.687546 58.54,0.36 Z m 3.74,2.38 2.38,0.34 V 5.46 L 60.920001,7.84 56.5,8.18 56.16,6.14 l 1.7,-1.7 v 0.68 c 2.033367,0.097946 3.920291,-0.051272 4.42,-2.38 z m 5.44,0 c 0.499709,2.3287283 2.386634,2.4779462 4.420001,2.38 V 4.44 L 73.84,6.14 73.5,8.18 69.080001,7.84 65.34,5.46 V 3.08 Z M 65.000001,5.767461 68.74,8.18 l -1.36,3.4 h -0.549179 c -0.584237,-0.224729 -1.204853,-0.339983 -1.83082,-0.34 -0.625969,1.7e-5 -1.246585,0.115271 -1.830822,0.34 H 62.62 L 61.26,8.18 Z M 60.75,8.35 l 1.53,3.57 -0.09895,0.17 h -6.8e-4 c -1.317872,0.874301 -2.155575,2.310541 -2.267755,3.888086 l -0.01262,0.02191 L 56.16,16.340001 54.46,12.94 56.84,8.69 Z m 8.5,0 3.910001,0.34 L 75.54,12.94 73.84,16.340001 70.100001,16 70.087407,15.97809 c -0.112184,-1.577546 -0.949883,-3.013785 -2.267773,-3.888086 h -6.8e-4 l -0.09893,-0.17 z m -4.249999,3.57 C 67.441099,11.92 69.42,13.898902 69.42,16.340001 69.42,18.781099 67.441099,20.76 65.000001,20.76 62.558903,20.76 60.58,18.781099 60.58,16.340001 60.58,13.898901 62.558901,11.92 65.000001,11.92 Z M 53.78,12.94 55.82,16.850001 55.14,21.78 l -1.7,0.34 -1.36,-1.699999 c 1.711025,-2.011826 1.121444,-3.6534 -0.68,-5.1 L 52.08,13.62 Z m 22.440001,0 1.699999,0.68 0.68,1.700001 c -1.801444,1.4466 -2.391025,3.088174 -0.68,5.1 L 76.56,22.12 74.86,21.78 74.180001,16.850001 Z M 59.9,16.68 l 0.01262,0.02191 c 0.112179,1.577545 0.949882,3.013785 2.267774,3.888086 h 6.8e-4 l 0.09893,0.170004 -2.72,2.720001 -3.74,-1.700001 0.68,-4.76 z m 10.200001,0 L 73.5,17.02 74.180001,21.78 70.44,23.480001 67.72,20.76 67.81895,20.59 h 6.8e-4 c 1.31789,-0.874301 2.155593,-2.310541 2.267773,-3.888086 z M 62.62,21.1 h 0.549179 c 0.584237,0.22473 1.204853,0.339984 1.830822,0.340001 0.625967,-1.7e-5 1.246583,-0.115268 1.83082,-0.340001 H 67.38 l 2.38,2.72 -2.38,3.4 h -4.76 l -2.38,-3.4 z m -7.14,1.19 4.08,1.87 2.72,3.400001 L 60.920001,28.24 58.2,28.580001 l 1.02,-1.02 C 57.551307,25.562858 56.568076,24.841671 54.46,24.84 l -0.34,-2.379999 z m 19.04,0 1.36,0.170001 L 75.54,24.84 c -2.108076,0.0017 -3.091307,0.722858 -4.76,2.720001 l 1.02,1.02 L 69.080001,28.24 67.72,27.560001 70.44,24.16 Z"
   class="st0"
   style="display:inline;fill:#ffffff;fill-opacity:1" /><path
   id="path1"
   style="fill:#ffffff;fill-opacity:1;stroke-miterlimit:12.7;paint-order:stroke fill markers"
   d="m 52.123047,10.404297 -23.300781,1.972656 19.507812,2.861328 -2.109375,-1.845703 5.412109,-2.707031 c 0.174447,-0.08722 0.337821,-0.181272 0.490235,-0.28125 z m -3.511719,5.080078 -33.949219,1.240234 32.414063,2.080079 -0.779297,-0.5 2.873047,-2.332032 z m -0.974609,3.681641 -18.201172,2.185546 23.371094,3.175782 C 52.664857,24.062973 52.52109,23.677735 52.347656,23.34375 51.921548,22.523183 51.249941,21.784626 49.757812,20.529297 Z" /></svg>
