<?xml version="1.0" encoding="UTF-8" standalone="no"?>
<!-- Created with Inkscape (http://www.inkscape.org/) -->

<svg
   width="76"
   height="119.07227"
   viewBox="0 0 20.108321 31.504508"
   version="1.1"
   id="svg1"
   xml:space="preserve"
   xmlns="http://www.w3.org/2000/svg"
   xmlns:svg="http://www.w3.org/2000/svg"><defs
     id="defs1" /><g
     id="layer1"
     transform="translate(-1.3229167,-1.0392132)"><path
       id="path1"
       style="display:inline;opacity:1;fill:#ffffff;fill-opacity:1;stroke:none;stroke-width:0.529167;stroke-linecap:square;stroke-miterlimit:12.7;paint-order:stroke fill markers"
       d="M 11.509375,1.0392131 1.3229167,7.14375 H 2.38125 V 8.9958333 H 4.2333333 V 19.05 H 2.1166667 v 2.38125 H 3.96875 l -1.8520833,11.1125 h 2.1166666 l 0.79375,-4.7625 6.4822917,-2.464449 6.482292,2.464449 0.79375,4.7625 h 2.116666 L 18.785417,21.43125 H 20.6375 V 19.05 H 18.520833 V 8.9958333 h 1.852084 V 7.14375 H 21.43125 Z M 7.9375,5.55625 h 6.879167 l 2.116666,2.1166667 V 16.933333 L 14.816667,19.05 H 7.9375 L 5.8208333,16.933333 V 7.6729167 Z m -1.8520833,15.875 H 16.66875 L 11.509375,23.8125 Z M 5.55625,23.547917 8.9958333,24.60625 5.2916667,25.929167 Z m 11.641667,0 0.264583,2.38125 -3.704167,-1.322917 z" /></g></svg>
